<svg width="24" height="24" viewBox="0 0 24 24" fill="none" xmlns="http://www.w3.org/2000/svg">
<rect width="24" height="24" fill="white"/>
<path d="M0.00585938 22.5036V1.51575H23.9864V22.5036H0.00585938ZM10.0359 9.76475C10.0103 9.77991 9.99005 9.79487 9.96771 9.80478C9.82623 9.86852 9.68243 9.92702 9.54309 9.99465C8.60272 10.4515 7.85143 11.1198 7.30633 12.014C7.01114 12.4982 6.80981 13.0221 6.68116 13.5735C6.63783 13.7591 6.60926 13.9483 6.58089 14.137C6.55698 14.2964 6.62364 14.37 6.78222 14.3714C6.86966 14.3722 6.9575 14.3644 7.04437 14.371C7.14076 14.3782 7.18176 14.3374 7.20139 14.2459C7.2902 13.8302 7.53894 13.5282 7.90273 13.3269C8.52071 12.9846 9.14218 13.0097 9.7518 13.3535C10.0923 13.5455 10.327 13.8311 10.4458 14.2054C10.4957 14.3632 10.4901 14.3669 10.6533 14.3671C11.5408 14.3677 12.4281 14.3675 13.3157 14.3671C13.8145 14.3671 14.3132 14.365 14.812 14.3663C14.8946 14.3665 14.9535 14.3391 14.9974 14.2682C15.0621 14.1638 15.1282 14.0599 15.202 13.9621C15.2269 13.9291 15.2763 13.8986 15.3165 13.8961C15.4586 13.8871 15.6014 13.8896 15.7438 13.8898C15.9318 13.8898 16.1195 13.8929 16.3074 13.8922C16.3795 13.892 16.4465 13.8766 16.4528 13.7853C16.458 13.7068 16.3956 13.6452 16.3058 13.639C16.2705 13.6364 16.2347 13.6384 16.199 13.6384C15.6937 13.638 15.1884 13.6372 14.6832 13.6376C14.6171 13.6376 14.5683 13.6331 14.5874 13.542C14.6635 13.1778 14.7323 12.8123 14.8093 12.4483C14.9572 11.7491 15.108 11.0505 15.2594 10.352C15.3025 10.153 15.3643 9.95481 15.2306 9.76514C15.2287 9.76222 15.2347 9.75367 15.238 9.74512C15.2493 9.74357 15.2619 9.74027 15.2743 9.74027C16.6508 9.74007 18.0272 9.73968 19.4039 9.74065C19.5751 9.74065 19.6934 9.87397 19.6602 10.0403C19.5621 10.5318 19.4564 11.0217 19.3537 11.5124C19.2247 12.1296 19.0949 12.7466 18.9676 13.3642C18.9309 13.5424 18.8267 13.6386 18.658 13.6384C18.4831 13.6382 18.3082 13.6413 18.1335 13.6345C18.0993 13.6331 18.0492 13.6003 18.0362 13.5694C17.9349 13.3282 17.8385 13.0849 17.746 12.8402C17.6852 12.6795 17.5719 12.5884 17.4038 12.5855C17.1125 12.5802 16.8208 12.5837 16.5295 12.5899C16.3978 12.5927 16.3212 12.7126 16.3665 12.8352C16.4598 13.0869 16.5596 13.336 16.6498 13.5886C16.7277 13.8074 16.8062 14.0268 16.8649 14.2511C16.9137 14.4375 16.775 14.6094 16.5985 14.6091C16.2553 14.6083 15.9119 14.6065 15.5687 14.6054C15.5194 14.6054 15.47 14.6054 15.4154 14.6054C15.4842 14.4326 15.5237 14.4042 15.6813 14.4042C15.9275 14.4042 16.1735 14.4052 16.4197 14.4042C16.5227 14.4038 16.5758 14.3623 16.5764 14.2859C16.5767 14.2076 16.5239 14.1596 16.4252 14.1596C16.1337 14.16 15.8422 14.164 15.5507 14.1652C15.4589 14.1656 15.3888 14.2035 15.3359 14.2768C15.2829 14.3502 15.2265 14.4215 15.1783 14.4981C15.1303 14.5743 15.0693 14.6034 14.978 14.6034C13.3942 14.6025 11.8106 14.6044 10.2267 14.6052C10.1931 14.6052 10.1593 14.6001 10.1191 14.5968C10.1358 14.5313 10.1547 14.4798 10.1615 14.4268C10.1988 14.1362 10.0515 13.9217 9.85752 13.7351C9.35575 13.2526 8.4319 13.2056 7.87358 13.6376C7.56829 13.8739 7.38542 14.1716 7.48084 14.5801C7.48201 14.5848 7.4754 14.5912 7.46471 14.611C7.41826 14.611 7.36385 14.611 7.30963 14.611C6.46759 14.6126 5.62555 14.6139 4.78332 14.6155C4.67643 14.6157 4.56858 14.6091 4.46345 14.6231C4.42516 14.6281 4.36725 14.6831 4.36589 14.7171C4.36434 14.7601 4.40476 14.8119 4.44052 14.8456C4.46111 14.865 4.50834 14.8597 4.54351 14.8596C6.73616 14.8584 8.92881 14.8557 11.1215 14.8555C14.0201 14.8553 16.919 14.857 19.8176 14.8578C19.9544 14.8578 20.0195 14.8162 20.0195 14.7303C20.0195 14.6456 19.9529 14.6093 19.8149 14.6096C19.2999 14.611 18.7849 14.6104 18.2702 14.6096C18.2336 14.6096 18.1971 14.6017 18.1481 14.596C18.263 14.3537 18.2161 14.1254 18.1314 13.8879C18.3135 13.8879 18.4779 13.8811 18.6413 13.8896C18.8483 13.9003 19.0166 13.8273 19.1176 13.6518C19.1783 13.5466 19.2022 13.4176 19.229 13.2962C19.3244 12.8636 19.4128 12.4294 19.5057 11.9963C19.6351 11.3923 19.7585 10.7869 19.8994 10.1857C20.0024 9.7459 19.6981 9.46684 19.3427 9.48841C19.0586 9.50571 18.7729 9.49502 18.4878 9.4958C17.3445 9.49832 16.2013 9.50027 15.0578 9.5024C14.7969 9.50279 14.66 9.57022 14.5817 9.91983C14.5701 9.9723 14.5615 10.0255 14.5506 10.0831C14.3174 9.97638 14.0965 9.87552 13.8594 9.76708C13.9605 9.69168 14.0495 9.6293 14.134 9.56129C14.4785 9.28417 14.7743 8.96838 14.929 8.54279C15.0279 8.27073 15.0439 7.98739 15.0508 7.70153C15.0565 7.46697 15.0998 7.24718 15.1956 7.02098C15.3727 6.60258 15.2833 6.44148 14.9107 6.29709C14.9076 6.29593 14.9047 6.29437 14.9016 6.29398C14.8396 6.28504 14.8375 6.25356 14.8515 6.19759C14.9935 5.63209 15.0606 5.05842 15.0223 4.47503C15.0143 4.35261 14.9984 4.23018 14.9754 4.10969C14.9389 3.91924 14.8402 3.85181 14.6577 3.89748C14.47 3.94451 14.2821 3.99523 14.1 4.06033C13.7391 4.18917 13.4286 4.394 13.2043 4.71134C13.1625 4.77042 13.1295 4.77644 13.0619 4.76051C12.8077 4.70007 12.5533 4.62778 12.2948 4.60116C11.8279 4.55316 11.3634 4.58872 10.9143 4.74224C10.8609 4.76051 10.8216 4.76323 10.7812 4.70882C10.403 4.19908 9.85635 3.99406 9.26189 3.88271C9.1346 3.85881 9.05551 3.92216 9.01392 4.04906C8.99993 4.09201 8.98886 4.13651 8.98303 4.1812C8.89752 4.83591 8.92065 5.48614 9.07009 6.13016C9.10196 6.26716 9.10371 6.26969 8.97428 6.32177C8.73389 6.41855 8.62604 6.5812 8.66432 6.80663C8.67812 6.88844 8.69658 6.97803 8.74186 7.0441C8.85107 7.20307 8.86915 7.37583 8.87401 7.56044C8.88042 7.80588 8.88586 8.05405 8.92609 8.29541C8.99527 8.70972 9.22808 9.04125 9.5256 9.32634C9.68359 9.47772 9.85732 9.61259 10.0355 9.76475H10.0359ZM4.47686 8.07814H4.48035C4.48035 9.14988 4.48016 10.2216 4.48094 11.2936C4.48094 11.3482 4.4823 11.4049 4.49609 11.457C4.5439 11.6371 4.68887 11.7343 4.91255 11.7347C5.56006 11.7362 6.20777 11.7357 6.85528 11.7355C6.88754 11.7355 6.92019 11.7345 6.95206 11.7298C7.02144 11.7195 7.06788 11.6797 7.06555 11.6078C7.06303 11.5345 7.0193 11.4891 6.94332 11.4821C6.91767 11.4797 6.89163 11.4799 6.86578 11.4801C6.43514 11.4817 6.0045 11.4836 5.57386 11.485C5.36009 11.4856 5.14652 11.4852 4.93276 11.485C4.78254 11.485 4.73357 11.4381 4.7291 11.2916C4.72832 11.2689 4.72813 11.2463 4.72813 11.2236C4.72871 9.36501 4.73007 7.50642 4.72852 5.64783C4.72852 5.55785 4.75592 5.53453 4.84453 5.53453C6.02646 5.53648 7.20819 5.53453 8.39012 5.53337C8.42568 5.53337 8.46766 5.54347 8.49545 5.52831C8.53626 5.50597 8.59009 5.46865 8.59553 5.43154C8.60116 5.39345 8.56152 5.34176 8.52945 5.30775C8.51196 5.28909 8.46902 5.28948 8.43734 5.28948C7.7152 5.28948 6.99326 5.29084 6.27112 5.29103C5.78549 5.29103 5.29985 5.28967 4.81402 5.28948C4.77049 5.28948 4.72735 5.2957 4.72774 5.23001C4.72852 5.09729 4.72424 4.96456 4.72657 4.83183C4.72793 4.75662 4.77399 4.7127 4.84706 4.7026C4.89156 4.69657 4.93742 4.69832 4.9827 4.69832C6.14189 4.6991 7.30108 4.70046 8.46027 4.70104C8.56968 4.70104 8.61943 4.66062 8.6206 4.57648C8.62196 4.49291 8.57065 4.44997 8.46183 4.45016C7.24764 4.45074 6.03326 4.45171 4.81907 4.45424C4.77554 4.45424 4.72813 4.46435 4.68926 4.48339C4.54137 4.55607 4.4755 4.67753 4.47569 4.84349C4.47744 5.92164 4.47666 6.99999 4.47666 8.07834L4.47686 8.07814ZM8.27779 16.429C8.27779 16.4317 8.27779 16.4342 8.27779 16.4369C7.89574 16.4369 7.51368 16.4356 7.13163 16.4377C7.00978 16.4385 6.98121 16.4657 6.98082 16.5765C6.97888 17.0946 6.97946 17.6127 6.97849 18.1307C6.97849 18.2174 7.01813 18.2646 7.10539 18.266C7.20897 18.2677 7.31255 18.2668 7.41613 18.2672C7.56771 18.2677 7.5986 18.2357 7.59763 18.0866C7.5953 17.7434 7.59627 17.4001 7.59161 17.0569C7.59064 16.9791 7.61318 16.9445 7.6948 16.9469C7.78205 16.9496 7.8695 16.9399 7.95676 16.9401C8.10406 16.9405 8.13924 16.9782 8.13943 17.1249C8.14001 17.4584 8.1404 17.792 8.14176 18.1255C8.14235 18.2403 8.16411 18.2644 8.27624 18.267C8.38293 18.2693 8.49 18.2685 8.59669 18.265C8.7234 18.2609 8.75333 18.2264 8.75313 18.0983C8.75235 17.7485 8.75333 17.3989 8.75041 17.0491C8.74983 16.9776 8.7679 16.9397 8.84738 16.9422C8.94435 16.9451 9.04171 16.9354 9.13849 16.9405C9.2582 16.9467 9.29493 16.9922 9.29473 17.1126C9.29415 17.4527 9.29551 17.7926 9.29201 18.1327C9.29124 18.2184 9.32583 18.2625 9.40861 18.2646C9.53473 18.2681 9.66105 18.2714 9.78698 18.2662C9.85616 18.2633 9.91349 18.23 9.9131 18.1471C9.91096 17.7164 9.9131 17.2858 9.90319 16.8553C9.8993 16.6849 9.8136 16.5483 9.64764 16.4877C9.55533 16.454 9.4535 16.4331 9.35556 16.4313C8.99624 16.4247 8.63673 16.4288 8.27741 16.4288L8.27779 16.429ZM10.3325 17.6445H10.3346C10.3346 18.0101 10.3344 18.3756 10.3346 18.7411C10.3346 18.861 10.3626 18.8896 10.484 18.8914C10.5907 18.8929 10.6976 18.8951 10.8043 18.8906C10.9061 18.8863 10.9421 18.8426 10.9409 18.7433C10.9396 18.6271 10.9378 18.5107 10.9399 18.3943C10.9423 18.2631 10.944 18.2656 11.0805 18.2648C11.2806 18.2637 11.4819 18.2716 11.6805 18.252C11.9021 18.23 12.0609 18.0715 12.0704 17.8484C12.085 17.51 12.0735 17.1704 12.0712 16.8314C12.071 16.8002 12.0601 16.7677 12.048 16.7382C11.9563 16.5108 11.7641 16.435 11.543 16.4303C11.1873 16.4228 10.8313 16.4298 10.4755 16.4336C10.355 16.435 10.3329 16.4618 10.3325 16.587C10.3319 16.9397 10.3323 17.2922 10.3323 17.6449L10.3325 17.6445ZM19.9494 17.0231C19.9509 17.0231 19.9525 17.0231 19.954 17.0231C19.954 17.3888 19.9531 17.7545 19.9546 18.1202C19.955 18.2367 19.9818 18.2623 20.0978 18.2658C20.1884 18.2687 20.2792 18.2685 20.3697 18.2689C20.5392 18.2699 20.5584 18.2514 20.558 18.0812C20.5572 17.7382 20.5572 17.395 20.5526 17.052C20.5514 16.9717 20.5798 16.9416 20.6585 16.9434C20.7489 16.9453 20.8396 16.9354 20.9302 16.9374C21.0922 16.9408 21.1152 16.9661 21.1152 17.1257C21.1152 17.4622 21.1159 17.7988 21.1138 18.1354C21.1132 18.2168 21.1408 18.2695 21.2271 18.2707C21.3468 18.2724 21.4667 18.273 21.5862 18.2666C21.6908 18.2611 21.7188 18.2254 21.7188 18.1164C21.719 17.7345 21.7192 17.3526 21.7184 16.9706C21.7176 16.6128 21.5237 16.4206 21.1643 16.421C21.0025 16.421 20.8406 16.4202 20.6789 16.4251C20.5946 16.4276 20.5549 16.4035 20.5598 16.31C20.5668 16.1746 20.5617 16.0384 20.5617 15.9025C20.5617 15.8153 20.5184 15.7704 20.4307 15.7704C20.3239 15.7704 20.2172 15.7704 20.1103 15.7714C19.9869 15.7725 19.9494 15.8116 19.9494 15.9356C19.9494 16.298 19.9494 16.6606 19.9494 17.0231ZM17.1646 18.2606C17.1646 18.2641 17.1646 18.2677 17.1646 18.2712C17.2779 18.2712 17.3912 18.2705 17.5047 18.2712C17.7921 18.2736 17.8442 18.2744 17.8179 17.943C17.8084 17.8239 17.7744 17.7881 17.6563 17.7881C17.4458 17.7881 17.2353 17.7883 17.0249 17.7874C16.9635 17.7872 16.9005 17.7909 16.841 17.779C16.7546 17.7615 16.7361 17.6896 16.7413 17.6138C16.7468 17.5347 16.8134 17.5631 16.8546 17.5629C17.1234 17.5614 17.3922 17.5654 17.6609 17.5648C17.7936 17.5647 17.8486 17.5083 17.8494 17.3746C17.8502 17.216 17.8533 17.0571 17.8448 16.8989C17.8308 16.6455 17.6975 16.4708 17.447 16.4484C17.1457 16.4216 16.8393 16.4247 16.5373 16.4459C16.3144 16.4614 16.1667 16.605 16.1519 16.8281C16.1298 17.163 16.1261 17.5019 16.1539 17.8359C16.1762 18.1059 16.3286 18.232 16.6022 18.2571C16.7882 18.2742 16.9771 18.2604 17.1648 18.2604L17.1646 18.2606ZM6.56709 17.3612C6.56592 17.3612 6.56476 17.3612 6.56359 17.3612C6.56359 17.2059 6.57175 17.0501 6.56165 16.8954C6.54591 16.6495 6.40677 16.4778 6.16346 16.4546C5.87158 16.4268 5.57483 16.4191 5.28256 16.4383C5.00486 16.4566 4.82607 16.6359 4.81538 16.8853C4.80197 17.1985 4.80528 17.5134 4.81907 17.8268C4.82879 18.0493 4.99533 18.2341 5.21707 18.2483C5.52877 18.2685 5.84379 18.2714 6.1553 18.2495C6.40463 18.232 6.5531 18.0482 6.56573 17.7982C6.57312 17.6529 6.56709 17.5069 6.56709 17.3614V17.3612ZM2.71951 17.0771C2.71951 17.0771 2.72048 17.0771 2.72107 17.0771C2.72107 17.2778 2.71543 17.4788 2.72223 17.6793C2.73467 18.0386 2.96243 18.2658 3.31961 18.2714C3.64006 18.2765 3.96071 18.2714 4.28116 18.267C4.43935 18.2648 4.47841 18.2188 4.47608 18.0583C4.4755 18.0194 4.47608 17.9805 4.47627 17.9417C4.47666 17.7646 4.45159 17.7403 4.27358 17.7411C4.03397 17.7423 3.79436 17.7452 3.55475 17.7425C3.41094 17.7407 3.32894 17.6754 3.32699 17.558C3.32175 17.2312 3.32155 16.9041 3.32116 16.5771C3.32116 16.4811 3.37577 16.428 3.4673 16.4132C3.51491 16.4055 3.56388 16.4016 3.61208 16.402C3.83556 16.4041 4.05885 16.4094 4.28233 16.4115C4.41447 16.4128 4.45762 16.3705 4.46131 16.2391C4.46325 16.168 4.46286 16.0967 4.4617 16.0254C4.45975 15.9045 4.43196 15.8747 4.31323 15.8747C3.99258 15.8747 3.67213 15.8742 3.35148 15.8786C2.96418 15.8839 2.72456 16.1258 2.71951 16.5135C2.71699 16.7012 2.71912 16.8892 2.71912 17.0769L2.71951 17.0771ZM17.9967 6.9275H17.9979C17.9979 6.2281 17.9981 5.5287 17.9979 4.8293C17.9979 4.60174 17.8475 4.45094 17.623 4.45094C16.9333 4.45094 16.2437 4.45094 15.554 4.45094C15.5184 4.45094 15.476 4.4418 15.4488 4.45754C15.408 4.48106 15.3587 4.51856 15.3493 4.5586C15.342 4.59066 15.3806 4.64546 15.4137 4.6715C15.4426 4.69444 15.4918 4.69852 15.5322 4.69929C15.6552 4.70201 15.7782 4.69832 15.9012 4.69832C16.4485 4.69852 16.9957 4.6989 17.5428 4.69968C17.7225 4.69988 17.747 4.72436 17.748 4.89907C17.7486 4.98982 17.7418 5.08096 17.7503 5.17094C17.7593 5.26616 17.7247 5.29065 17.6322 5.29026C16.9425 5.28734 16.2528 5.28929 15.5631 5.29065C15.5248 5.29065 15.4747 5.28482 15.4508 5.30561C15.4146 5.3369 15.3758 5.38995 15.3773 5.43231C15.3785 5.46691 15.4315 5.51044 15.4714 5.52987C15.5058 5.54678 15.5538 5.53648 15.5959 5.53628C16.2792 5.53531 16.9623 5.53512 17.6456 5.53123C17.7262 5.53084 17.7495 5.55552 17.7491 5.63617C17.7455 6.36142 17.746 7.08666 17.7453 7.81191C17.7449 8.23283 17.7453 8.65376 17.7435 9.07468C17.7431 9.15552 17.773 9.20682 17.856 9.21557C17.9281 9.22315 17.9858 9.16718 17.995 9.08362C17.9979 9.05797 17.9965 9.03193 17.9965 9.00608C17.9965 8.31309 17.9965 7.6203 17.9965 6.92731L17.9967 6.9275ZM15.491 18.2852L15.4914 18.2786C15.5334 18.2786 15.5755 18.2792 15.6175 18.2786C15.6595 18.2779 15.7021 18.2786 15.7434 18.273C15.8278 18.2617 15.8791 18.2174 15.8785 18.1261C15.8779 18.0581 15.8803 17.99 15.8785 17.9222C15.8756 17.8157 15.8443 17.786 15.7359 17.7846C15.6809 17.7839 15.6259 17.7885 15.5709 17.7868C15.4638 17.7833 15.4218 17.7458 15.4203 17.6404C15.417 17.4302 15.4203 17.2197 15.4177 17.0094C15.417 16.9443 15.4467 16.9251 15.5066 16.9263C15.5938 16.9278 15.6813 16.9236 15.7687 16.9232C15.8439 16.923 15.8838 16.8886 15.8834 16.8116C15.883 16.7275 15.882 16.6433 15.8828 16.5592C15.8836 16.477 15.8396 16.4428 15.7621 16.4412C15.6748 16.4395 15.5874 16.4358 15.5001 16.4352C15.4434 16.4348 15.4185 16.4101 15.4191 16.3526C15.4199 16.2654 15.4162 16.1779 15.4141 16.0905C15.4125 16.0236 15.3779 15.9884 15.3111 15.9886C15.1849 15.989 15.0586 15.9896 14.9325 15.9925C14.8441 15.9945 14.8052 16.0448 14.8072 16.1307C14.8089 16.2084 14.8097 16.2859 14.8118 16.3637C14.8132 16.414 14.7963 16.442 14.7393 16.4414C14.5044 16.4393 14.5083 16.441 14.5081 16.6937C14.5081 16.7164 14.5089 16.7389 14.5096 16.7617C14.5153 16.9138 14.5211 16.9199 14.6703 16.9239C14.8221 16.928 14.8204 16.928 14.821 17.0845C14.8223 17.3497 14.8169 17.6154 14.8318 17.8801C14.8437 18.0925 14.9807 18.2291 15.1917 18.2629C15.2903 18.2788 15.3913 18.2782 15.491 18.2852ZM19.0992 16.4266C19.0992 16.4233 19.0988 16.42 19.0986 16.4167C18.9278 16.4265 18.7548 16.4233 18.5863 16.4488C18.3545 16.4838 18.1957 16.6602 18.1872 16.8956C18.1763 17.1929 18.1747 17.4916 18.1885 17.7887C18.2008 18.0561 18.3559 18.2337 18.6194 18.2561C18.9114 18.2808 19.207 18.2662 19.5012 18.2641C19.5833 18.2635 19.6202 18.2083 19.6196 18.1278C19.619 18.0631 19.6198 17.9982 19.6176 17.9337C19.6134 17.8085 19.5854 17.7823 19.4577 17.7819C19.2894 17.7815 19.1209 17.7819 18.9526 17.7811C18.8807 17.7808 18.7989 17.7656 18.7939 17.6857C18.7805 17.4766 18.7785 17.2662 18.7869 17.0569C18.7884 17.0184 18.8543 16.9682 18.9011 16.9494C18.9524 16.9286 19.0158 16.9352 19.0739 16.9344C19.2195 16.9325 19.3652 16.9327 19.5108 16.9331C19.5875 16.9333 19.6237 16.8969 19.6219 16.82C19.62 16.7358 19.6208 16.6517 19.6188 16.5675C19.6165 16.462 19.5852 16.429 19.4781 16.427C19.3518 16.4245 19.2257 16.4265 19.0994 16.4265L19.0992 16.4266ZM12.4592 16.9175H12.4631C12.4631 17.2539 12.46 17.5903 12.4643 17.9267C12.4666 18.1133 12.5685 18.2365 12.7523 18.2598C12.9021 18.2786 13.0554 18.2763 13.2068 18.2728C13.3458 18.2695 13.364 18.2446 13.3685 18.1022C13.3703 18.0441 13.3679 17.986 13.367 17.9279C13.3658 17.8606 13.3296 17.8227 13.264 17.8264C13.0951 17.8356 13.0689 17.7588 13.0696 17.6115C13.0724 17.0487 13.07 16.4857 13.0692 15.9229C13.0692 15.8021 13.0395 15.7714 12.9223 15.7702C12.8221 15.7692 12.7218 15.769 12.6215 15.7696C12.4857 15.7706 12.4592 15.7982 12.459 15.9375C12.4588 16.2642 12.459 16.5909 12.459 16.9177L12.4592 16.9175ZM9.9335 20.0237C9.79592 19.7711 9.66552 19.5513 9.55553 19.3216C9.49859 19.2029 9.42669 19.1621 9.30056 19.1722C9.21603 19.1788 9.1795 19.2025 9.18047 19.2919C9.18416 19.7095 9.18649 20.1273 9.18241 20.5449C9.18124 20.654 9.23468 20.666 9.32058 20.6635C9.44456 20.6598 9.45078 20.6574 9.45175 20.5416C9.45389 20.3053 9.45506 20.069 9.45778 19.8325C9.45817 19.8012 9.46497 19.7701 9.46866 19.739C9.50247 19.7573 9.51433 19.7752 9.52482 19.7938C9.61869 19.9594 9.70575 20.1294 9.80816 20.2896C9.89852 20.4307 10.0202 20.418 10.0973 20.2701C10.1453 20.1784 10.1912 20.0857 10.2398 19.9942C10.2885 19.9023 10.3393 19.8115 10.3892 19.7204C10.3974 19.7227 10.4057 19.725 10.4139 19.7274C10.4156 19.7614 10.4187 19.7952 10.4187 19.8292C10.4187 20.0688 10.4209 20.3084 10.416 20.548C10.4143 20.6378 10.4477 20.6736 10.5352 20.6644C10.5608 20.6617 10.5868 20.6629 10.6129 20.6633C10.664 20.6642 10.691 20.6431 10.691 20.5888C10.6916 20.1518 10.6939 19.7145 10.6926 19.2775C10.6926 19.2497 10.6741 19.2116 10.6518 19.1959C10.5694 19.1374 10.389 19.1827 10.3406 19.2738C10.2423 19.4594 10.1492 19.6477 10.0515 19.8335C10.021 19.8916 9.98228 19.9456 9.9337 20.0237H9.9335ZM6.25227 6.17486C6.25227 6.17486 6.25227 6.17622 6.25227 6.17699C6.06785 6.17699 5.88324 6.17505 5.69882 6.17758C5.57483 6.17933 5.50098 6.25861 5.50215 6.38143C5.50487 6.65311 5.50779 6.92498 5.51148 7.19665C5.51362 7.35231 5.59407 7.43568 5.7507 7.43801C5.9771 7.44132 6.20369 7.44171 6.43028 7.44074C6.58633 7.43996 6.69127 7.33521 6.69496 7.17975C6.69749 7.06976 6.71284 6.95704 6.69496 6.85016C6.66115 6.64903 6.71187 6.49395 6.87938 6.3723C6.90834 6.35112 6.92952 6.27824 6.91494 6.24851C6.89745 6.21295 6.83838 6.17971 6.79601 6.17797C6.61509 6.17039 6.43378 6.17466 6.25247 6.17466L6.25227 6.17486ZM6.24392 7.96601C6.24392 7.96835 6.24392 7.97068 6.24392 7.97282C6.06921 7.97282 5.89431 7.97029 5.71961 7.97359C5.58979 7.97612 5.52333 8.0455 5.52314 8.17376C5.52256 8.44232 5.52275 8.71108 5.52489 8.97965C5.52586 9.10189 5.60845 9.19225 5.72758 9.19419C5.97671 9.19808 6.22604 9.19924 6.47517 9.19478C6.61898 9.19205 6.70759 9.0945 6.70934 8.95128C6.7107 8.83487 6.7177 8.7175 6.70701 8.60187C6.69127 8.43202 6.71556 8.2853 6.85762 8.16948C6.88754 8.14519 6.90659 8.06668 6.88949 8.03636C6.86889 7.99983 6.80495 7.97107 6.75851 7.96893C6.5873 7.96116 6.41571 7.96582 6.24411 7.96582L6.24392 7.96601ZM13.6095 17.3515H13.6099C13.6099 17.6105 13.6138 17.8696 13.6079 18.1284C13.6058 18.2229 13.6493 18.2621 13.7311 18.2654C13.8507 18.2701 13.9706 18.2685 14.0901 18.2648C14.1826 18.2619 14.217 18.2073 14.2152 18.1168C14.2115 17.9193 14.2121 17.7217 14.2131 17.5242C14.2146 17.2166 14.2185 16.909 14.2199 16.6015C14.2205 16.4824 14.1929 16.4527 14.0819 16.4507C13.9816 16.449 13.8812 16.4498 13.7809 16.4517C13.6171 16.4548 13.6095 16.4632 13.6097 16.6229C13.6097 16.8658 13.6097 17.1086 13.6097 17.3515H13.6095ZM11.7859 19.1885C11.6753 19.1628 11.6172 19.2147 11.5838 19.3166C11.5373 19.4576 11.4835 19.5962 11.431 19.7351C11.3273 20.0101 11.2211 20.2843 11.1193 20.5599C11.109 20.5879 11.1067 20.639 11.1232 20.6534C11.1879 20.7101 11.3727 20.6594 11.405 20.5836C11.4437 20.4928 11.4602 20.3671 11.5292 20.322C11.6005 20.2754 11.7231 20.3055 11.8232 20.3053C12.0747 20.3045 12.0807 20.303 12.164 20.5362C12.2002 20.6374 12.2544 20.6709 12.356 20.6646C12.4759 20.6573 12.4985 20.6295 12.4546 20.5164C12.3009 20.1188 12.1456 19.7217 11.9942 19.3232C11.9561 19.2227 11.9021 19.1601 11.7857 19.1883L11.7859 19.1885ZM14.2172 19.9174C14.2203 19.9174 14.2232 19.9174 14.2263 19.9174C14.2263 20.131 14.2288 20.3446 14.2249 20.5581C14.2236 20.638 14.2529 20.6666 14.332 20.6662C14.6006 20.6648 14.8691 20.6658 15.1377 20.6712C15.2318 20.6732 15.252 20.6277 15.2508 20.5467C15.2496 20.4664 15.2308 20.4196 15.1352 20.4227C14.951 20.4287 14.7663 20.4239 14.5819 20.426C14.5228 20.4266 14.4908 20.4106 14.4945 20.3434C14.4988 20.2628 14.4976 20.1815 14.4945 20.1009C14.4921 20.0369 14.5199 20.0162 14.5815 20.0173C14.7271 20.02 14.8728 20.0158 15.0184 20.0183C15.1076 20.0198 15.1045 19.9586 15.1064 19.8999C15.1084 19.8393 15.1074 19.7795 15.0203 19.78C14.9234 19.7806 14.8262 19.7793 14.7292 19.7767C14.4966 19.7709 14.4999 19.7703 14.498 19.5346C14.4974 19.4532 14.5227 19.4291 14.6033 19.4316C14.7811 19.4372 14.9591 19.4334 15.1371 19.4328C15.239 19.4324 15.2337 19.3603 15.2331 19.2895C15.2327 19.2208 15.2211 19.1731 15.1319 19.1749C14.8699 19.1797 14.6078 19.1762 14.3456 19.1784C14.2244 19.1794 14.2168 19.1906 14.217 19.3156C14.2176 19.5161 14.217 19.7169 14.217 19.9174H14.2172ZM5.52469 10.2605C5.52664 10.2605 5.52839 10.2605 5.53033 10.2605C5.53033 10.3802 5.52994 10.4997 5.53033 10.6194C5.53111 10.7893 5.61642 10.8765 5.78588 10.8781C5.98312 10.8798 6.18037 10.8794 6.37742 10.88C6.57564 10.8808 6.66931 10.7893 6.67009 10.5918C6.67106 10.3753 6.66911 10.1587 6.67125 9.94218C6.67281 9.79293 6.58672 9.68158 6.43728 9.67633C6.20486 9.66797 5.97185 9.66933 5.73924 9.67633C5.60068 9.68041 5.52528 9.77175 5.5245 9.91147C5.52372 10.0279 5.5245 10.1443 5.5245 10.2607L5.52469 10.2605ZM13.1077 20.0346H13.1069C13.1069 20.2093 13.1048 20.384 13.1087 20.5587C13.1095 20.592 13.1248 20.6431 13.1485 20.6543C13.2834 20.7181 13.3864 20.6479 13.3862 20.4996C13.3858 20.1761 13.3874 19.8525 13.3827 19.5292C13.3815 19.4466 13.4087 19.4213 13.4884 19.4271C13.572 19.4332 13.6565 19.4293 13.7405 19.4262C13.8374 19.4225 13.8258 19.351 13.8262 19.2853C13.8266 19.2188 13.8131 19.1704 13.7317 19.1714C13.4115 19.1751 13.0912 19.1778 12.7709 19.1792C12.6913 19.1796 12.674 19.2231 12.6753 19.2919C12.6767 19.3595 12.6726 19.4262 12.768 19.4273C12.836 19.4281 12.9039 19.4293 12.9719 19.4295C13.1066 19.4302 13.1069 19.43 13.1073 19.5595C13.1077 19.718 13.1073 19.8766 13.1073 20.035L13.1077 20.0346ZM7.73036 10.2071V10.209C7.96939 10.209 8.20842 10.2102 8.44764 10.2084C8.54636 10.2078 8.59494 10.1627 8.5897 10.0786C8.58445 9.99309 8.53548 9.95267 8.44978 9.95286C7.97813 9.95325 7.50649 9.95228 7.03485 9.95325C6.92563 9.95345 6.87394 9.99776 6.87627 10.0798C6.87899 10.1688 6.92272 10.2061 7.03271 10.2067C7.26532 10.2078 7.49794 10.2071 7.73056 10.2071H7.73036ZM7.70743 6.4957C7.70743 6.4957 7.70743 6.49473 7.70743 6.49414C7.50669 6.49414 7.30594 6.49239 7.10519 6.49492C7.00278 6.49609 6.95537 6.53981 6.95653 6.62027C6.9577 6.69994 7.00842 6.7495 7.10597 6.75027C7.49775 6.75319 7.88952 6.75377 8.28149 6.75241C8.37749 6.75202 8.43365 6.69819 8.43093 6.62337C8.42801 6.54253 8.37671 6.49706 8.2809 6.49628C8.08988 6.49492 7.89885 6.49589 7.70762 6.49589L7.70743 6.4957ZM16.116 8.88229V8.88404C16.2876 8.88404 16.459 8.88443 16.6306 8.88404C16.7408 8.88365 16.8014 8.83818 16.8037 8.75675C16.8061 8.6761 16.7417 8.62674 16.6337 8.62674C16.3068 8.62674 15.9799 8.62694 15.6531 8.62791C15.6078 8.62791 15.5619 8.62791 15.5176 8.63588C15.4275 8.65181 15.381 8.73421 15.4294 8.80864C15.4529 8.84478 15.5101 8.87763 15.5532 8.87937C15.7405 8.88695 15.9285 8.88268 16.1162 8.88268L16.116 8.88229ZM7.60482 8.24235C7.60482 8.24372 7.60482 8.24507 7.60482 8.24624C7.4272 8.24624 7.24958 8.24449 7.07216 8.24721C7.00259 8.24818 6.95595 8.28239 6.9542 8.35993C6.95265 8.4328 6.98801 8.47575 7.05836 8.48877C7.09626 8.49576 7.13512 8.50101 7.1736 8.5012C7.47384 8.50295 7.77428 8.50431 8.07452 8.50354C8.17927 8.50334 8.23174 8.45767 8.23368 8.37469C8.23562 8.28705 8.18238 8.24313 8.06986 8.24255C7.91478 8.24177 7.7599 8.24235 7.60482 8.24235ZM13.9245 15.7395V15.7385C13.8567 15.7385 13.7891 15.7381 13.7212 15.7385C13.6493 15.7389 13.6025 15.7725 13.5984 15.8464C13.593 15.9428 13.5897 16.0397 13.5934 16.1363C13.5959 16.203 13.6384 16.2428 13.7072 16.2442C13.8458 16.2467 13.9845 16.2469 14.1233 16.2477C14.189 16.2481 14.2282 16.2129 14.2345 16.1501C14.2424 16.0669 14.2477 15.983 14.2455 15.8994C14.2422 15.7747 14.2049 15.7416 14.0798 15.7395C14.0281 15.7387 13.9766 15.7395 13.9249 15.7395H13.9245ZM7.3553 10.6649C7.3553 10.6649 7.3553 10.6663 7.3553 10.6668C7.44897 10.6668 7.54264 10.669 7.6363 10.6659C7.67731 10.6645 7.72842 10.6647 7.75582 10.6416C7.78983 10.6128 7.82558 10.5574 7.82034 10.5195C7.8149 10.4813 7.76068 10.4218 7.72609 10.4204C7.47792 10.4111 7.22937 10.4099 6.98121 10.4183C6.94254 10.4197 6.88074 10.4795 6.87569 10.5182C6.87064 10.5565 6.91805 10.6089 6.95439 10.6424C6.97635 10.6626 7.02066 10.6631 7.05506 10.6641C7.15514 10.6666 7.25522 10.6651 7.35549 10.6651L7.3553 10.6649ZM7.33451 8.94661C7.33451 8.94428 7.3347 8.94214 7.3349 8.93981C7.40602 8.93981 7.47773 8.94467 7.54847 8.93845C7.61881 8.93223 7.6709 8.89239 7.67983 8.81816C7.688 8.75131 7.65263 8.69437 7.58831 8.69068C7.42118 8.68135 7.25269 8.67785 7.08615 8.68971C7.04806 8.69243 6.99695 8.76122 6.98432 8.80825C6.96683 8.87316 7.01891 8.91669 7.08382 8.92543C7.1668 8.93651 7.25094 8.93981 7.33451 8.94661ZM7.26552 7.18344C7.26591 7.18577 7.26649 7.18791 7.26688 7.19024C7.34578 7.17994 7.42817 7.17975 7.50241 7.15487C7.53583 7.1436 7.5747 7.08083 7.57101 7.04566C7.56673 7.00485 7.52165 6.93916 7.48842 6.93547C7.34539 6.91934 7.20022 6.91546 7.05622 6.9207C6.98665 6.92323 6.95653 6.98153 6.95789 7.05343C6.95925 7.12475 6.9989 7.16187 7.06303 7.17081C7.12988 7.18014 7.19809 7.17975 7.26552 7.18363V7.18344ZM5.2777 4.97291C5.24719 4.95076 5.20657 4.90393 5.15643 4.88896C5.09833 4.87147 5.03556 4.9461 5.0377 5.01236C5.04042 5.09048 5.09269 5.12352 5.15915 5.12274C5.22756 5.12177 5.27284 5.08096 5.2777 4.97311V4.97291ZM5.54685 4.96669C5.55754 5.06542 5.59504 5.1241 5.66228 5.11322C5.70484 5.10642 5.75595 5.05103 5.77208 5.00614C5.79248 4.94862 5.71475 4.8672 5.65956 4.8843C5.61292 4.89868 5.576 4.94415 5.54704 4.9665L5.54685 4.96669Z" fill="white"/>
<path d="M10.0359 9.76476C9.85769 9.61241 9.68395 9.47754 9.52596 9.32635C9.22844 9.04146 8.99544 8.70993 8.92645 8.29542C8.88622 8.05406 8.88078 7.80589 8.87437 7.56045C8.86951 7.37584 8.85124 7.20308 8.74222 7.04411C8.69694 6.97804 8.67848 6.88845 8.66468 6.80664C8.62659 6.58141 8.73425 6.41856 8.97464 6.32178C9.10407 6.2697 9.10232 6.26717 9.07045 6.13017C8.92101 5.48596 8.89788 4.83592 8.98339 4.18122C8.98922 4.13652 9.0003 4.09182 9.01429 4.04907C9.05587 3.92217 9.13497 3.85901 9.26225 3.88272C9.85672 3.99427 10.4034 4.19909 10.7815 4.70883C10.822 4.76324 10.861 4.76052 10.9147 4.74225C11.3638 4.58853 11.8282 4.55317 12.2952 4.60117C12.5537 4.62779 12.808 4.70008 13.0622 4.76052C13.1298 4.77665 13.1631 4.77043 13.2047 4.71135C13.4289 4.39401 13.7395 4.18918 14.1003 4.06034C14.2824 3.99524 14.4704 3.94452 14.6581 3.89749C14.8406 3.85182 14.9393 3.91926 14.9758 4.1097C14.9989 4.23019 15.0147 4.35262 15.0226 4.47504C15.0609 5.05843 14.9939 5.6321 14.8518 6.1976C14.8378 6.25357 14.84 6.28525 14.902 6.29399C14.9051 6.29438 14.9082 6.29594 14.9111 6.2971C15.2836 6.44149 15.3732 6.60259 15.196 7.02099C15.1002 7.247 15.057 7.46698 15.0512 7.70154C15.0442 7.9876 15.0285 8.27093 14.9294 8.5428C14.7745 8.96819 14.4789 9.28418 14.1344 9.5613C14.0498 9.62931 13.9606 9.69169 13.8598 9.76709C14.0968 9.87534 14.3178 9.97639 14.551 10.0831C14.5619 10.0256 14.5702 9.97231 14.5821 9.91984C14.6604 9.57024 14.7972 9.5028 15.0582 9.50241C16.2015 9.50028 17.3447 9.49833 18.4882 9.49581C18.7732 9.49522 19.0589 9.50572 19.343 9.48842C19.6985 9.46685 20.0028 9.74591 19.8998 10.1857C19.7589 10.7869 19.6357 11.3923 19.5061 11.9963C19.4132 12.4294 19.3248 12.8636 19.2293 13.2962C19.2025 13.4174 19.1786 13.5465 19.118 13.6518C19.0169 13.8273 18.8486 13.9003 18.6417 13.8897C18.4781 13.8813 18.3138 13.8879 18.1318 13.8879C18.2165 14.1254 18.2633 14.3535 18.1485 14.596C18.1974 14.6017 18.234 14.6097 18.2705 14.6097C18.7855 14.6104 19.3005 14.611 19.8153 14.6097C19.9532 14.6093 20.0199 14.6456 20.0199 14.7303C20.0199 14.8162 19.9548 14.8578 19.818 14.8578C16.9193 14.857 14.0205 14.8553 11.1218 14.8555C8.92917 14.8557 6.73652 14.8586 4.54387 14.8596C4.5087 14.8596 4.46148 14.865 4.44088 14.8456C4.40512 14.8118 4.3647 14.7599 4.36625 14.7171C4.36742 14.6831 4.42553 14.6281 4.46381 14.6231C4.56894 14.6091 4.67699 14.6157 4.78368 14.6155C5.62572 14.6137 6.46776 14.6124 7.31 14.611C7.36421 14.611 7.41863 14.611 7.46507 14.611C7.47576 14.5912 7.48237 14.5848 7.4812 14.5801C7.38578 14.1716 7.56865 13.8739 7.87395 13.6376C8.43207 13.2056 9.35592 13.2524 9.85788 13.7352C10.0518 13.9215 10.1991 14.1361 10.1618 14.4268C10.155 14.4798 10.1362 14.5313 10.1195 14.5968C10.1597 14.6001 10.1933 14.6052 10.2271 14.6052C11.8109 14.6044 13.3945 14.6025 14.9783 14.6034C15.0697 14.6034 15.1307 14.5743 15.1787 14.4981C15.2269 14.4215 15.2832 14.3502 15.3363 14.2768C15.3892 14.2037 15.4591 14.1656 15.551 14.1652C15.8425 14.164 16.134 14.16 16.4255 14.1596C16.5242 14.1596 16.5771 14.2076 16.5767 14.2859C16.5763 14.3623 16.5233 14.404 16.4201 14.4042C16.1739 14.405 15.9278 14.4042 15.6816 14.4042C15.5242 14.4042 15.4846 14.4326 15.4158 14.6054C15.4704 14.6054 15.5197 14.6054 15.5691 14.6054C15.9123 14.6067 16.2557 14.6083 16.5989 14.6091C16.7753 14.6095 16.9143 14.4373 16.8653 14.2511C16.8064 14.0269 16.7281 13.8073 16.6502 13.5886C16.5602 13.336 16.4601 13.0867 16.3668 12.8352C16.3214 12.7126 16.3981 12.5927 16.5299 12.59C16.8212 12.5837 17.1129 12.5802 17.4042 12.5855C17.5725 12.5886 17.6856 12.6795 17.7464 12.8403C17.8389 13.0849 17.9355 13.3282 18.0365 13.5694C18.0496 13.6003 18.0997 13.6331 18.1339 13.6345C18.3084 13.6413 18.4835 13.6382 18.6584 13.6384C18.8269 13.6386 18.9312 13.5426 18.968 13.3642C19.0953 12.7466 19.2251 12.1296 19.3541 11.5124C19.4567 11.0217 19.5622 10.5318 19.6606 10.0403C19.6938 9.87398 19.5755 9.74066 19.4042 9.74066C18.0278 9.73969 16.6513 9.74008 15.2747 9.74028C15.2621 9.74028 15.2496 9.74358 15.2384 9.74513C15.235 9.75368 15.2288 9.76224 15.231 9.76515C15.3647 9.95501 15.3029 10.153 15.2597 10.352C15.1083 11.0505 14.9575 11.7491 14.8097 12.4483C14.7327 12.8123 14.6639 13.1778 14.5877 13.542C14.5687 13.6331 14.6175 13.6376 14.6835 13.6376C15.1888 13.6374 15.6941 13.638 16.1993 13.6384C16.2349 13.6384 16.2706 13.6366 16.3062 13.639C16.3962 13.6452 16.4586 13.7068 16.4531 13.7853C16.4469 13.8766 16.3799 13.8918 16.3078 13.8922C16.1198 13.893 15.9321 13.89 15.7442 13.8898C15.6018 13.8898 15.4589 13.8871 15.3169 13.8961C15.2768 13.8986 15.2275 13.9291 15.2024 13.9621C15.1286 14.0599 15.0625 14.1639 14.9978 14.2682C14.9538 14.3393 14.895 14.3665 14.8124 14.3663C14.3135 14.365 13.8149 14.3669 13.316 14.3671C12.4285 14.3675 11.5412 14.3677 10.6537 14.3671C10.4906 14.3671 10.4963 14.3632 10.4461 14.2054C10.3274 13.8312 10.0926 13.5453 9.75216 13.3535C9.14255 13.0097 8.52088 12.9848 7.9031 13.3269C7.53931 13.5282 7.29056 13.8302 7.20175 14.2459C7.18212 14.3376 7.14131 14.3784 7.04473 14.371C6.95787 14.3644 6.87003 14.3724 6.78258 14.3714C6.624 14.3698 6.55735 14.2964 6.58125 14.137C6.60962 13.9483 6.63819 13.7591 6.68153 13.5735C6.81017 13.0223 7.0115 12.4982 7.30669 12.014C7.85179 11.1198 8.60308 10.4517 9.54345 9.99466C9.68279 9.92683 9.82679 9.86834 9.96807 9.80479C9.99042 9.79469 10.0106 9.77992 10.0363 9.76476H10.0359ZM9.36816 6.21004C9.3738 6.21276 9.37944 6.21801 9.38507 6.21801C9.40761 6.21781 9.43054 6.21762 9.45289 6.21432C9.81105 6.1636 10.1688 6.16554 10.5274 6.21218C10.8659 6.25629 11.1957 6.33111 11.5043 6.48133C11.6281 6.54157 11.7487 6.61542 11.7936 6.75223C11.8224 6.84006 11.8653 6.86921 11.9499 6.86028C11.9784 6.85717 12.0101 6.8696 12.0365 6.86183C12.0678 6.8527 12.1121 6.8356 12.1213 6.81092C12.184 6.64029 12.3086 6.53341 12.4689 6.46598C13.0473 6.22287 13.651 6.14455 14.2739 6.19702C14.3681 6.20499 14.4622 6.21645 14.5638 6.22695C14.2764 5.59284 13.2453 4.82115 11.9672 4.8194C10.9541 4.81804 9.54501 5.56797 9.36836 6.20965L9.36816 6.21004ZM14.7364 8.36654C14.7265 8.3611 14.7164 8.35547 14.7065 8.35002C14.558 8.50063 14.3903 8.61743 14.1781 8.65318C13.7319 8.728 13.2929 8.68913 12.8665 8.54513C12.5636 8.44292 12.3547 8.23984 12.2808 7.9155C12.2264 7.67647 12.1636 7.43919 12.1077 7.20055C12.0822 7.09192 11.9971 7.12418 11.9285 7.11757C11.8614 7.11116 11.8247 7.13448 11.8107 7.21066C11.7682 7.4423 11.7256 7.67472 11.6644 7.9019C11.5865 8.19087 11.4166 8.40968 11.128 8.52259C10.8754 8.62131 10.6123 8.67009 10.3433 8.68505C10.0477 8.70138 9.75178 8.69943 9.48379 8.54708C9.38546 8.49111 9.29684 8.41785 9.1991 8.34925C9.20279 8.36479 9.20493 8.37684 9.20862 8.3885C9.33221 8.7795 9.58795 9.07722 9.89616 9.33043C10.2792 9.64505 10.7127 9.87417 11.1869 10.0197C11.6005 10.1468 12.0202 10.1927 12.4509 10.1037C12.9501 10.0005 13.4009 9.79177 13.8139 9.49833C14.127 9.27582 14.4115 9.02261 14.5982 8.67922C14.6524 8.57953 14.6907 8.47109 14.7364 8.36674V8.36654ZM8.8013 14.6067C8.8013 14.6054 8.8013 14.6042 8.8013 14.6029C9.08619 14.6029 9.37108 14.604 9.65616 14.6025C9.81649 14.6015 9.91268 14.5014 9.91307 14.3395C9.91346 14.1462 9.80366 14.007 9.66472 13.8988C9.26323 13.5859 8.8116 13.5086 8.32888 13.6662C8.04962 13.7573 7.83547 13.9332 7.735 14.2229C7.65221 14.4618 7.74899 14.606 7.99521 14.6067C8.26397 14.6075 8.53273 14.6069 8.80149 14.6069L8.8013 14.6067ZM17.0569 14.5813C17.073 14.5891 17.0814 14.5964 17.0899 14.5966C17.3066 14.6013 17.5233 14.6075 17.74 14.6081C17.8235 14.6083 17.8867 14.5642 17.9258 14.4884C17.9876 14.3683 17.9868 14.2385 17.9442 14.1199C17.8014 13.7221 17.6463 13.3288 17.4978 12.933C17.4763 12.8756 17.4411 12.8519 17.3818 12.8523C17.1521 12.8533 16.9226 12.8523 16.6929 12.8533C16.6787 12.8533 16.6647 12.8638 16.6535 12.8682C16.7858 13.2274 16.9207 13.5799 17.0447 13.9363C17.1026 14.1028 17.1605 14.2748 17.101 14.4563C17.0874 14.4981 17.0719 14.5391 17.0571 14.5811L17.0569 14.5813ZM13.4616 11.1025C13.2787 11.2359 13.1011 11.3754 12.9132 11.4992C12.7424 11.6119 12.6335 11.5899 12.5132 11.4255C12.4353 11.319 12.3692 11.2028 12.3092 11.0852C12.2692 11.0069 12.228 10.9962 12.1743 11.0592C12.1518 11.0858 12.1349 11.1317 12.1399 11.1651C12.1856 11.4623 12.2355 11.7586 12.2868 12.0548C12.3554 12.4498 12.4262 12.8443 12.4969 13.239C12.5014 13.2643 12.5148 13.2878 12.5264 13.3179C12.8374 13.0194 13.4936 11.4352 13.4616 11.1027V11.1025ZM10.4424 11.0759C10.6644 11.8785 10.9584 12.6286 11.4456 13.3267C11.4646 13.24 11.4806 13.1823 11.4899 13.1234C11.5342 12.8457 11.5779 12.568 11.6195 12.2899C11.6737 11.9288 11.7233 11.567 11.7806 11.2065C11.7954 11.1134 11.7586 11.0687 11.6714 11.038C11.6549 11.0664 11.6409 11.0948 11.623 11.1204C11.533 11.2498 11.4464 11.382 11.3496 11.5062C11.2775 11.5987 11.1753 11.5989 11.0765 11.5526C11.0097 11.5213 10.9448 11.4823 10.8867 11.437C10.7425 11.3249 10.6026 11.2069 10.4424 11.0763V11.0759ZM9.97817 6.41059C9.87362 6.41681 9.72632 6.4137 9.58368 6.43741C9.40004 6.46811 9.21853 6.51534 9.03897 6.56567C8.94025 6.59326 8.88778 6.67721 8.90838 6.77613C8.92897 6.87427 8.97698 6.96677 9.01312 7.06141C9.0378 7.12612 9.07123 7.18889 9.08638 7.25555C9.12564 7.4285 9.14488 7.6069 9.19424 7.77675C9.2984 8.13509 9.52693 8.37412 9.90802 8.42815C10.2384 8.47498 10.5654 8.44097 10.888 8.35449C11.1797 8.27637 11.3711 8.10186 11.437 7.80317C11.4891 7.56706 11.5357 7.32959 11.5841 7.0925C11.6292 6.87058 11.5766 6.76544 11.3696 6.6776C10.9384 6.49454 10.4858 6.41662 9.97817 6.4102V6.41059ZM13.9425 6.41098C13.8176 6.41836 13.694 6.41934 13.572 6.43391C13.2338 6.47414 12.9005 6.5373 12.5882 6.68032C12.3801 6.77555 12.3088 6.88904 12.3471 7.11116C12.3898 7.35893 12.4477 7.60476 12.5125 7.84787C12.5653 8.04628 12.6786 8.20156 12.8813 8.28104C13.2601 8.42931 13.6507 8.47945 14.0529 8.42951C14.1378 8.41901 14.2247 8.39025 14.3013 8.35139C14.6062 8.19689 14.7298 7.91666 14.799 7.60379C14.8507 7.37059 14.8512 7.13098 14.9914 6.91313C15.1153 6.72036 15.0491 6.60823 14.832 6.53341C14.543 6.43372 14.241 6.42925 13.9425 6.41117V6.41098ZM14.0759 13.2993C14.0718 13.4198 14.1682 13.5758 14.2465 13.6112C14.2947 13.6329 14.3225 13.6252 14.3326 13.5638C14.3596 13.4013 14.3905 13.2394 14.4241 13.0781C14.4991 12.7174 14.5772 12.3573 14.653 11.9967C14.7337 11.614 14.8133 11.2312 14.8928 10.8484C14.9461 10.592 15.0046 10.3365 15.0467 10.0782C15.058 10.0098 15.0248 9.92994 14.9974 9.86115C14.9844 9.82811 14.9371 9.80868 14.9055 9.78303C14.8806 9.8182 14.8425 9.85027 14.8332 9.88913C14.724 10.348 14.6165 10.8072 14.5135 11.2675C14.407 11.7438 14.3054 12.2211 14.2024 12.6982C14.1567 12.9098 14.1128 13.1217 14.0755 13.2993H14.0759ZM10.2938 9.91362C10.2938 10.0395 10.2885 10.1509 10.2955 10.2615C10.3006 10.3404 10.2998 10.4337 10.3406 10.4941C10.5406 10.7903 10.7782 11.0528 11.08 11.252C11.1514 11.2992 11.204 11.2975 11.2507 11.2257C11.3033 11.1447 11.3634 11.0668 11.4048 10.9801C11.498 10.7844 11.5818 10.5841 11.6726 10.3787C11.1935 10.3023 10.7392 10.1544 10.2938 9.91343V9.91362ZM13.667 9.9519C13.6526 9.94296 13.638 9.93403 13.6236 9.92509C13.1932 10.1561 12.741 10.3229 12.2555 10.3903C12.3164 10.512 12.3698 10.6183 12.4227 10.7248C12.4971 10.8746 12.5661 11.0273 12.6473 11.1735C12.7218 11.3072 12.7536 11.3103 12.8813 11.2236C13.1539 11.0384 13.3765 10.8013 13.5799 10.545C13.5898 10.5326 13.6038 10.519 13.6054 10.5046C13.627 10.3206 13.6466 10.1361 13.6668 9.9519H13.667Z" fill="black"/>
<path d="M4.47656 8.07813C4.47656 6.99978 4.47734 5.92163 4.47559 4.84328C4.47539 4.67732 4.54127 4.55586 4.68916 4.48318C4.72802 4.46414 4.77544 4.45403 4.81897 4.45403C6.03316 4.45151 7.24754 4.45053 8.46172 4.44995C8.57055 4.44995 8.62185 4.4927 8.62049 4.57627C8.61913 4.66041 8.56958 4.70083 8.46017 4.70083C7.30098 4.70025 6.14179 4.69889 4.9826 4.69811C4.93732 4.69811 4.89146 4.69636 4.84696 4.70239C4.77389 4.7123 4.72783 4.75641 4.72647 4.83162C4.72414 4.96435 4.72841 5.09708 4.72763 5.22981C4.72725 5.29549 4.77039 5.28927 4.81392 5.28927C5.29955 5.28947 5.78519 5.29083 6.27102 5.29083C6.99316 5.29063 7.7151 5.28927 8.43724 5.28927C8.46872 5.28927 8.51167 5.28888 8.52935 5.30754C8.56142 5.34174 8.60106 5.39324 8.59542 5.43133C8.58998 5.46864 8.53615 5.50595 8.49534 5.5281C8.46755 5.54326 8.42558 5.53316 8.39002 5.53316C7.20809 5.53432 6.02636 5.53627 4.84443 5.53432C4.75581 5.53432 4.72841 5.55745 4.72841 5.64762C4.72997 7.50621 4.72861 9.3648 4.72802 11.2234C4.72802 11.2461 4.72822 11.2687 4.729 11.2914C4.73347 11.4379 4.78244 11.4846 4.93266 11.4848C5.14642 11.485 5.35999 11.4854 5.57376 11.4848C6.0044 11.4834 6.43504 11.4815 6.86568 11.4799C6.89152 11.4799 6.91756 11.4795 6.94321 11.4819C7.01939 11.4889 7.06312 11.5343 7.06545 11.6076C7.06798 11.6797 7.02153 11.7193 6.95196 11.7296C6.92009 11.7343 6.88744 11.7353 6.85518 11.7353C6.20767 11.7353 5.55996 11.736 4.91244 11.7345C4.68877 11.7339 4.5438 11.6369 4.49599 11.4568C4.48219 11.4045 4.48083 11.348 4.48083 11.2934C4.48006 10.2216 4.48025 9.14987 4.48025 8.07793H4.47675L4.47656 8.07813Z" fill="black"/>
<path d="M8.27743 16.429C8.63675 16.429 8.99627 16.4251 9.35559 16.4315C9.45353 16.4333 9.55536 16.4543 9.64767 16.4879C9.81382 16.5485 9.89933 16.6852 9.90321 16.8556C9.91293 17.286 9.91099 17.7167 9.91312 18.1473C9.91351 18.2303 9.85618 18.2637 9.787 18.2664C9.66108 18.2717 9.53476 18.2682 9.40864 18.2649C9.32585 18.2625 9.29107 18.2184 9.29204 18.1329C9.29554 17.793 9.29418 17.453 9.29476 17.1129C9.29495 16.9922 9.25823 16.9467 9.13852 16.9407C9.04174 16.9356 8.94438 16.9456 8.84741 16.9424C8.76793 16.9399 8.74985 16.9778 8.75044 17.0493C8.75335 17.3989 8.75238 17.7487 8.75316 18.0985C8.75335 18.2266 8.72342 18.261 8.59672 18.2653C8.49003 18.2688 8.38295 18.2695 8.27627 18.2672C8.16394 18.2647 8.14218 18.2408 8.14179 18.1257C8.14043 17.7923 8.14004 17.4586 8.13946 17.1251C8.13926 16.9784 8.10409 16.9407 7.95678 16.9403C7.86933 16.9401 7.78189 16.9498 7.69482 16.9471C7.61321 16.9446 7.59066 16.9792 7.59163 17.0571C7.5963 17.4003 7.59533 17.7435 7.59766 18.0869C7.59863 18.2359 7.56773 18.2678 7.41615 18.2674C7.31257 18.267 7.20899 18.268 7.10542 18.2662C7.01816 18.2647 6.97832 18.2175 6.97852 18.131C6.97949 17.6129 6.9789 17.0948 6.98085 16.5767C6.98124 16.4659 7.01 16.4387 7.13165 16.438C7.51371 16.4356 7.89576 16.4372 8.27782 16.4372C8.27782 16.4345 8.27782 16.4319 8.27782 16.4292L8.27743 16.429Z" fill="black"/>
<path d="M10.3322 17.6445C10.3322 17.2918 10.3318 16.9392 10.3324 16.5865C10.3325 16.4614 10.3549 16.4344 10.4754 16.4332C10.8312 16.4293 11.1872 16.4223 11.5428 16.4299C11.764 16.4346 11.9562 16.5105 12.0479 16.7377C12.0598 16.7673 12.0708 16.7999 12.071 16.831C12.0734 17.1701 12.0848 17.5096 12.0703 17.8479C12.0607 18.071 11.902 18.2296 11.6804 18.2516C11.482 18.2712 11.2805 18.2634 11.0803 18.2644C10.9439 18.2652 10.9422 18.2626 10.9398 18.3938C10.9377 18.51 10.9394 18.6264 10.9408 18.7428C10.942 18.8421 10.906 18.8859 10.8042 18.8901C10.6977 18.8946 10.5906 18.8925 10.4839 18.8909C10.3625 18.8892 10.3345 18.8608 10.3345 18.7407C10.3341 18.3752 10.3345 18.0096 10.3345 17.6441H10.3324L10.3322 17.6445ZM11.4649 17.3547C11.4649 17.3547 11.4669 17.3547 11.4678 17.3547C11.4678 17.2706 11.4707 17.1862 11.4671 17.1023C11.462 16.9857 11.4167 16.9375 11.3005 16.9305C11.2103 16.9251 11.1194 16.9309 11.0286 16.9309C10.9682 16.9309 10.942 16.9585 10.9429 17.0205C10.9464 17.2471 10.948 17.4736 10.9484 17.7002C10.9484 17.7541 10.9709 17.7766 11.0236 17.776C11.1239 17.7749 11.2243 17.7782 11.3246 17.7749C11.4113 17.7721 11.4643 17.7292 11.4645 17.6363C11.4647 17.5424 11.4645 17.4486 11.4645 17.3549L11.4649 17.3547Z" fill="black"/>
<path d="M19.9492 17.023C19.9492 16.6606 19.9492 16.298 19.9492 15.9356C19.9492 15.8118 19.9867 15.7727 20.1101 15.7714C20.2168 15.7704 20.3237 15.7704 20.4306 15.7704C20.5182 15.7704 20.5616 15.8153 20.5616 15.9025C20.5616 16.0384 20.5666 16.1746 20.5596 16.31C20.5548 16.4033 20.5944 16.4276 20.6787 16.4251C20.8404 16.4204 21.0023 16.4212 21.1642 16.421C21.5233 16.4206 21.7174 16.6128 21.7182 16.9706C21.719 17.3524 21.7188 17.7343 21.7186 18.1164C21.7186 18.2254 21.6906 18.2609 21.5861 18.2666C21.4666 18.273 21.3467 18.2722 21.227 18.2707C21.1407 18.2695 21.1131 18.2168 21.1137 18.1354C21.1158 17.7988 21.1148 17.4622 21.115 17.1257C21.115 16.9663 21.0923 16.9408 20.93 16.9373C20.8396 16.9354 20.7489 16.9453 20.6583 16.9434C20.5796 16.9418 20.5513 16.9717 20.5524 17.052C20.5571 17.395 20.5571 17.7382 20.5579 18.0812C20.5583 18.2512 20.539 18.2697 20.3696 18.2689C20.279 18.2683 20.1882 18.2687 20.0977 18.2658C19.9817 18.2621 19.9549 18.2367 19.9545 18.1202C19.9531 17.7545 19.9539 17.3888 19.9539 17.023C19.9523 17.023 19.9508 17.023 19.9492 17.023Z" fill="black"/>
<path d="M17.1643 18.2605C16.9767 18.2605 16.7878 18.2743 16.6017 18.2572C16.3279 18.2322 16.1757 18.1058 16.1533 17.8361C16.1258 17.5021 16.1294 17.1631 16.1514 16.8283C16.1662 16.605 16.3139 16.4616 16.5368 16.4461C16.8388 16.4249 17.1452 16.4218 17.4464 16.4486C17.6969 16.4709 17.8302 16.6456 17.8442 16.899C17.853 17.0572 17.8499 17.2162 17.8489 17.3748C17.8481 17.5085 17.7933 17.5646 17.6604 17.565C17.3916 17.5656 17.1229 17.5615 16.8541 17.5631C16.8129 17.5633 16.7463 17.5349 16.7408 17.614C16.7356 17.6898 16.754 17.7617 16.8405 17.7792C16.9 17.7912 16.9629 17.7873 17.0243 17.7875C17.2348 17.7885 17.4453 17.7883 17.6557 17.7883C17.7739 17.7883 17.8079 17.8241 17.8174 17.9432C17.8438 18.2743 17.7918 18.2738 17.5042 18.2714C17.3909 18.2704 17.2776 18.2714 17.1641 18.2714C17.1641 18.2679 17.1641 18.2642 17.1641 18.2607L17.1643 18.2605ZM16.9847 17.2267C16.9847 17.2267 16.9847 17.2249 16.9847 17.224C17.0459 17.224 17.1071 17.2232 17.1683 17.2242C17.2255 17.2251 17.2507 17.1999 17.2457 17.1418C17.2428 17.1099 17.2441 17.0772 17.2465 17.0452C17.2523 16.9667 17.2109 16.9315 17.1384 16.9292C17.0418 16.9261 16.9443 16.9193 16.8491 16.9301C16.8114 16.9344 16.7579 16.975 16.747 17.0102C16.6969 17.1711 16.7416 17.2259 16.9076 17.2267C16.9334 17.2267 16.9591 17.2267 16.9849 17.2267H16.9847Z" fill="black"/>
<path d="M6.56687 17.3612C6.56687 17.5069 6.5729 17.6529 6.56551 17.798C6.55288 18.048 6.40441 18.2318 6.15508 18.2493C5.84376 18.2712 5.52856 18.2681 5.21685 18.2481C4.99512 18.2337 4.82877 18.0491 4.81886 17.8266C4.80506 17.5132 4.80176 17.1985 4.81516 16.8851C4.82585 16.6357 5.00444 16.4566 5.28234 16.4381C5.57461 16.4189 5.87136 16.4266 6.16325 16.4544C6.40655 16.4776 6.54569 16.6495 6.56143 16.8952C6.57134 17.0499 6.56337 17.2057 6.56337 17.361C6.56454 17.361 6.56571 17.361 6.56687 17.361V17.3612ZM5.95842 17.3618H5.96192C5.96192 17.2681 5.9625 17.1744 5.96192 17.0808C5.96133 17.005 5.92597 16.9566 5.84726 16.9525C5.74446 16.9471 5.64146 16.9418 5.53866 16.944C5.45413 16.9457 5.4106 16.9929 5.41273 17.0815C5.41546 17.1946 5.41429 17.3077 5.41448 17.4208C5.41487 17.7809 5.44635 17.8099 5.80723 17.7827C5.81364 17.7821 5.82025 17.7823 5.82647 17.7813C5.90692 17.7701 5.95803 17.7302 5.95842 17.643C5.95881 17.5493 5.95842 17.4556 5.95842 17.362V17.3618Z" fill="black"/>
<path d="M2.71951 17.077C2.71951 16.8893 2.71757 16.7014 2.7199 16.5137C2.72495 16.126 2.96456 15.884 3.35187 15.8788C3.67232 15.8745 3.99297 15.8749 4.31361 15.8749C4.43235 15.8749 4.46014 15.9046 4.46208 16.0255C4.46325 16.0966 4.46364 16.1679 4.4617 16.2393C4.458 16.3706 4.41486 16.413 4.28272 16.4116C4.05923 16.4095 3.83595 16.4042 3.61246 16.4021C3.56427 16.4017 3.5153 16.4056 3.46769 16.4134C3.37616 16.4281 3.32136 16.4812 3.32155 16.5772C3.32213 16.9043 3.32233 17.2313 3.32738 17.5582C3.32932 17.6756 3.41133 17.7411 3.55514 17.7426C3.79475 17.7453 4.03436 17.7424 4.27397 17.7413C4.45217 17.7405 4.47705 17.7648 4.47666 17.9418C4.47666 17.9807 4.47588 18.0195 4.47646 18.0584C4.4786 18.2189 4.43954 18.265 4.28155 18.2671C3.9611 18.2716 3.64045 18.2766 3.31999 18.2716C2.96281 18.2659 2.73506 18.0388 2.72262 17.6795C2.71562 17.4789 2.72145 17.278 2.72145 17.0772C2.72087 17.0772 2.72048 17.0772 2.7199 17.0772L2.71951 17.077Z" fill="black"/>
<path d="M17.9967 6.92749C17.9967 7.62048 17.9967 8.31328 17.9967 9.00626C17.9967 9.03211 17.9981 9.05834 17.9952 9.0838C17.9859 9.16736 17.9283 9.22333 17.8562 9.21575C17.7733 9.20701 17.7433 9.1557 17.7437 9.07486C17.7457 8.65394 17.7451 8.23302 17.7455 7.81209C17.7462 7.08685 17.7457 6.3616 17.7494 5.63635C17.7497 5.55551 17.7264 5.53083 17.6458 5.53141C16.9627 5.5353 16.2794 5.53549 15.5962 5.53647C15.5542 5.53647 15.506 5.54677 15.4716 5.53005C15.4318 5.51043 15.3785 5.46709 15.3775 5.4325C15.3762 5.38994 15.4148 5.33708 15.451 5.30579C15.4749 5.285 15.525 5.29102 15.5633 5.29083C16.253 5.28947 16.9427 5.28753 17.6324 5.29044C17.7249 5.29083 17.7595 5.26634 17.7505 5.17112C17.742 5.08134 17.7488 4.99 17.7482 4.89925C17.7472 4.72455 17.7227 4.70006 17.543 4.69987C16.9957 4.69909 16.4485 4.6987 15.9015 4.69851C15.7784 4.69851 15.6554 4.702 15.5324 4.69948C15.492 4.6987 15.4428 4.69462 15.4139 4.67169C15.3808 4.64545 15.3422 4.59085 15.3495 4.55878C15.3589 4.51875 15.4082 4.48144 15.449 4.45773C15.4763 4.44199 15.5186 4.45112 15.5542 4.45112C16.2439 4.45093 16.9335 4.45112 17.6232 4.45112C17.8477 4.45112 17.9979 4.60173 17.9981 4.82949C17.9985 5.52889 17.9981 6.22829 17.9981 6.92769H17.9969L17.9967 6.92749Z" fill="black"/>
<path d="M15.4907 18.2853C15.3909 18.2783 15.2898 18.2787 15.1915 18.2629C14.9806 18.2289 14.8436 18.0925 14.8316 17.8801C14.8166 17.6156 14.8221 17.3497 14.8207 17.0845C14.8199 16.928 14.8219 16.928 14.6701 16.924C14.5208 16.9199 14.515 16.9141 14.5094 16.7617C14.5086 16.7392 14.5078 16.7164 14.5078 16.6937C14.5078 16.4411 14.5041 16.4391 14.7391 16.4414C14.7958 16.442 14.8129 16.414 14.8116 16.3637C14.8094 16.2862 14.8086 16.2084 14.8069 16.1307C14.8049 16.0448 14.844 15.9945 14.9322 15.9925C15.0584 15.9896 15.1847 15.989 15.3108 15.9886C15.3775 15.9886 15.412 16.0236 15.4138 16.0905C15.4159 16.1777 15.4196 16.2652 15.4188 16.3526C15.4185 16.4102 15.4431 16.4348 15.4999 16.4352C15.5871 16.4358 15.6746 16.4395 15.7618 16.4412C15.8394 16.4428 15.8833 16.477 15.8825 16.5592C15.8817 16.6434 15.8825 16.7275 15.8831 16.8116C15.8835 16.8886 15.8437 16.923 15.7684 16.9232C15.681 16.9236 15.5937 16.9279 15.5063 16.9263C15.4464 16.9251 15.4169 16.9446 15.4175 17.0095C15.4198 17.2197 15.4167 17.4302 15.42 17.6405C15.4218 17.7458 15.4637 17.7833 15.5706 17.7868C15.6254 17.7886 15.6806 17.7841 15.7356 17.7847C15.8442 17.786 15.8753 17.8158 15.8782 17.9223C15.8802 17.9901 15.8779 18.0581 15.8782 18.1261C15.8788 18.2174 15.8277 18.2617 15.7432 18.273C15.7016 18.2785 15.6592 18.2777 15.6173 18.2787C15.5753 18.2794 15.5331 18.2787 15.4911 18.2787L15.4907 18.2853Z" fill="black"/>
<path d="M19.0994 16.4266C19.2257 16.4266 19.352 16.4246 19.4782 16.4272C19.585 16.4293 19.6165 16.4623 19.6189 16.5677C19.6208 16.6518 19.62 16.736 19.622 16.8201C19.6237 16.8971 19.5876 16.9334 19.5108 16.9332C19.3653 16.9328 19.2195 16.9326 19.0739 16.9346C19.0158 16.9353 18.9525 16.9287 18.9012 16.9495C18.8545 16.9684 18.7885 17.0185 18.7869 17.057C18.7786 17.2663 18.7805 17.4768 18.7939 17.6859C18.799 17.7657 18.8808 17.7809 18.9527 17.7813C19.121 17.7821 19.2895 17.7817 19.4578 17.7821C19.5854 17.7824 19.6134 17.8085 19.6177 17.9338C19.6198 17.9985 19.6191 18.0633 19.6196 18.128C19.6204 18.2082 19.5833 18.2636 19.5013 18.2642C19.2073 18.2663 18.9117 18.2809 18.6194 18.2562C18.3559 18.2339 18.2008 18.0563 18.1886 17.7889C18.1748 17.4917 18.1765 17.193 18.1872 16.8957C18.1958 16.6602 18.3545 16.4839 18.5864 16.4489C18.7549 16.4235 18.9278 16.4266 19.0986 16.4169C19.0986 16.4202 19.099 16.4235 19.0992 16.4268L19.0994 16.4266Z" fill="black"/>
<path d="M12.459 16.9175C12.459 16.5909 12.459 16.2642 12.459 15.9373C12.459 15.798 12.4856 15.7704 12.6214 15.7694C12.7217 15.7688 12.822 15.7688 12.9223 15.77C13.0395 15.7712 13.069 15.8019 13.0692 15.9228C13.07 16.4855 13.0723 17.0485 13.0696 17.6113C13.0688 17.7584 13.095 17.8354 13.2639 17.8262C13.3294 17.8227 13.3657 17.8604 13.3669 17.9277C13.3679 17.9858 13.3702 18.0439 13.3685 18.102C13.364 18.2444 13.3457 18.2693 13.2068 18.2726C13.0552 18.2761 12.9021 18.2784 12.7522 18.2596C12.5684 18.2365 12.4666 18.1133 12.4642 17.9265C12.46 17.5901 12.4631 17.2537 12.4631 16.9173H12.4592L12.459 16.9175Z" fill="black"/>
<path d="M9.93391 20.0237C9.98268 19.9456 10.0212 19.8918 10.0517 19.8335C10.1494 19.6475 10.2423 19.4592 10.3408 19.2738C10.3892 19.1827 10.5696 19.1374 10.652 19.1959C10.6743 19.2116 10.6928 19.2497 10.6928 19.2775C10.6941 19.7146 10.692 20.1518 10.6912 20.5889C10.6912 20.6431 10.6642 20.6645 10.6131 20.6633C10.5873 20.6627 10.561 20.6617 10.5354 20.6645C10.4479 20.6736 10.4145 20.6376 10.4162 20.548C10.4211 20.3086 10.419 20.0688 10.419 19.8292C10.419 19.7952 10.4158 19.7614 10.4141 19.7274C10.4059 19.7251 10.3976 19.7227 10.3894 19.7204C10.3395 19.8117 10.2888 19.9025 10.24 19.9942C10.1914 20.0855 10.1455 20.1784 10.0975 20.2702C10.0204 20.4178 9.89873 20.4307 9.80837 20.2896C9.70596 20.1295 9.61889 19.9594 9.52503 19.7938C9.51454 19.7752 9.50249 19.7573 9.46887 19.739C9.46498 19.7701 9.45818 19.8014 9.45799 19.8325C9.45527 20.0688 9.4543 20.3051 9.45196 20.5416C9.4508 20.6575 9.44477 20.6598 9.32079 20.6635C9.2349 20.666 9.18145 20.654 9.18262 20.5449C9.18689 20.1273 9.18456 19.7095 9.18068 19.2919C9.1799 19.2025 9.21624 19.179 9.30077 19.1722C9.42689 19.1623 9.4988 19.2029 9.55574 19.3216C9.66573 19.5511 9.79613 19.7709 9.93371 20.0237H9.93391Z" fill="black"/>
<path d="M6.25228 6.17491C6.43359 6.17491 6.61491 6.17063 6.79583 6.17821C6.83819 6.17996 6.89727 6.21319 6.91476 6.24875C6.92933 6.27829 6.90835 6.35136 6.8792 6.37254C6.71188 6.4942 6.66096 6.64927 6.69478 6.85041C6.71265 6.95729 6.6975 7.07 6.69478 7.17999C6.69108 7.33546 6.58614 7.4402 6.4301 7.44098C6.2035 7.44195 5.97711 7.44176 5.75052 7.43826C5.59389 7.43593 5.51343 7.35256 5.51129 7.1969C5.5076 6.92522 5.50469 6.65335 5.50197 6.38168C5.5008 6.25886 5.57465 6.17957 5.69863 6.17782C5.88305 6.1753 6.06747 6.17724 6.25209 6.17724C6.25209 6.17646 6.25209 6.17588 6.25209 6.1751L6.25228 6.17491ZM6.44467 6.81445C6.43418 6.80726 6.42368 6.79988 6.41299 6.79269C6.36189 6.85274 6.31563 6.91823 6.2585 6.97186C6.12946 7.09254 6.07816 7.09157 5.94271 6.97789C5.8883 6.93222 5.8368 6.88325 5.7682 6.82164C5.7682 6.92872 5.77092 7.01248 5.76742 7.09585C5.76451 7.16503 5.79599 7.18602 5.8607 7.18466C5.98372 7.18213 6.10673 7.18505 6.22974 7.18543C6.30261 7.18563 6.37568 7.18543 6.44487 7.18543V6.81426L6.44467 6.81445ZM6.37471 6.46116C6.37063 6.45358 6.36674 6.44581 6.36266 6.43823H5.8232C5.81795 6.44581 5.8127 6.45339 5.80726 6.46096C5.89355 6.55249 5.97905 6.645 6.06786 6.734C6.07641 6.74255 6.11411 6.73692 6.12538 6.72545C6.21031 6.63917 6.29193 6.54958 6.37471 6.46116Z" fill="black"/>
<path d="M6.24372 7.96599C6.41531 7.96599 6.58691 7.96132 6.75811 7.9691C6.80456 7.97123 6.8683 7.99999 6.88909 8.03653C6.90619 8.06684 6.88715 8.14536 6.85722 8.16965C6.71536 8.28547 6.69107 8.43238 6.70661 8.60204C6.7173 8.71766 6.7105 8.83485 6.70895 8.95144C6.7072 9.09467 6.61839 9.19222 6.47478 9.19494C6.22564 9.19961 5.97632 9.19825 5.72718 9.19436C5.60806 9.19242 5.52546 9.10205 5.52449 8.97982C5.52236 8.71125 5.52216 8.44249 5.52274 8.17392C5.52313 8.04566 5.5894 7.97629 5.71921 7.97376C5.89392 7.97046 6.06882 7.97298 6.24352 7.97298C6.24352 7.97065 6.24352 7.96832 6.24352 7.96618L6.24372 7.96599ZM5.77732 8.58416C5.77732 8.70192 5.77363 8.79423 5.78023 8.88576C5.78159 8.90519 5.82007 8.93726 5.84203 8.93765C6.02587 8.94056 6.20971 8.93881 6.39355 8.93493C6.41453 8.93454 6.45204 8.91336 6.45282 8.90034C6.45787 8.80356 6.45554 8.70639 6.45554 8.58804C6.37003 8.66383 6.3059 8.7266 6.23555 8.7816C6.13139 8.86302 6.06085 8.85894 5.96155 8.76897C5.90461 8.71727 5.85253 8.66014 5.77732 8.58435V8.58416ZM6.3918 8.25671L6.37625 8.23475H5.80764C5.9081 8.33833 5.98875 8.42403 6.0729 8.50584C6.08398 8.51672 6.12245 8.5177 6.13353 8.50759C6.22156 8.42617 6.3061 8.34085 6.3918 8.2569V8.25671Z" fill="black"/>
<path d="M13.6092 17.3515C13.6092 17.1086 13.6092 16.8659 13.6092 16.623C13.6092 16.4634 13.6166 16.4549 13.7805 16.4518C13.8807 16.4498 13.9812 16.4491 14.0815 16.4508C14.1924 16.4526 14.22 16.4825 14.2194 16.6016C14.2179 16.9092 14.214 17.2169 14.2126 17.5243C14.2117 17.7217 14.2111 17.9194 14.2148 18.1168C14.2165 18.2074 14.1821 18.262 14.0896 18.2649C13.9701 18.2688 13.8502 18.2703 13.7307 18.2655C13.6489 18.2622 13.6054 18.2229 13.6075 18.1285C13.6133 17.8696 13.6094 17.6104 13.6094 17.3515H13.6091H13.6092Z" fill="black"/>
<path d="M11.7859 19.1885C11.9023 19.1604 11.9563 19.2229 11.9944 19.3234C12.1458 19.722 12.3011 20.119 12.4548 20.5166C12.4985 20.6297 12.476 20.6575 12.3563 20.6649C12.2546 20.6711 12.2004 20.6377 12.1643 20.5364C12.0809 20.3032 12.0749 20.3048 11.8234 20.3056C11.7233 20.3059 11.6007 20.2756 11.5294 20.3223C11.4604 20.3674 11.4439 20.4931 11.4052 20.5838C11.3729 20.6596 11.1881 20.7102 11.1234 20.6536C11.1069 20.639 11.109 20.5881 11.1195 20.5601C11.2215 20.2846 11.3275 20.0104 11.4312 19.7354C11.4837 19.5964 11.5373 19.4577 11.584 19.3168C11.6176 19.215 11.6755 19.1631 11.7861 19.1887L11.7859 19.1885ZM11.5859 20.0733H11.9946C11.9299 19.892 11.87 19.7247 11.8104 19.5576C11.7989 19.557 11.7872 19.5562 11.7758 19.5556C11.7152 19.7212 11.6545 19.8866 11.5861 20.0733H11.5859Z" fill="black"/>
<path d="M14.2168 19.9174C14.2168 19.7168 14.2172 19.5161 14.2168 19.3155C14.2164 19.1908 14.224 19.1795 14.3455 19.1783C14.6076 19.1762 14.8698 19.1797 15.1317 19.1749C15.2209 19.1731 15.2324 19.2207 15.233 19.2895C15.2334 19.36 15.2386 19.4323 15.137 19.4327C14.959 19.4333 14.781 19.4372 14.6031 19.4316C14.5227 19.429 14.4972 19.4531 14.4978 19.5346C14.4998 19.7703 14.4965 19.7707 14.7291 19.7767C14.826 19.7792 14.9232 19.7804 15.0202 19.78C15.1072 19.7796 15.1082 19.8393 15.1063 19.8999C15.1045 19.9584 15.1074 20.0198 15.0182 20.0183C14.8727 20.0157 14.7269 20.02 14.5814 20.0173C14.5196 20.0161 14.4918 20.0369 14.4943 20.1008C14.4974 20.1817 14.4986 20.2627 14.4943 20.3434C14.4906 20.4106 14.5229 20.4265 14.5818 20.426C14.7662 20.424 14.9508 20.4289 15.135 20.4227C15.2306 20.4195 15.2495 20.4664 15.2507 20.5466C15.2518 20.6277 15.2314 20.673 15.1376 20.6712C14.8692 20.6658 14.6004 20.6648 14.3319 20.6662C14.2528 20.6665 14.2234 20.638 14.2248 20.5581C14.2287 20.3445 14.2261 20.131 14.2261 19.9174C14.223 19.9174 14.2201 19.9174 14.217 19.9174H14.2168Z" fill="black"/>
<path d="M5.52467 10.2605C5.52467 10.1441 5.52409 10.0277 5.52467 9.91132C5.52564 9.7716 5.60105 9.68026 5.73941 9.67618C5.97183 9.66918 6.20503 9.66782 6.43745 9.67618C6.58689 9.68143 6.67298 9.79278 6.67143 9.94202C6.66929 10.1585 6.67123 10.3752 6.67026 10.5917C6.66929 10.7891 6.57562 10.8806 6.3776 10.8799C6.18035 10.8791 5.9831 10.8797 5.78605 10.8779C5.61659 10.8764 5.53109 10.7891 5.5305 10.6193C5.52992 10.4996 5.5305 10.38 5.5305 10.2603C5.52856 10.2603 5.52681 10.2603 5.52487 10.2603L5.52467 10.2605ZM5.77905 10.2627H5.78003C5.78003 10.3532 5.7742 10.4444 5.78352 10.534C5.78644 10.5625 5.82841 10.6088 5.85445 10.6099C6.01905 10.6181 6.18424 10.6154 6.34903 10.6171C6.40228 10.6177 6.42268 10.5942 6.4219 10.5404C6.41938 10.3626 6.41918 10.1846 6.42093 10.0067C6.42152 9.9566 6.40189 9.93658 6.3533 9.93639C6.18521 9.93561 6.01692 9.93367 5.84882 9.93153C5.79382 9.93075 5.77653 9.95777 5.77828 10.0102C5.78139 10.0942 5.77905 10.1783 5.77905 10.2625V10.2627Z" fill="black"/>
<path d="M13.1079 20.0346C13.1079 19.8761 13.1082 19.7175 13.1079 19.5591C13.1075 19.4297 13.1071 19.4299 12.9724 19.4291C12.9044 19.4287 12.8366 19.4277 12.7686 19.427C12.6729 19.4258 12.6772 19.3593 12.6759 19.2915C12.6745 19.2227 12.6918 19.1792 12.7715 19.1788C13.0917 19.1774 13.412 19.1747 13.7322 19.171C13.8139 19.1701 13.8271 19.2185 13.8267 19.2849C13.8263 19.3506 13.838 19.4221 13.741 19.4258C13.657 19.4289 13.5725 19.4328 13.4889 19.4268C13.4091 19.4209 13.3819 19.4464 13.3832 19.5288C13.3881 19.8524 13.3863 20.1759 13.3867 20.4993C13.3869 20.6478 13.2839 20.7177 13.1491 20.654C13.1253 20.6429 13.11 20.5916 13.1092 20.5584C13.1053 20.3837 13.1075 20.209 13.1075 20.0343H13.1082L13.1079 20.0346Z" fill="black"/>
<path d="M7.73035 10.207C7.49773 10.207 7.26512 10.2078 7.0325 10.2066C6.92251 10.206 6.87879 10.1687 6.87606 10.0797C6.87354 9.99771 6.92542 9.9534 7.03464 9.95321C7.50628 9.95224 7.97793 9.95321 8.44957 9.95282C8.53527 9.95282 8.58424 9.99324 8.58949 10.0786C8.59474 10.1627 8.54615 10.2076 8.44743 10.2084C8.2084 10.2099 7.96938 10.2089 7.73015 10.2089V10.207H7.73035Z" fill="black"/>
<path d="M7.70717 6.49567C7.8982 6.49567 8.08923 6.49469 8.28045 6.49605C8.37625 6.49683 8.42756 6.5423 8.43047 6.62315C8.43319 6.69816 8.37703 6.75199 8.28103 6.75218C7.88926 6.75354 7.49729 6.75296 7.10552 6.75005C7.00796 6.74927 6.95724 6.69971 6.95608 6.62004C6.95491 6.53958 7.00252 6.49586 7.10474 6.49469C7.30548 6.49236 7.50623 6.49392 7.70697 6.49392C7.70697 6.4945 7.70697 6.49489 7.70697 6.49547L7.70717 6.49567Z" fill="black"/>
<path d="M16.1163 8.88228C15.9286 8.88228 15.7407 8.88655 15.5533 8.87897C15.5102 8.87723 15.4529 8.84438 15.4295 8.80824C15.3813 8.73381 15.4276 8.65141 15.5178 8.63548C15.5621 8.6277 15.6079 8.6277 15.6532 8.62751C15.9801 8.62673 16.3069 8.62654 16.6338 8.62634C16.7419 8.62634 16.8062 8.6757 16.8039 8.75635C16.8015 8.83778 16.7409 8.88325 16.6307 8.88364C16.4591 8.88422 16.2877 8.88364 16.1161 8.88364V8.88189L16.1163 8.88228Z" fill="black"/>
<path d="M7.60477 8.2424C7.75985 8.2424 7.91473 8.24181 8.06981 8.24259C8.18252 8.24317 8.23558 8.28709 8.23363 8.37474C8.23188 8.45791 8.17941 8.50339 8.07447 8.50358C7.77423 8.50436 7.47379 8.503 7.17355 8.50125C7.13507 8.50105 7.09621 8.49581 7.05831 8.48881C6.98796 8.47579 6.9526 8.43265 6.95415 8.35997C6.9559 8.28243 7.00254 8.24823 7.07211 8.24726C7.24973 8.24454 7.42735 8.24628 7.60477 8.24628C7.60477 8.24492 7.60477 8.24356 7.60477 8.2424Z" fill="black"/>
<path d="M13.9239 15.7394C13.9756 15.7394 14.0273 15.7386 14.0788 15.7394C14.2038 15.7416 14.2413 15.7746 14.2446 15.8994C14.2467 15.9827 14.2416 16.0669 14.2335 16.15C14.2275 16.2128 14.188 16.248 14.1223 16.2476C13.9836 16.2468 13.845 16.2466 13.7063 16.2441C13.6377 16.2427 13.5949 16.2029 13.5924 16.1363C13.5887 16.0399 13.592 15.9429 13.5974 15.8463C13.6015 15.7725 13.6484 15.7388 13.7203 15.7385C13.7881 15.7381 13.8557 15.7385 13.9235 15.7385V15.7394H13.9239Z" fill="black"/>
<path d="M7.35518 10.6649C7.2551 10.6649 7.15482 10.6666 7.05474 10.6639C7.02034 10.663 6.97604 10.6624 6.95408 10.6422C6.91774 10.6087 6.87032 10.5563 6.87537 10.518C6.88042 10.4793 6.94222 10.4193 6.98089 10.4181C7.22906 10.4097 7.47761 10.4109 7.72577 10.4202C7.76036 10.4216 7.81458 10.4811 7.82002 10.5193C7.82546 10.5574 7.78951 10.6128 7.7555 10.6414C7.7281 10.6645 7.67699 10.6643 7.63599 10.6657C7.54251 10.6688 7.44865 10.6666 7.35498 10.6666C7.35498 10.6661 7.35498 10.6653 7.35498 10.6647L7.35518 10.6649Z" fill="black"/>
<path d="M7.33408 8.94665C7.25051 8.94004 7.16637 8.93673 7.08339 8.92546C7.01848 8.91672 6.9664 8.87319 6.98389 8.80828C6.99652 8.76125 7.04782 8.69246 7.08572 8.68974C7.25246 8.67788 7.42075 8.68119 7.58787 8.69071C7.6522 8.6944 7.68756 8.75115 7.6794 8.81819C7.67046 8.89262 7.61838 8.93226 7.54803 8.93848C7.4773 8.9449 7.40578 8.93984 7.33446 8.93984C7.33446 8.94218 7.33427 8.94431 7.33408 8.94665Z" fill="black"/>
<path d="M7.26568 7.18343C7.19805 7.17954 7.13004 7.17993 7.06319 7.1706C6.99925 7.16166 6.95961 7.12454 6.95805 7.05322C6.95669 6.98152 6.98662 6.92302 7.05638 6.9205C7.20038 6.91525 7.34555 6.91933 7.48858 6.93526C7.52181 6.93896 7.56689 7.00464 7.57117 7.04545C7.57486 7.08062 7.5358 7.14339 7.50257 7.15467C7.42853 7.17954 7.34613 7.17973 7.26704 7.19003C7.26665 7.1877 7.26607 7.18556 7.26568 7.18323V7.18343Z" fill="black"/>
<path d="M5.27717 4.97296C5.27212 5.08081 5.22703 5.12182 5.15863 5.1226C5.09217 5.12357 5.03989 5.09034 5.03717 5.01222C5.03484 4.94595 5.09761 4.87132 5.15591 4.88881C5.20605 4.90397 5.24686 4.95061 5.27717 4.97277V4.97296Z" fill="black"/>
<path d="M5.54707 4.96672C5.57602 4.94437 5.61314 4.8989 5.65959 4.88452C5.71497 4.86741 5.7927 4.94884 5.77211 5.00636C5.75617 5.05106 5.70487 5.10644 5.66231 5.11344C5.59507 5.12432 5.55756 5.06563 5.54688 4.96691L5.54707 4.96672Z" fill="black"/>
<path d="M9.36855 6.21008C9.5452 5.56839 10.9543 4.81847 11.9672 4.81983C13.2453 4.82158 14.2764 5.59327 14.5638 6.22737C14.4622 6.21668 14.3681 6.20522 14.2739 6.19745C13.6512 6.14517 13.0475 6.22349 12.4689 6.4664C12.3086 6.53383 12.184 6.64072 12.1213 6.81134C12.1121 6.83602 12.0678 6.85312 12.0365 6.86225C12.0101 6.87003 11.9784 6.85759 11.9499 6.8607C11.8653 6.86964 11.8224 6.84049 11.7936 6.75265C11.7487 6.61584 11.6281 6.542 11.5043 6.48175C11.1957 6.33153 10.8659 6.25672 10.5274 6.2126C10.1688 6.16596 9.81105 6.16402 9.45289 6.21474C9.43054 6.21785 9.40781 6.21804 9.38507 6.21843C9.37944 6.21843 9.3738 6.21319 9.36816 6.21047L9.36855 6.21008Z" fill="white"/>
<path d="M14.7365 8.36651C14.6908 8.47087 14.6528 8.5793 14.5983 8.679C14.4114 9.02238 14.1271 9.27559 13.814 9.4981C13.4013 9.79155 12.9504 10.0003 12.451 10.1034C12.0203 10.1925 11.6004 10.1466 11.187 10.0195C10.7129 9.87375 10.2793 9.64482 9.89629 9.3302C9.58827 9.07718 9.33234 8.77927 9.20874 8.38827C9.20505 8.37661 9.20291 8.36437 9.19922 8.34902C9.29697 8.41762 9.38558 8.49088 9.48392 8.54685C9.7519 8.69921 10.0479 8.70115 10.3434 8.68482C10.6124 8.67006 10.8755 8.62108 11.1282 8.52236C11.4167 8.40965 11.5868 8.19064 11.6645 7.90167C11.7257 7.67449 11.7683 7.44207 11.8108 7.21043C11.8248 7.13425 11.8616 7.11093 11.9286 7.11734C11.9972 7.12395 12.0823 7.09169 12.1078 7.20032C12.1636 7.43916 12.2263 7.67624 12.2809 7.91527C12.3548 8.23961 12.5639 8.44269 12.8667 8.54491C13.2928 8.68891 13.732 8.72777 14.1782 8.65295C14.3904 8.61739 14.5583 8.5004 14.7066 8.3498C14.7165 8.35524 14.7266 8.36087 14.7365 8.36631V8.36651ZM11.9863 9.07504C12.0439 9.10983 12.1159 9.16968 12.1989 9.20019C12.334 9.24975 12.4749 9.28687 12.616 9.31602C12.6785 9.32904 12.7382 9.29328 12.7504 9.21924C12.7627 9.14559 12.7246 9.10361 12.6542 9.08729C12.607 9.0764 12.56 9.06494 12.513 9.05308C12.3797 9.01966 12.2547 8.9703 12.1589 8.86594C12.045 8.74196 12.0384 8.61934 12.1329 8.48078C12.1818 8.40907 12.229 8.33522 12.2687 8.25807C12.3013 8.19453 12.2734 8.12826 12.2086 8.12126C12.0627 8.10552 11.9133 8.09697 11.7675 8.10999C11.6686 8.11874 11.6424 8.19938 11.6888 8.29266C11.7147 8.34436 11.7481 8.39236 11.779 8.44152C11.9224 8.66928 11.869 8.86575 11.6222 8.98079C11.5207 9.02802 11.4096 9.05483 11.3023 9.08904C11.2385 9.10925 11.201 9.15025 11.2069 9.21691C11.2129 9.28823 11.2634 9.31602 11.3297 9.31096C11.3874 9.30669 11.4486 9.30513 11.5011 9.28434C11.6614 9.22079 11.818 9.1485 11.9863 9.07524V9.07504ZM11.0114 8.89859C10.9976 8.80551 10.9719 8.74235 10.8866 8.75984C10.6464 8.809 10.4072 8.8638 10.1684 8.91958C10.1429 8.9256 10.1112 8.94931 10.1027 8.97224C10.0881 9.01111 10.0741 9.06319 10.0893 9.09603C10.1017 9.12285 10.1614 9.14908 10.1932 9.14248C10.44 9.09156 10.6857 9.03501 10.9301 8.97321C10.9649 8.96447 10.9904 8.91861 11.0116 8.8984L11.0114 8.89859ZM13.0812 8.73982C13.0171 8.75362 12.958 8.76139 12.9512 8.83932C12.9448 8.91239 12.9745 8.96602 13.0495 8.98351C13.2695 9.03443 13.4897 9.08437 13.7101 9.13315C13.7724 9.14695 13.837 9.15278 13.8634 9.07465C13.8914 8.99129 13.8418 8.94406 13.773 8.91822C13.7007 8.89101 13.6253 8.87177 13.5503 8.85292C13.3943 8.81386 13.2376 8.77733 13.0812 8.73982Z" fill="white"/>
<path d="M8.80155 14.6067C8.53279 14.6067 8.26403 14.6073 7.99527 14.6065C7.74905 14.6057 7.65227 14.4615 7.73506 14.2227C7.83553 13.9329 8.04968 13.7571 8.32894 13.6659C8.81147 13.5085 9.26329 13.5859 9.66478 13.8985C9.80392 14.007 9.91372 14.1459 9.91313 14.3393C9.91274 14.5014 9.81655 14.6014 9.65623 14.6022C9.37134 14.6038 9.08644 14.6026 8.80136 14.6026C8.80136 14.604 8.80136 14.6051 8.80136 14.6065L8.80155 14.6067ZM8.505 13.7612C8.24363 13.7736 8.03045 13.8515 7.88586 14.0672C7.8433 14.1306 7.84486 14.1871 7.90607 14.2377C7.96651 14.2876 8.01937 14.2647 8.07009 14.2209C8.07981 14.2126 8.0903 14.204 8.0973 14.1935C8.24246 13.9806 8.62879 13.9454 8.82507 14.1255C8.84392 14.1428 8.8653 14.1588 8.88823 14.1698C8.9508 14.2 9.01726 14.2087 9.06487 14.1492C9.11462 14.087 9.08489 14.027 9.03514 13.978C8.88453 13.8294 8.69623 13.774 8.50481 13.7613L8.505 13.7612Z" fill="white"/>
<path d="M17.0569 14.5813C17.0717 14.5393 17.0873 14.4981 17.1009 14.4566C17.1603 14.275 17.1024 14.1031 17.0445 13.9365C16.9205 13.5801 16.7857 13.2276 16.6533 12.8685C16.6646 12.864 16.6786 12.8535 16.6928 12.8535C16.9225 12.8525 17.152 12.8535 17.3817 12.8525C17.4411 12.8523 17.4763 12.8759 17.4977 12.9332C17.6462 13.329 17.8014 13.7224 17.9441 14.1202C17.9866 14.2387 17.9874 14.3685 17.9256 14.4886C17.8866 14.5644 17.8234 14.6085 17.7398 14.6083C17.5231 14.6077 17.3065 14.6015 17.0898 14.5969C17.0812 14.5969 17.0729 14.5893 17.0568 14.5815L17.0569 14.5813Z" fill="white"/>
<path d="M13.4612 11.1026C13.4935 11.4351 12.8372 13.0193 12.5261 13.3178C12.5146 13.2876 12.5012 13.2641 12.4966 13.2389C12.4258 12.8442 12.3551 12.4497 12.2865 12.0546C12.2352 11.7584 12.1852 11.4621 12.1396 11.165C12.1345 11.1315 12.1514 11.0857 12.174 11.059C12.2276 10.9961 12.2688 11.0068 12.3088 11.0851C12.3689 11.2027 12.435 11.3191 12.5129 11.4254C12.6332 11.59 12.742 11.6119 12.9128 11.499C13.1007 11.375 13.2782 11.2357 13.4612 11.1024V11.1026Z" fill="white"/>
<path d="M10.4424 11.0759C10.6025 11.2065 10.7424 11.3242 10.8866 11.4366C10.9449 11.4818 11.0098 11.5209 11.0765 11.5522C11.1752 11.5986 11.2774 11.5982 11.3495 11.5057C11.4463 11.3816 11.5328 11.2494 11.6229 11.12C11.6408 11.0943 11.6548 11.066 11.6713 11.0376C11.7586 11.0683 11.7953 11.1132 11.7806 11.2061C11.7232 11.5668 11.6737 11.9284 11.6195 12.2895C11.5777 12.5676 11.5341 12.8453 11.4898 13.123C11.4805 13.1819 11.4646 13.2398 11.4455 13.3262C10.9583 12.6282 10.6643 11.8781 10.4424 11.0755V11.0759Z" fill="white"/>
<path d="M9.97859 6.41064C10.4862 6.41706 10.9388 6.49498 11.37 6.67805C11.5768 6.76588 11.6296 6.87102 11.5845 7.09294C11.5364 7.33003 11.4895 7.56731 11.4374 7.80362C11.3716 8.1023 11.1801 8.27681 10.8885 8.35494C10.5659 8.44141 10.2388 8.47542 9.90844 8.42859C9.52716 8.37437 9.29882 8.13554 9.19465 7.77719C9.14529 7.60734 9.12625 7.42894 9.0868 7.25599C9.07164 7.18914 9.03822 7.12656 9.01354 7.06185C8.97739 6.96702 8.92939 6.87471 8.90879 6.77657C8.888 6.67766 8.94066 6.59371 9.03938 6.56611C9.21895 6.51578 9.40045 6.46856 9.5841 6.43785C9.72693 6.41395 9.87404 6.41725 9.97859 6.41103V6.41064ZM10.2872 8.31549C10.4279 8.29722 10.5701 8.28634 10.7091 8.25913C10.9979 8.20258 11.2091 8.04789 11.2802 7.7492C11.3271 7.55196 11.3646 7.35199 11.3943 7.15144C11.4207 6.97362 11.3743 6.88812 11.2066 6.82593C10.9984 6.74859 10.7866 6.67591 10.5707 6.62558C10.2386 6.54823 9.90241 6.5529 9.5736 6.65259C9.35576 6.71866 9.26248 6.84906 9.26559 7.07681C9.26695 7.17962 9.27472 7.28592 9.30309 7.38366C9.35673 7.56847 9.40551 7.76028 9.49568 7.92779C9.66163 8.23659 9.95119 8.32792 10.2874 8.31529L10.2872 8.31549Z" fill="white"/>
<path d="M13.9423 6.41096C14.2408 6.42903 14.5428 6.4335 14.8317 6.5332C15.0488 6.60801 15.1153 6.71995 14.9911 6.91292C14.851 7.13077 14.8502 7.37038 14.7987 7.60358C14.7295 7.91626 14.6059 8.19668 14.301 8.35117C14.2244 8.39004 14.1376 8.4188 14.0526 8.42929C13.6504 8.47924 13.2598 8.42929 12.881 8.28082C12.6783 8.20134 12.565 8.04607 12.5122 7.84766C12.4475 7.60455 12.3894 7.35872 12.3468 7.11094C12.3085 6.88882 12.3798 6.77553 12.588 6.68011C12.9003 6.53708 13.2337 6.47392 13.5717 6.4337C13.6937 6.41912 13.8171 6.41815 13.9423 6.41077V6.41096ZM13.6607 8.32474C13.662 8.316 13.6634 8.30725 13.6648 8.29851C13.7198 8.29851 13.7749 8.30103 13.8297 8.29812C14.1102 8.28296 14.3245 8.15528 14.4592 7.90848C14.6024 7.64594 14.6724 7.36163 14.6852 7.06333C14.6928 6.88435 14.611 6.74696 14.4491 6.6875C14.2936 6.63056 14.1257 6.58819 13.9611 6.57925C13.541 6.55652 13.1377 6.64979 12.7532 6.81828C12.5641 6.90107 12.5159 6.97647 12.5406 7.18149C12.5617 7.35736 12.601 7.53187 12.6412 7.70463C12.704 7.97397 12.8762 8.14945 13.1397 8.22252C13.3097 8.26955 13.4866 8.29151 13.6603 8.32474H13.6607Z" fill="white"/>
<path d="M14.0762 13.2992C14.1137 13.1216 14.1574 12.9098 14.2031 12.6981C14.3061 12.221 14.4075 11.7438 14.5142 11.2675C14.6172 10.8073 14.7245 10.3479 14.8339 9.88906C14.8432 9.8502 14.8813 9.81813 14.9062 9.78296C14.9378 9.80861 14.9849 9.82804 14.9981 9.86108C15.0255 9.92987 15.0585 10.0097 15.0474 10.0781C15.0053 10.3364 14.9468 10.592 14.8935 10.8483C14.8141 11.2311 14.7342 11.614 14.6537 11.9966C14.5777 12.3571 14.4998 12.7172 14.4248 13.0781C14.3912 13.2393 14.3603 13.4012 14.3333 13.5637C14.3232 13.6249 14.2954 13.6327 14.2472 13.6111C14.1687 13.5759 14.0725 13.4197 14.0766 13.2992H14.0762Z" fill="white"/>
<path d="M10.294 9.9137C10.7394 10.1547 11.1937 10.3026 11.6728 10.3789C11.582 10.5843 11.4982 10.7847 11.405 10.9804C11.3636 11.0671 11.3035 11.1448 11.2509 11.226C11.2042 11.2977 11.1517 11.2995 11.0802 11.2523C10.7784 11.0531 10.5406 10.7905 10.3408 10.4944C10.3 10.4339 10.301 10.3406 10.2957 10.2617C10.2885 10.1512 10.294 10.0398 10.294 9.91389V9.9137Z" fill="white"/>
<path d="M13.6671 9.95187C13.6469 10.1361 13.6273 10.3203 13.6057 10.5045C13.6039 10.5189 13.5901 10.5323 13.5802 10.545C13.3768 10.8013 13.1541 11.0384 12.8816 11.2236C12.7539 11.3102 12.7219 11.3071 12.6476 11.1734C12.5664 11.0275 12.4974 10.8746 12.423 10.7247C12.3699 10.6182 12.3167 10.5119 12.2559 10.3903C12.7413 10.3228 13.1935 10.1561 13.624 9.92505C13.6383 9.93399 13.6529 9.94293 13.6673 9.95187H13.6671Z" fill="white"/>
<path d="M11.465 17.3547C11.465 17.4486 11.465 17.5424 11.465 17.6361C11.4648 17.729 11.4117 17.772 11.3251 17.7747C11.2248 17.7778 11.1243 17.7747 11.024 17.7758C10.9712 17.7764 10.9488 17.7541 10.9488 17.7C10.9484 17.4735 10.9469 17.2469 10.9434 17.0203C10.9424 16.9583 10.9686 16.9307 11.0291 16.9307C11.1196 16.9307 11.2106 16.9249 11.301 16.9303C11.4172 16.9373 11.4623 16.9855 11.4675 17.1021C11.4712 17.186 11.4683 17.2704 11.4683 17.3545C11.4673 17.3545 11.4663 17.3545 11.4654 17.3545L11.465 17.3547Z" fill="white"/>
<path d="M16.9848 17.2268C16.959 17.2268 16.9333 17.2268 16.9075 17.2268C16.7415 17.226 16.6968 17.1712 16.747 17.0103C16.7578 16.9751 16.8113 16.9345 16.849 16.9302C16.9442 16.9196 17.0418 16.9264 17.1383 16.9293C17.2108 16.9316 17.2522 16.9668 17.2464 17.0453C17.2441 17.0773 17.2429 17.11 17.2456 17.1419C17.2509 17.2 17.2256 17.2252 17.1683 17.2243C17.1071 17.2233 17.0458 17.2241 16.9846 17.2241C16.9846 17.225 16.9846 17.2258 16.9846 17.2268H16.9848Z" fill="white"/>
<path d="M5.95885 17.3617C5.95885 17.4554 5.95923 17.5491 5.95885 17.6427C5.95846 17.73 5.90735 17.7698 5.82689 17.7811C5.82048 17.7821 5.81407 17.7819 5.80766 17.7825C5.44698 17.8097 5.41549 17.7807 5.41491 17.4206C5.41491 17.3075 5.41608 17.1944 5.41316 17.0813C5.41102 16.9927 5.45436 16.9455 5.53909 16.9437C5.64189 16.9416 5.74489 16.9468 5.84769 16.9523C5.92639 16.9564 5.96176 17.0047 5.96234 17.0805C5.96312 17.1742 5.96234 17.2679 5.96234 17.3615H5.95885V17.3617Z" fill="white"/>
<path d="M6.4452 6.81442V7.18559C6.37602 7.18559 6.30295 7.18579 6.23008 7.18559C6.10707 7.1852 5.98405 7.18229 5.86104 7.18481C5.79633 7.18617 5.76485 7.16519 5.76776 7.096C5.77126 7.01244 5.76854 6.92888 5.76854 6.8218C5.83714 6.88341 5.88864 6.93238 5.94305 6.97805C6.0785 7.09173 6.1298 7.0927 6.25884 6.97202C6.31617 6.91839 6.36222 6.8529 6.41333 6.79285C6.42383 6.80004 6.43432 6.80742 6.44501 6.81461L6.4452 6.81442Z" fill="white"/>
<path d="M6.37409 6.46104C6.2913 6.54946 6.20969 6.63905 6.12476 6.72533C6.1133 6.73699 6.07579 6.74243 6.06724 6.73388C5.97843 6.64488 5.89292 6.55238 5.80664 6.46085C5.81189 6.45327 5.81713 6.44569 5.82258 6.43811H6.36204C6.36612 6.44569 6.37001 6.45346 6.37409 6.46104Z" fill="white"/>
<path d="M5.7774 8.58418C5.8526 8.65997 5.90468 8.7173 5.96162 8.76879C6.06073 8.85877 6.13147 8.86285 6.23563 8.78143C6.30598 8.72643 6.37011 8.66366 6.45561 8.58787C6.45561 8.70622 6.45795 8.80338 6.45289 8.90016C6.45212 8.91318 6.41461 8.93436 6.39362 8.93475C6.20978 8.93864 6.02595 8.94058 5.84211 8.93747C5.82034 8.93709 5.78187 8.90502 5.78031 8.88559C5.7737 8.79406 5.7774 8.70175 5.7774 8.58398V8.58418Z" fill="white"/>
<path d="M6.39178 8.25677C6.30608 8.34092 6.22154 8.42604 6.13351 8.50746C6.12243 8.51776 6.08396 8.5166 6.07288 8.50571C5.98854 8.4239 5.90789 8.3382 5.80762 8.23462H6.37623L6.39178 8.25658V8.25677Z" fill="white"/>
<path d="M11.5861 20.0732C11.6545 19.8867 11.7152 19.7211 11.7758 19.5555C11.7873 19.5561 11.7989 19.5569 11.8104 19.5575C11.8701 19.7246 11.9299 19.8917 11.9946 20.0732H11.5859H11.5861Z" fill="white"/>
<path d="M5.77924 10.2626C5.77924 10.1785 5.78138 10.0943 5.77846 10.0104C5.77652 9.95789 5.79401 9.93088 5.84901 9.93166C6.0171 9.93379 6.18539 9.93574 6.35349 9.93652C6.40207 9.93671 6.4217 9.95673 6.42112 10.0069C6.41937 10.1847 6.41957 10.3627 6.42209 10.5405C6.42287 10.5945 6.40227 10.6178 6.34922 10.6173C6.18423 10.6155 6.01924 10.618 5.85464 10.6101C5.8286 10.6087 5.78663 10.5627 5.78371 10.5341C5.77438 10.4445 5.78021 10.3534 5.78021 10.2628H5.77924V10.2626Z" fill="white"/>
<path d="M11.9861 9.07504C11.8178 9.1483 11.661 9.2206 11.5008 9.28414C11.4484 9.30494 11.3871 9.3063 11.3294 9.31077C11.2632 9.31582 11.2126 9.28803 11.2066 9.21671C11.201 9.15005 11.2383 9.10905 11.302 9.08884C11.4095 9.05483 11.5205 9.02801 11.6219 8.9806C11.8685 8.86555 11.922 8.66908 11.7787 8.44132C11.7478 8.39216 11.7144 8.34416 11.6886 8.29247C11.6421 8.19919 11.6683 8.11854 11.7673 8.10979C11.913 8.09697 12.0625 8.10532 12.2084 8.12107C12.2731 8.12806 12.3011 8.19452 12.2684 8.25788C12.2288 8.33503 12.1816 8.40868 12.1326 8.48058C12.0382 8.61914 12.0448 8.74176 12.1586 8.86575C12.2545 8.9701 12.3796 9.01946 12.5127 9.05289C12.5597 9.06474 12.6068 9.07621 12.654 9.08709C12.7245 9.10341 12.7626 9.14519 12.7502 9.21904C12.738 9.29308 12.6783 9.32884 12.6157 9.31582C12.4746 9.28667 12.3337 9.24975 12.1987 9.2C12.1157 9.16949 12.0436 9.10983 11.9861 9.07485V9.07504Z" fill="black"/>
<path d="M11.011 8.89855C10.99 8.91876 10.9643 8.96462 10.9295 8.97337C10.6853 9.03497 10.4394 9.09152 10.1926 9.14263C10.1608 9.14924 10.1013 9.12301 10.0887 9.09619C10.0733 9.06335 10.0875 9.01126 10.1021 8.9724C10.1108 8.94927 10.1425 8.92556 10.1678 8.91973C10.4066 8.86377 10.6458 8.80916 10.886 8.75999C10.9711 8.7425 10.997 8.80566 11.0108 8.89875L11.011 8.89855Z" fill="black"/>
<path d="M13.0811 8.73987C13.2375 8.77737 13.3941 8.81391 13.5502 8.85297C13.6252 8.87182 13.7008 8.89106 13.7729 8.91827C13.8417 8.94411 13.8912 8.99133 13.8632 9.0747C13.837 9.15282 13.7723 9.14699 13.7099 9.1332C13.4895 9.08442 13.2694 9.03448 13.0494 8.98356C12.9742 8.96607 12.9446 8.91263 12.951 8.83937C12.9578 8.76144 13.0169 8.75367 13.0811 8.73987Z" fill="black"/>
<path d="M8.50463 13.7612C8.69605 13.774 8.88416 13.8292 9.03496 13.9779C9.08471 14.027 9.11445 14.0869 9.0647 14.1491C9.01709 14.2085 8.95062 14.1998 8.88805 14.1697C8.86512 14.1586 8.84374 14.1427 8.82489 14.1254C8.62862 13.9452 8.24248 13.9804 8.09712 14.1934C8.08993 14.2039 8.07963 14.2124 8.06991 14.2208C8.01919 14.2647 7.96653 14.2876 7.9059 14.2375C7.84468 14.187 7.84313 14.1304 7.88569 14.0671C8.03007 13.8514 8.24345 13.7734 8.50483 13.761L8.50463 13.7612Z" fill="black"/>
<path d="M10.2865 8.3154C9.95033 8.32803 9.66077 8.2365 9.49481 7.9279C9.40464 7.76019 9.35587 7.56858 9.30223 7.38377C9.27386 7.28583 9.26608 7.17953 9.26472 7.07692C9.26161 6.84897 9.35489 6.71857 9.57274 6.65269C9.90155 6.553 10.2377 6.54834 10.5699 6.62568C10.7858 6.67601 10.9976 6.74869 11.2057 6.82604C11.3736 6.88842 11.4201 6.97373 11.3934 7.15154C11.3635 7.35209 11.3262 7.55206 11.2794 7.74931C11.2082 8.04819 10.9972 8.20268 10.7082 8.25924C10.5693 8.28644 10.427 8.29732 10.2863 8.31559L10.2865 8.3154ZM10.1056 6.7897C9.94197 6.82196 9.77815 6.85285 9.61491 6.88667C9.50939 6.90843 9.4746 6.98034 9.48704 7.0812C9.51561 7.31303 9.55972 7.54176 9.66621 7.75183C9.75425 7.92576 9.88639 8.05033 10.0949 8.05169C10.2527 8.05266 10.4124 8.0548 10.5677 8.03206C10.7749 8.00175 10.9717 7.92848 11.0407 7.70228C11.0959 7.52116 11.1278 7.33305 11.1701 7.14785C11.1836 7.08975 11.1461 7.06759 11.1021 7.04835C10.7858 6.90921 10.4591 6.81379 10.1058 6.7897H10.1056Z" fill="black"/>
<path d="M13.6609 8.32475C13.4871 8.29152 13.3101 8.26956 13.1403 8.22253C12.8767 8.14966 12.7048 7.97398 12.6418 7.70464C12.6014 7.53168 12.5623 7.35737 12.5411 7.1815C12.5164 6.97648 12.5646 6.90108 12.7537 6.81829C13.1383 6.6498 13.5414 6.55672 13.9617 6.57926C14.1263 6.5882 14.2942 6.63037 14.4497 6.68751C14.6115 6.74697 14.6934 6.88436 14.6858 7.06334C14.673 7.36164 14.6032 7.64614 14.4598 7.90849C14.3251 8.15529 14.1107 8.28297 13.8303 8.29813C13.7755 8.30104 13.7203 8.29852 13.6653 8.29852C13.664 8.30726 13.6626 8.31601 13.6613 8.32475H13.6609ZM13.8455 6.79128C13.8437 6.80002 13.8418 6.80896 13.84 6.81771C13.4951 6.81868 13.1665 6.89291 12.8544 7.03983C12.8019 7.06451 12.7541 7.0921 12.7704 7.16206C12.8101 7.33191 12.8441 7.5035 12.8935 7.67044C12.9389 7.82435 13.0433 7.92637 13.1995 7.98292C13.4063 8.05774 13.617 8.06143 13.8311 8.05074C14.0186 8.04142 14.1558 7.95163 14.2497 7.79306C14.3791 7.57463 14.4386 7.33483 14.4625 7.08414C14.4716 6.98833 14.4293 6.9207 14.343 6.89816C14.179 6.85541 14.0116 6.82606 13.8457 6.79108L13.8455 6.79128Z" fill="black"/>
<path d="M10.1065 6.78967C10.4598 6.81377 10.7865 6.90919 11.1029 7.04833C11.1468 7.06776 11.1843 7.08972 11.1709 7.14783C11.1285 7.33283 11.0966 7.52114 11.0414 7.70226C10.9725 7.92846 10.7756 8.00172 10.5684 8.03204C10.4132 8.05477 10.2534 8.05264 10.0956 8.05166C9.88711 8.0503 9.75496 7.92554 9.66693 7.75181C9.56063 7.54174 9.51652 7.31301 9.48776 7.08117C9.47532 6.98031 9.51011 6.90841 9.61563 6.88664C9.77887 6.85283 9.94269 6.82193 10.1063 6.78967H10.1065ZM10.2043 7.44554C10.2383 7.53416 10.2593 7.63094 10.3088 7.70983C10.4017 7.85753 10.5807 7.85422 10.6767 7.70906C10.7525 7.5946 10.782 7.46478 10.7583 7.32914C10.7239 7.13325 10.5504 7.04172 10.3815 7.12781C10.2552 7.19194 10.2221 7.3066 10.2043 7.44554Z" fill="white"/>
<path d="M13.8461 6.79126C14.012 6.82624 14.1793 6.85558 14.3434 6.89834C14.4296 6.92088 14.472 6.98831 14.4629 7.08431C14.439 7.335 14.3795 7.57481 14.2501 7.79324C14.1562 7.95181 14.019 8.04159 13.8315 8.05092C13.6171 8.06161 13.4065 8.05792 13.1999 7.9831C13.0437 7.92655 12.9393 7.82452 12.8938 7.67061C12.8445 7.50368 12.8105 7.33209 12.7708 7.16224C12.7545 7.09228 12.8023 7.06468 12.8548 7.04C13.1669 6.89328 13.4955 6.81885 13.8404 6.81788C13.8422 6.80914 13.8441 6.8002 13.8459 6.79145L13.8461 6.79126ZM13.7182 7.45413C13.7114 7.45121 13.7046 7.4481 13.6976 7.44519C13.6933 7.4003 13.6925 7.35443 13.684 7.31032C13.6613 7.19294 13.5723 7.11366 13.4586 7.10491C13.335 7.09539 13.2275 7.15524 13.1951 7.27281C13.1482 7.44305 13.1651 7.60687 13.2944 7.74271C13.3894 7.8426 13.5377 7.84143 13.6115 7.7258C13.663 7.64535 13.6838 7.54527 13.7182 7.45393V7.45413Z" fill="white"/>
<path d="M10.2041 7.44566C10.222 7.30651 10.2552 7.19205 10.3813 7.12792C10.5502 7.04203 10.7237 7.13336 10.7581 7.32925C10.7819 7.46489 10.7525 7.59471 10.6765 7.70917C10.5803 7.85434 10.4013 7.85764 10.3087 7.70995C10.2591 7.63105 10.2381 7.53447 10.2041 7.44566Z" fill="black"/>
<path d="M13.7178 7.45413C13.6832 7.54547 13.6624 7.64555 13.6111 7.726C13.5373 7.84163 13.389 7.84279 13.294 7.74291C13.1649 7.60707 13.1478 7.44325 13.1947 7.27301C13.2271 7.15544 13.3346 7.09559 13.4582 7.10511C13.5719 7.11385 13.6609 7.19314 13.6836 7.31052C13.6921 7.35463 13.6929 7.4003 13.6972 7.44539C13.704 7.4483 13.7108 7.45141 13.7178 7.45432V7.45413Z" fill="black"/>
</svg>
