<svg width="51" height="51" viewBox="0 0 51 51" fill="none" xmlns="http://www.w3.org/2000/svg">
<g clip-path="url(#clip0_2760_231660)">
<rect width="50" height="50" transform="translate(0.5 0.5)" fill="white"/>
<path d="M0.511353 47.3824V3.65771H50.4709V47.3824H0.511353ZM21.4073 20.8431C21.3539 20.8747 21.3118 20.9059 21.2652 20.9265C20.9705 21.0593 20.6709 21.1812 20.3806 21.3221C18.4215 22.2739 16.8563 23.6662 15.7207 25.529C15.1057 26.5379 14.6863 27.6294 14.4182 28.778C14.328 29.1646 14.2684 29.5589 14.2093 29.952C14.1595 30.284 14.2984 30.4375 14.6288 30.4403C14.8109 30.4419 14.9939 30.4257 15.1749 30.4395C15.3757 30.4545 15.4611 30.3695 15.502 30.1788C15.6871 29.3128 16.2053 28.6836 16.9632 28.2642C18.2506 27.5512 19.5454 27.6035 20.8154 28.3197C21.5247 28.7197 22.0138 29.3148 22.2611 30.0946C22.3652 30.4233 22.3535 30.431 22.6935 30.4314C24.5425 30.4326 26.3911 30.4322 28.2401 30.4314C29.2794 30.4314 30.3182 30.4269 31.3575 30.4298C31.5296 30.4302 31.6522 30.3731 31.7437 30.2253C31.8786 30.0079 32.0162 29.7913 32.1701 29.5877C32.2219 29.5188 32.3247 29.4553 32.4085 29.45C32.7045 29.4314 33.002 29.4367 33.2988 29.4371C33.6903 29.4371 34.0814 29.4435 34.4729 29.4419C34.6231 29.4415 34.7628 29.4095 34.7757 29.2193C34.7867 29.0557 34.6567 28.9274 34.4697 28.9144C34.396 28.9091 34.3215 28.9132 34.247 28.9132C33.1943 28.9124 32.1417 28.9108 31.0891 28.9116C30.9514 28.9116 30.8498 28.9022 30.8895 28.7124C31.0482 27.9537 31.1915 27.1921 31.3518 26.4338C31.6599 24.9771 31.9741 23.5217 32.2895 22.0666C32.3794 21.652 32.5081 21.2391 32.2296 20.8439C32.2255 20.8379 32.2381 20.8201 32.245 20.8022C32.2684 20.799 32.2948 20.7921 32.3207 20.7921C35.1883 20.7917 38.0559 20.7909 40.9239 20.7929C41.2806 20.7929 41.5271 21.0707 41.4579 21.4172C41.2535 22.4411 41.0332 23.4618 40.8194 24.484C40.5506 25.7699 40.2802 27.0553 40.015 28.3419C39.9385 28.7132 39.7215 28.9136 39.3701 28.9132C39.0057 28.9128 38.6413 28.9193 38.2773 28.9051C38.2061 28.9022 38.1016 28.8338 38.0745 28.7695C37.8636 28.267 37.6628 27.7601 37.4701 27.2504C37.3433 26.9156 37.1073 26.7257 36.7571 26.7197C36.1502 26.7087 35.5425 26.716 34.9356 26.729C34.6612 26.7346 34.5016 26.9844 34.596 27.2399C34.7903 27.7642 34.9984 28.2832 35.1862 28.8095C35.3486 29.2654 35.5122 29.7225 35.6344 30.1897C35.736 30.578 35.447 30.9363 35.0794 30.9354C34.3644 30.9338 33.649 30.9302 32.934 30.9278C32.8312 30.9278 32.7284 30.9278 32.6146 30.9278C32.7579 30.5678 32.8401 30.5087 33.1684 30.5087C33.6814 30.5087 34.1939 30.5108 34.7069 30.5087C34.9215 30.5079 35.032 30.4213 35.0332 30.2622C35.034 30.099 34.9239 29.999 34.7182 29.999C34.1109 29.9998 33.5037 30.0083 32.8964 30.0108C32.7053 30.0116 32.5591 30.0905 32.449 30.2431C32.3385 30.3962 32.2211 30.5448 32.1207 30.7043C32.0207 30.863 31.8935 30.9237 31.7033 30.9237C28.4037 30.9217 25.1045 30.9257 21.8049 30.9273C21.7348 30.9273 21.6644 30.9168 21.5806 30.9099C21.6154 30.7735 21.6547 30.6662 21.6688 30.5557C21.7466 29.9504 21.4397 29.5035 21.0356 29.1148C19.9903 28.1095 18.0656 28.0116 16.9024 28.9116C16.2664 29.4039 15.8854 30.0241 16.0842 30.8751C16.0867 30.8848 16.0729 30.8982 16.0506 30.9395C15.9539 30.9395 15.8405 30.9395 15.7275 30.9395C13.9733 30.9427 12.219 30.9456 10.4644 30.9488C10.2417 30.9492 10.017 30.9354 9.79799 30.9646C9.71824 30.9751 9.59759 31.0897 9.59475 31.1605C9.59151 31.25 9.67573 31.3581 9.75022 31.4282C9.79313 31.4686 9.89151 31.4577 9.96479 31.4573C14.5328 31.4549 19.1008 31.4492 23.6688 31.4488C29.7077 31.4484 35.747 31.452 41.7858 31.4537C42.0709 31.4537 42.2065 31.367 42.2065 31.1881C42.2065 31.0116 42.0676 30.9359 41.7802 30.9367C40.7073 30.9395 39.6344 30.9383 38.562 30.9367C38.4858 30.9367 38.4097 30.9201 38.3077 30.9083C38.547 30.4035 38.4494 29.9278 38.2729 29.433C38.6522 29.433 38.9948 29.4188 39.3352 29.4367C39.7664 29.4589 40.117 29.3067 40.3275 28.9411C40.4539 28.7221 40.5037 28.4533 40.5595 28.2002C40.7583 27.299 40.9425 26.3946 41.136 25.4921C41.4057 24.2338 41.6628 22.9727 41.9563 21.7201C42.1709 20.8039 41.5369 20.2225 40.7964 20.2674C40.2045 20.3035 39.6093 20.2812 39.0154 20.2828C36.6336 20.2881 34.2518 20.2921 31.8697 20.2966C31.3259 20.2974 31.0409 20.4379 30.8778 21.1662C30.8535 21.2755 30.8356 21.3865 30.813 21.5063C30.3271 21.284 29.8668 21.0739 29.3729 20.848C29.5834 20.6909 29.7688 20.561 29.945 20.4193C30.6628 19.8419 31.279 19.184 31.6012 18.2974C31.8073 17.7306 31.8405 17.1403 31.8551 16.5448C31.8668 16.0561 31.9571 15.5982 32.1567 15.1269C32.5255 14.2553 32.3393 13.9197 31.5632 13.6188C31.5567 13.6164 31.5506 13.6132 31.5441 13.6124C31.415 13.5937 31.4105 13.5282 31.4397 13.4116C31.7356 12.2334 31.8753 11.0383 31.7956 9.8229C31.779 9.56784 31.7458 9.31278 31.698 9.06176C31.6219 8.665 31.4162 8.52452 31.036 8.61966C30.645 8.71763 30.2535 8.8233 29.8741 8.95893C29.1223 9.22735 28.4753 9.65407 28.0081 10.3152C27.9211 10.4383 27.8522 10.4508 27.7114 10.4176C27.1818 10.2917 26.6518 10.1411 26.1134 10.0857C25.1405 9.98565 24.1729 10.0597 23.2373 10.3796C23.1259 10.4176 23.0441 10.4233 22.9599 10.3099C22.1721 9.248 21.0332 8.82087 19.7948 8.58889C19.5296 8.53909 19.3648 8.67108 19.2782 8.93545C19.249 9.02492 19.2259 9.11763 19.2138 9.21075C19.0356 10.5747 19.0838 11.9294 19.3952 13.2711C19.4616 13.5565 19.4652 13.5618 19.1956 13.6703C18.6948 13.8719 18.4701 14.2108 18.5498 14.6804C18.5786 14.8508 18.617 15.0375 18.7114 15.1751C18.9389 15.5063 18.9765 15.8662 18.9867 16.2508C19 16.7622 19.0114 17.2792 19.0952 17.782C19.2393 18.6452 19.7243 19.3359 20.3441 19.9298C20.6733 20.2452 21.0352 20.5261 21.4065 20.8431H21.4073ZM9.82593 17.3294H9.83321C9.83321 19.5622 9.83281 21.795 9.83443 24.0282C9.83443 24.1419 9.83726 24.2601 9.86601 24.3686C9.9656 24.7439 10.2676 24.9464 10.7336 24.9472C12.0826 24.9504 13.432 24.9492 14.781 24.9488C14.8482 24.9488 14.9162 24.9468 14.9826 24.9371C15.1271 24.9156 15.2239 24.8326 15.219 24.6828C15.2138 24.5302 15.1227 24.4354 14.9644 24.4209C14.9109 24.416 14.8567 24.4164 14.8029 24.4168C13.9057 24.4201 13.0085 24.4241 12.1114 24.4269C11.666 24.4282 11.2211 24.4274 10.7757 24.4269C10.4628 24.4269 10.3607 24.3294 10.3514 24.0241C10.3498 23.9767 10.3494 23.9298 10.3494 23.8824C10.3506 20.0103 10.3535 16.1383 10.3502 12.2662C10.3502 12.0788 10.4073 12.0302 10.5919 12.0302C13.0543 12.0342 15.5162 12.0302 17.9786 12.0278C18.0526 12.0278 18.1401 12.0488 18.198 12.0172C18.283 11.9707 18.3952 11.8929 18.4065 11.8156C18.4182 11.7363 18.3356 11.6286 18.2688 11.5577C18.2324 11.5188 18.1429 11.5197 18.0769 11.5197C16.5725 11.5197 15.0684 11.5225 13.564 11.5229C12.5522 11.5229 11.5405 11.5201 10.5284 11.5197C10.4377 11.5197 10.3478 11.5326 10.3486 11.3958C10.3502 11.1193 10.3413 10.8427 10.3462 10.5662C10.349 10.4095 10.445 10.318 10.5972 10.297C10.6899 10.2844 10.7854 10.2881 10.8798 10.2881C13.2948 10.2897 15.7097 10.2925 18.1247 10.2937C18.3526 10.2937 18.4563 10.2095 18.4587 10.0342C18.4616 9.86014 18.3547 9.77067 18.128 9.77108C15.5984 9.77229 13.0684 9.77431 10.5389 9.77958C10.4482 9.77958 10.3494 9.80063 10.2684 9.84031C9.96034 9.99172 9.82309 10.2448 9.8235 10.5905C9.82714 12.8367 9.82552 15.0832 9.82552 17.3298L9.82593 17.3294ZM17.7446 34.7269C17.7446 34.7326 17.7446 34.7379 17.7446 34.7435C16.9486 34.7435 16.1526 34.7407 15.3567 34.7452C15.1029 34.7468 15.0433 34.8035 15.0425 35.0342C15.0385 36.1136 15.0397 37.1929 15.0377 38.2723C15.0377 38.4529 15.1203 38.5512 15.302 38.5541C15.5178 38.5577 15.7336 38.5557 15.9494 38.5565C16.2652 38.5577 16.3296 38.4909 16.3275 38.1804C16.3227 37.4654 16.3247 36.75 16.315 36.035C16.313 35.8731 16.3599 35.801 16.53 35.8059C16.7118 35.8116 16.8939 35.7913 17.0757 35.7917C17.3826 35.7925 17.4559 35.8711 17.4563 36.1767C17.4575 36.8715 17.4583 37.5666 17.4611 38.2614C17.4624 38.5006 17.5077 38.5508 17.7413 38.5561C17.9636 38.561 18.1867 38.5593 18.4089 38.552C18.6729 38.5435 18.7352 38.4715 18.7348 38.2047C18.7332 37.4759 18.7352 36.7476 18.7292 36.0188C18.728 35.8699 18.7656 35.7909 18.9312 35.7962C19.1332 35.8022 19.336 35.782 19.5377 35.7925C19.7871 35.8055 19.8636 35.9002 19.8632 36.1512C19.862 36.8597 19.8648 37.5678 19.8575 38.2763C19.8559 38.4549 19.928 38.5468 20.1004 38.5512C20.3632 38.5585 20.6263 38.5654 20.8887 38.5545C21.0328 38.5484 21.1522 38.4792 21.1514 38.3063C21.147 37.4091 21.1514 36.512 21.1308 35.6152C21.1227 35.2601 20.9441 34.9755 20.5984 34.8492C20.4061 34.7792 20.1939 34.7354 19.9899 34.7318C19.2413 34.718 18.4923 34.7265 17.7437 34.7265L17.7446 34.7269ZM22.0251 37.2593H22.0296C22.0296 38.0209 22.0292 38.7824 22.0296 39.5439C22.0296 39.7937 22.0879 39.8533 22.3409 39.8569C22.5632 39.8601 22.7858 39.8646 23.0081 39.8553C23.2203 39.8464 23.2952 39.7553 23.2927 39.5484C23.2899 39.3063 23.2863 39.0638 23.2907 38.8213C23.2956 38.548 23.2992 38.5533 23.5834 38.5516C24.0004 38.5492 24.4199 38.5658 24.8336 38.5249C25.2952 38.4792 25.6259 38.1488 25.6458 37.684C25.6761 36.9792 25.6522 36.2715 25.6474 35.5654C25.647 35.5002 25.6243 35.4326 25.5992 35.3711C25.4081 34.8974 25.0077 34.7395 24.547 34.7298C23.8061 34.714 23.0644 34.7286 22.3231 34.7367C22.0721 34.7395 22.0259 34.7954 22.0251 35.0561C22.0239 35.7909 22.0247 36.5253 22.0247 37.2601L22.0251 37.2593ZM42.0603 35.9646C42.0636 35.9646 42.0668 35.9646 42.0701 35.9646C42.0701 36.7265 42.068 37.4885 42.0713 38.2504C42.0721 38.4929 42.128 38.5464 42.3697 38.5537C42.5583 38.5597 42.7474 38.5593 42.936 38.5601C43.2891 38.5622 43.3292 38.5237 43.3284 38.169C43.3267 37.4545 43.3267 36.7395 43.317 36.0249C43.3146 35.8577 43.3737 35.795 43.5377 35.7986C43.7259 35.8027 43.915 35.782 44.1037 35.7861C44.4413 35.7933 44.4891 35.846 44.4891 36.1784C44.4891 36.8796 44.4907 37.5808 44.4862 38.282C44.485 38.4516 44.5425 38.5614 44.7223 38.5638C44.9717 38.5674 45.2215 38.5686 45.4705 38.5553C45.6883 38.544 45.7466 38.4695 45.7466 38.2423C45.747 37.4468 45.7474 36.6512 45.7458 35.8553C45.7441 35.1099 45.3401 34.7095 44.5915 34.7103C44.2543 34.7103 43.917 34.7087 43.5802 34.7188C43.4045 34.7241 43.3219 34.6739 43.332 34.4792C43.3466 34.197 43.336 33.9132 43.336 33.6302C43.336 33.4484 43.2458 33.3549 43.0632 33.3549C42.8405 33.3549 42.6182 33.3549 42.3956 33.3569C42.1385 33.3593 42.0603 33.4407 42.0603 33.699C42.0603 34.4541 42.0603 35.2095 42.0603 35.9646ZM36.2587 38.5427C36.2587 38.55 36.2587 38.5577 36.2587 38.565C36.4948 38.565 36.7308 38.5634 36.9672 38.565C37.566 38.5699 37.6745 38.5715 37.6199 37.8812C37.6 37.633 37.5292 37.5585 37.283 37.5585C36.8446 37.5585 36.4061 37.5589 35.9676 37.5569C35.8397 37.5565 35.7085 37.5642 35.5846 37.5395C35.4045 37.5031 35.366 37.3533 35.3769 37.1954C35.3883 37.0306 35.5271 37.0897 35.613 37.0893C36.1729 37.0861 36.7328 37.0946 37.2927 37.0933C37.5692 37.0929 37.6838 36.9755 37.6854 36.697C37.6871 36.3666 37.6935 36.0354 37.6757 35.7059C37.6466 35.178 37.3688 34.814 36.847 34.7674C36.2194 34.7116 35.581 34.718 34.9518 34.7622C34.4875 34.7946 34.1798 35.0937 34.149 35.5585C34.1028 36.2561 34.0952 36.9622 34.1531 37.6581C34.1996 38.2205 34.517 38.4832 35.0871 38.5354C35.4745 38.5711 35.868 38.5423 36.2591 38.5423L36.2587 38.5427ZM14.1806 36.6691C14.1782 36.6691 14.1757 36.6691 14.1733 36.6691C14.1733 36.3456 14.1903 36.0209 14.1692 35.6986C14.1365 35.1865 13.8466 34.8286 13.3397 34.7804C12.7316 34.7225 12.1134 34.7063 11.5045 34.7464C10.9259 34.7844 10.5535 35.1581 10.5312 35.6776C10.5033 36.3302 10.5101 36.9861 10.5389 37.6391C10.5591 38.1027 10.9061 38.4877 11.368 38.5172C12.0174 38.5593 12.6737 38.5654 13.3227 38.5197C13.8421 38.4832 14.1514 38.1002 14.1778 37.5796C14.1931 37.2767 14.1806 36.9727 14.1806 36.6695V36.6691ZM6.16479 36.0771C6.16479 36.0771 6.16682 36.0771 6.16803 36.0771C6.16803 36.4954 6.15629 36.914 6.17046 37.3318C6.19637 38.0804 6.67087 38.5537 7.415 38.5654C8.08261 38.5759 8.75062 38.5654 9.41823 38.5561C9.74779 38.5516 9.82917 38.4557 9.82431 38.1213C9.82309 38.0403 9.82431 37.9593 9.82471 37.8784C9.82552 37.5095 9.7733 37.4589 9.40245 37.4605C8.90326 37.463 8.40406 37.4691 7.90487 37.4634C7.60528 37.4597 7.43443 37.3237 7.43038 37.0792C7.41945 36.3982 7.41904 35.7168 7.41824 35.0354C7.41824 34.8354 7.532 34.7249 7.72269 34.6942C7.82188 34.678 7.9239 34.6699 8.02431 34.6707C8.4899 34.6751 8.95508 34.6861 9.42066 34.6905C9.69597 34.6933 9.78585 34.6051 9.79354 34.3314C9.79759 34.1832 9.79678 34.0346 9.79435 33.8861C9.7903 33.6342 9.7324 33.5723 9.48504 33.5723C8.81702 33.5723 8.14941 33.5711 7.48139 33.5804C6.67451 33.5913 6.17532 34.0954 6.16479 34.9031C6.15953 35.2942 6.16398 35.6856 6.16398 36.0767L6.16479 36.0771ZM37.9923 14.9322H37.9948C37.9948 13.4751 37.9952 12.018 37.9948 10.561C37.9948 10.0869 37.6814 9.77269 37.2138 9.77269C35.7769 9.77269 34.3401 9.77269 32.9033 9.77269C32.8292 9.77269 32.7409 9.75367 32.6842 9.78646C32.5992 9.83545 32.4964 9.91359 32.4769 9.99699C32.4616 10.0638 32.5421 10.178 32.6109 10.2322C32.6713 10.28 32.7737 10.2885 32.8579 10.2901C33.1142 10.2958 33.3705 10.2881 33.6267 10.2881C34.7668 10.2885 35.9069 10.2893 37.0466 10.2909C37.4211 10.2913 37.4721 10.3423 37.4741 10.7063C37.4753 10.8954 37.4611 11.0852 37.479 11.2727C37.4976 11.4711 37.4255 11.5221 37.2328 11.5213C35.796 11.5152 34.3591 11.5193 32.9223 11.5221C32.8425 11.5221 32.7381 11.5099 32.6883 11.5533C32.613 11.6184 32.532 11.729 32.5352 11.8172C32.5377 11.8893 32.6482 11.98 32.7312 12.0205C32.8028 12.0557 32.9028 12.0342 32.9907 12.0338C34.4142 12.0318 35.8373 12.0314 37.2607 12.0233C37.4288 12.0225 37.4773 12.0739 37.4765 12.2419C37.4688 13.7529 37.4701 15.2638 37.4684 16.7747C37.4676 17.6516 37.4684 18.5286 37.4648 19.4055C37.464 19.5739 37.5263 19.6808 37.6992 19.699C37.8494 19.7148 37.9696 19.5982 37.9887 19.4241C37.9948 19.3707 37.9919 19.3164 37.9919 19.2626C37.9919 17.8188 37.9919 16.3755 37.9919 14.9318L37.9923 14.9322ZM32.7721 38.5942L32.7729 38.5804C32.8603 38.5804 32.9482 38.5816 33.0356 38.5804C33.1231 38.5788 33.2118 38.5804 33.298 38.5686C33.4737 38.5452 33.5806 38.4529 33.5794 38.2626C33.5782 38.1209 33.583 37.9792 33.5794 37.8379C33.5733 37.616 33.5081 37.5541 33.2822 37.5512C33.1676 37.5496 33.0531 37.5593 32.9385 37.5557C32.7154 37.5484 32.6279 37.4703 32.6247 37.2508C32.6178 36.8128 32.6247 36.3743 32.6194 35.9363C32.6178 35.8006 32.6798 35.7605 32.8045 35.763C32.9863 35.7662 33.1684 35.7573 33.3506 35.7565C33.5073 35.7561 33.5903 35.6844 33.5895 35.5241C33.5887 35.3488 33.5867 35.1735 33.5883 34.9982C33.5899 34.8269 33.4984 34.7557 33.3369 34.7525C33.1551 34.7488 32.9729 34.7411 32.7911 34.7399C32.6729 34.7391 32.6211 34.6877 32.6223 34.5678C32.6239 34.3861 32.6162 34.2039 32.6118 34.0217C32.6085 33.8824 32.5365 33.8091 32.3972 33.8095C32.1344 33.8103 31.8713 33.8116 31.6085 33.8176C31.4243 33.8217 31.3433 33.9265 31.3474 34.1055C31.351 34.2674 31.3526 34.429 31.3571 34.5909C31.3599 34.6958 31.3247 34.7541 31.2061 34.7529C30.7166 34.7484 30.7247 34.752 30.7243 35.2784C30.7243 35.3257 30.7259 35.3727 30.7275 35.4201C30.7393 35.7371 30.7514 35.7496 31.0624 35.7581C31.3786 35.7666 31.3749 35.7666 31.3761 36.0925C31.379 36.6452 31.3676 37.1986 31.3988 37.75C31.4235 38.1925 31.7089 38.4771 32.1486 38.5476C32.3539 38.5808 32.5644 38.5796 32.7721 38.5942ZM40.2891 34.7221C40.2891 34.7152 40.2883 34.7083 40.2879 34.7014C39.932 34.7217 39.5717 34.7152 39.2207 34.7682C38.7377 34.8411 38.4069 35.2087 38.3891 35.699C38.3664 36.3184 38.3632 36.9407 38.3919 37.5597C38.4174 38.1168 38.7405 38.4869 39.2895 38.5334C39.898 38.5848 40.5138 38.5545 41.1267 38.55C41.2976 38.5488 41.3745 38.4338 41.3733 38.2662C41.3721 38.1314 41.3737 37.9962 41.3692 37.8618C41.3603 37.601 41.302 37.5464 41.036 37.5456C40.6854 37.5448 40.3344 37.5456 39.9838 37.5439C39.834 37.5431 39.6636 37.5116 39.653 37.3452C39.6251 36.9095 39.6211 36.4711 39.6385 36.035C39.6417 35.9549 39.779 35.8504 39.8765 35.8112C39.9834 35.7678 40.1154 35.7816 40.2365 35.78C40.5397 35.7759 40.8433 35.7763 41.1466 35.7771C41.3065 35.7776 41.3818 35.7018 41.3781 35.5415C41.3741 35.3662 41.3757 35.1909 41.3717 35.0156C41.3668 34.7958 41.3016 34.7269 41.0786 34.7229C40.8154 34.7176 40.5526 34.7217 40.2895 34.7217L40.2891 34.7221ZM26.4559 35.7448H26.464C26.464 36.4456 26.4575 37.1464 26.4664 37.8472C26.4713 38.2359 26.6834 38.4925 27.0664 38.5411C27.3786 38.5804 27.698 38.5755 28.0134 38.5682C28.3029 38.5614 28.3409 38.5095 28.3502 38.2128C28.3539 38.0917 28.349 37.9707 28.347 37.8496C28.3446 37.7095 28.2692 37.6306 28.1324 37.6383C27.7806 37.6573 27.7259 37.4974 27.7275 37.1905C27.7332 36.018 27.7284 34.8452 27.7267 33.6727C27.7267 33.4209 27.6648 33.3569 27.4207 33.3545C27.2118 33.3525 27.0029 33.352 26.7939 33.3533C26.5109 33.3553 26.4559 33.4128 26.4555 33.7031C26.4551 34.3836 26.4555 35.0642 26.4555 35.7452L26.4559 35.7448ZM21.1939 42.216C20.9073 41.6897 20.6356 41.2318 20.4065 40.7533C20.2879 40.5059 20.1381 40.4209 19.8753 40.4419C19.6992 40.4557 19.6231 40.5051 19.6251 40.6913C19.6328 41.5614 19.6377 42.4318 19.6292 43.3018C19.6267 43.529 19.7381 43.5541 19.917 43.5488C20.1753 43.5411 20.1883 43.5363 20.1903 43.295C20.1948 42.8027 20.1972 42.3103 20.2028 41.8176C20.2037 41.7525 20.2178 41.6877 20.2255 41.6229C20.296 41.661 20.3207 41.6982 20.3425 41.7371C20.5381 42.082 20.7194 42.4363 20.9328 42.7699C21.1211 43.0638 21.3745 43.0375 21.5352 42.7294C21.6352 42.5383 21.7308 42.3452 21.832 42.1545C21.9336 41.963 22.0393 41.7739 22.1433 41.584C22.1603 41.5889 22.1777 41.5937 22.1948 41.5986C22.1984 41.6695 22.2049 41.7399 22.2049 41.8108C22.2049 42.3099 22.2093 42.8091 22.1992 43.3083C22.1956 43.4954 22.2652 43.5699 22.4474 43.5508C22.5008 43.5452 22.5551 43.5476 22.6093 43.5484C22.7158 43.5504 22.7721 43.5063 22.7721 43.3933C22.7733 42.4828 22.7782 41.5719 22.7753 40.6614C22.7753 40.6035 22.7369 40.5241 22.6903 40.4913C22.5186 40.3695 22.1429 40.4638 22.0421 40.6537C21.8373 41.0403 21.6433 41.4326 21.4397 41.8197C21.3761 41.9407 21.2956 42.0533 21.1943 42.216H21.1939ZM13.5247 13.3642C13.5247 13.3642 13.5247 13.367 13.5247 13.3686C13.1405 13.3686 12.7559 13.3646 12.3717 13.3699C12.1134 13.3735 11.9595 13.5387 11.962 13.7946C11.9676 14.3605 11.9737 14.9269 11.9814 15.4929C11.9858 15.8172 12.1535 15.9909 12.4798 15.9958C12.9514 16.0027 13.4235 16.0035 13.8956 16.0014C14.2207 15.9998 14.4393 15.7816 14.447 15.4577C14.4522 15.2286 14.4842 14.9937 14.447 14.7711C14.3765 14.352 14.4822 14.029 14.8312 13.7755C14.8915 13.7314 14.9356 13.5796 14.9053 13.5176C14.8688 13.4435 14.7458 13.3743 14.6575 13.3707C14.2806 13.3549 13.9029 13.3638 13.5251 13.3638L13.5247 13.3642ZM13.5073 17.0958C13.5073 17.1006 13.5073 17.1055 13.5073 17.1099C13.1433 17.1099 12.779 17.1047 12.415 17.1116C12.1446 17.1168 12.0061 17.2614 12.0057 17.5286C12.0045 18.0881 12.0049 18.648 12.0093 19.2075C12.0114 19.4622 12.1834 19.6504 12.4316 19.6545C12.9506 19.6626 13.4701 19.665 13.9891 19.6557C14.2887 19.65 14.4733 19.4468 14.4769 19.1484C14.4798 18.9059 14.4943 18.6614 14.4721 18.4205C14.4393 18.0666 14.4899 17.761 14.7858 17.5197C14.8482 17.4691 14.8879 17.3055 14.8522 17.2423C14.8093 17.1662 14.6761 17.1063 14.5794 17.1018C14.2227 17.0857 13.8652 17.0954 13.5077 17.0954L13.5073 17.0958ZM28.8522 36.6488H28.8531C28.8531 37.1885 28.8611 37.7282 28.849 38.2674C28.8445 38.4642 28.9352 38.546 29.1057 38.5529C29.3547 38.5626 29.6045 38.5593 29.8535 38.5516C30.0462 38.5456 30.1178 38.4318 30.1142 38.2431C30.1065 37.8318 30.1077 37.4201 30.1097 37.0087C30.113 36.3678 30.1211 35.7269 30.1239 35.0865C30.1251 34.8383 30.0676 34.7763 29.8365 34.7723C29.6275 34.7686 29.4182 34.7703 29.2093 34.7743C28.868 34.7808 28.8522 34.7982 28.8526 35.131C28.8526 35.6371 28.8526 36.1427 28.8526 36.6488H28.8522ZM25.0531 40.4759C24.8227 40.4225 24.7016 40.5306 24.632 40.7427C24.5352 41.0367 24.4231 41.3253 24.3138 41.6148C24.0976 42.1877 23.8765 42.7589 23.6644 43.333C23.6429 43.3913 23.6381 43.4978 23.6725 43.5278C23.8073 43.646 24.1923 43.5403 24.2595 43.3824C24.3401 43.1933 24.3745 42.9314 24.5182 42.8375C24.6668 42.7403 24.9223 42.8031 25.1308 42.8027C25.6547 42.801 25.6672 42.7978 25.8409 43.2836C25.9162 43.4946 26.0292 43.5642 26.2409 43.5512C26.4907 43.5359 26.5377 43.478 26.4462 43.2423C26.1259 42.414 25.8024 41.5869 25.4871 40.7565C25.4077 40.5472 25.2952 40.4168 25.0526 40.4755L25.0531 40.4759ZM30.1182 41.9946C30.1247 41.9946 30.1308 41.9946 30.1373 41.9946C30.1373 42.4395 30.1425 42.8844 30.1344 43.3294C30.1316 43.4958 30.1927 43.5553 30.3575 43.5545C30.917 43.5516 31.4765 43.5537 32.036 43.565C32.232 43.5691 32.2741 43.4743 32.2717 43.3055C32.2692 43.1383 32.23 43.0407 32.0308 43.0472C31.647 43.0597 31.2624 43.0496 30.8782 43.0541C30.7551 43.0553 30.6883 43.0221 30.696 42.882C30.7049 42.714 30.7024 42.5448 30.696 42.3767C30.6911 42.2435 30.749 42.2002 30.8773 42.2027C31.1806 42.2083 31.4842 42.1994 31.7875 42.2047C31.9733 42.2079 31.9668 42.0804 31.9709 41.9581C31.9749 41.8318 31.9729 41.7071 31.7915 41.7083C31.5895 41.7095 31.3871 41.7067 31.185 41.7014C30.7004 41.6893 30.7073 41.6881 30.7033 41.197C30.702 41.0274 30.7547 40.9771 30.9227 40.9824C31.2931 40.9942 31.664 40.9861 32.0348 40.9848C32.247 40.984 32.236 40.8338 32.2348 40.6865C32.234 40.5431 32.2097 40.4439 32.0239 40.4476C31.4782 40.4577 30.932 40.4504 30.3858 40.4549C30.1332 40.4569 30.1174 40.4804 30.1178 40.7407C30.119 41.1585 30.1178 41.5767 30.1178 41.9946H30.1182ZM12.0089 21.8759C12.013 21.8759 12.0166 21.8759 12.0207 21.8759C12.0207 22.1253 12.0199 22.3743 12.0207 22.6237C12.0223 22.9776 12.2 23.1593 12.5531 23.1626C12.964 23.1662 13.3749 23.1654 13.7854 23.1666C14.1984 23.1682 14.3935 22.9776 14.3952 22.5662C14.3972 22.1152 14.3931 21.6638 14.3976 21.2128C14.4008 20.9018 14.2215 20.6699 13.9101 20.6589C13.4259 20.6415 12.9405 20.6444 12.4559 20.6589C12.1672 20.6674 12.0101 20.8577 12.0085 21.1488C12.0069 21.3913 12.0085 21.6338 12.0085 21.8763L12.0089 21.8759ZM27.8069 42.2387H27.8053C27.8053 42.6027 27.8008 42.9666 27.8089 43.3306C27.8105 43.3998 27.8425 43.5063 27.8919 43.5298C28.1729 43.6626 28.3875 43.5164 28.3871 43.2075C28.3863 42.5334 28.3895 41.8593 28.3798 41.1856C28.3773 41.0136 28.434 40.961 28.6 40.9731C28.7741 40.9856 28.9502 40.9776 29.1251 40.9711C29.3271 40.9634 29.3029 40.8144 29.3037 40.6776C29.3045 40.5391 29.2765 40.4383 29.1069 40.4403C28.4397 40.448 27.7725 40.4537 27.1053 40.4565C26.9393 40.4573 26.9033 40.548 26.9061 40.6913C26.9089 40.8322 26.9004 40.9711 27.0992 40.9735C27.2409 40.9751 27.3822 40.9776 27.5239 40.978C27.8045 40.9796 27.8053 40.9792 27.8061 41.2488C27.8069 41.5792 27.8061 41.9095 27.8061 42.2395L27.8069 42.2387ZM16.6041 21.7646V21.7686C17.102 21.7686 17.6 21.7711 18.0984 21.7674C18.3041 21.7662 18.4053 21.6723 18.3943 21.497C18.3834 21.3188 18.2814 21.2346 18.1028 21.235C17.1203 21.2359 16.1377 21.2338 15.1551 21.2359C14.9275 21.2363 14.8199 21.3286 14.8247 21.4994C14.8304 21.6848 14.9215 21.7626 15.1506 21.7638C15.6352 21.7662 16.1199 21.7646 16.6045 21.7646H16.6041ZM16.5563 14.0326C16.5563 14.0326 16.5563 14.0306 16.5563 14.0294C16.1381 14.0294 15.7199 14.0257 15.3016 14.031C15.0883 14.0334 14.9895 14.1245 14.9919 14.2921C14.9943 14.4581 15.1 14.5614 15.3033 14.563C16.1195 14.5691 16.9356 14.5703 17.7522 14.5674C17.9522 14.5666 18.0692 14.4545 18.0636 14.2986C18.0575 14.1302 17.9506 14.0354 17.751 14.0338C17.3531 14.031 16.9551 14.033 16.5567 14.033L16.5563 14.0326ZM34.0741 19.0047V19.0083C34.4316 19.0083 34.7887 19.0091 35.1462 19.0083C35.3757 19.0075 35.502 18.9128 35.5069 18.7431C35.5118 18.5751 35.3777 18.4723 35.1526 18.4723C34.4717 18.4723 33.7907 18.4727 33.1097 18.4747C33.0154 18.4747 32.9199 18.4747 32.8275 18.4913C32.6397 18.5245 32.5429 18.6962 32.6437 18.8512C32.6927 18.9265 32.8118 18.995 32.9016 18.9986C33.2919 19.0144 33.6834 19.0055 34.0745 19.0055L34.0741 19.0047ZM16.3425 17.6715C16.3425 17.6743 16.3425 17.6771 16.3425 17.6796C15.9725 17.6796 15.6024 17.6759 15.2328 17.6816C15.0879 17.6836 14.9907 17.7549 14.9871 17.9164C14.9838 18.0682 15.0575 18.1577 15.2041 18.1848C15.283 18.1994 15.364 18.2103 15.4441 18.2108C16.0697 18.2144 16.6956 18.2172 17.3211 18.2156C17.5393 18.2152 17.6486 18.1201 17.6526 17.9472C17.6567 17.7646 17.5458 17.6731 17.3114 17.6719C16.9883 17.6703 16.6656 17.6715 16.3425 17.6715ZM29.5085 33.2905V33.2885C29.3672 33.2885 29.2263 33.2877 29.085 33.2885C28.9352 33.2893 28.8377 33.3593 28.8292 33.5132C28.8178 33.714 28.8109 33.916 28.8186 34.1172C28.8239 34.2561 28.9126 34.3391 29.0559 34.3419C29.3446 34.3472 29.6336 34.3476 29.9227 34.3492C30.0595 34.35 30.1413 34.2767 30.1543 34.146C30.1709 33.9727 30.1818 33.7978 30.1773 33.6237C30.1705 33.3638 30.0927 33.295 29.832 33.2905C29.7243 33.2889 29.617 33.2905 29.5093 33.2905H29.5085ZM15.8227 22.7184C15.8227 22.7184 15.8227 22.7213 15.8227 22.7225C16.0178 22.7225 16.213 22.7269 16.4081 22.7205C16.4935 22.7176 16.6 22.718 16.6571 22.6699C16.728 22.6099 16.8024 22.4946 16.7915 22.4156C16.7802 22.3359 16.6672 22.212 16.5952 22.2091C16.0782 22.1897 15.5603 22.1873 15.0433 22.2047C14.9628 22.2075 14.834 22.3322 14.8235 22.4128C14.813 22.4925 14.9118 22.6018 14.9875 22.6715C15.0332 22.7136 15.1255 22.7148 15.1972 22.7168C15.4057 22.7221 15.6142 22.7188 15.8231 22.7188L15.8227 22.7184ZM15.7794 19.1387C15.7794 19.1338 15.7798 19.1294 15.7802 19.1245C15.9284 19.1245 16.0777 19.1346 16.2251 19.1217C16.3717 19.1087 16.4802 19.0257 16.4988 18.8711C16.5158 18.7318 16.4421 18.6132 16.3081 18.6055C15.9599 18.5861 15.6089 18.5788 15.262 18.6035C15.1826 18.6091 15.0761 18.7525 15.0498 18.8504C15.0134 18.9857 15.1219 19.0763 15.2571 19.0946C15.43 19.1176 15.6053 19.1245 15.7794 19.1387ZM15.6356 15.4654C15.6365 15.4703 15.6377 15.4747 15.6385 15.4796C15.8028 15.4581 15.9745 15.4577 16.1292 15.4059C16.1988 15.3824 16.2798 15.2516 16.2721 15.1784C16.2632 15.0933 16.1692 14.9565 16.1 14.9488C15.802 14.9152 15.4996 14.9071 15.1996 14.918C15.0547 14.9233 14.9919 15.0448 14.9948 15.1946C14.9976 15.3431 15.0802 15.4205 15.2138 15.4391C15.3531 15.4585 15.4952 15.4577 15.6356 15.4658V15.4654ZM11.4943 10.8601C11.4308 10.814 11.3462 10.7164 11.2417 10.6852C11.1207 10.6488 10.9899 10.8043 10.9943 10.9423C11 11.1051 11.1089 11.1739 11.2474 11.1723C11.3899 11.1703 11.4842 11.0852 11.4943 10.8605V10.8601ZM12.0551 10.8472C12.0773 11.0529 12.1555 11.1751 12.2956 11.1525C12.3842 11.1383 12.4907 11.0229 12.5243 10.9294C12.5668 10.8095 12.4049 10.6399 12.2899 10.6755C12.1927 10.7055 12.1158 10.8002 12.0555 10.8468L12.0551 10.8472Z" fill="white"/>
<path d="M21.4073 20.8431C21.036 20.5257 20.6741 20.2447 20.3449 19.9297C19.7251 19.3362 19.2397 18.6455 19.096 17.782C19.0121 17.2791 19.0008 16.7621 18.9875 16.2508C18.9773 15.8662 18.9393 15.5063 18.7121 15.1751C18.6178 15.0374 18.5794 14.8508 18.5506 14.6803C18.4713 14.2111 18.6955 13.8718 19.1964 13.6702C19.466 13.5617 19.4624 13.5565 19.396 13.271C19.0846 11.9289 19.0364 10.5747 19.2146 9.21071C19.2267 9.11759 19.2498 9.02448 19.279 8.93541C19.3656 8.67104 19.5304 8.53946 19.7955 8.58885C21.034 8.82124 22.1729 9.24796 22.9607 10.3099C23.0449 10.4233 23.1263 10.4176 23.2381 10.3795C24.1737 10.0593 25.1413 9.98561 26.1142 10.0856C26.6526 10.1411 27.1826 10.2917 27.7121 10.4176C27.853 10.4512 27.9223 10.4382 28.0089 10.3152C28.4761 9.65403 29.1231 9.22731 29.8749 8.95889C30.2543 8.82326 30.6458 8.71759 31.0368 8.61962C31.417 8.52448 31.6227 8.66496 31.6988 9.06172C31.747 9.31274 31.7798 9.5678 31.7964 9.82286C31.8761 11.0382 31.7364 12.2334 31.4405 13.4115C31.4113 13.5281 31.4158 13.5941 31.5449 13.6123C31.5514 13.6131 31.5579 13.6164 31.564 13.6188C32.3401 13.9196 32.5267 14.2552 32.1575 15.1269C31.9579 15.5978 31.868 16.0561 31.8559 16.5447C31.8413 17.1407 31.8085 17.731 31.602 18.2974C31.2794 19.1836 30.6636 19.8419 29.9458 20.4192C29.7696 20.5609 29.5838 20.6909 29.3737 20.848C29.8676 21.0735 30.3279 21.284 30.8138 21.5063C30.8364 21.3864 30.8538 21.2755 30.8785 21.1662C31.0417 20.4378 31.3267 20.2974 31.8704 20.2965C34.2522 20.2921 36.634 20.288 39.0162 20.2828C39.6101 20.2816 40.2053 20.3034 40.7972 20.2674C41.5377 20.2225 42.1717 20.8038 41.9571 21.72C41.6636 22.9727 41.4069 24.2338 41.1368 25.4921C40.9433 26.3945 40.7591 27.299 40.5603 28.2002C40.5045 28.4528 40.4547 28.7216 40.3283 28.9411C40.1178 29.3067 39.7672 29.4589 39.336 29.4366C38.9951 29.4192 38.653 29.433 38.2737 29.433C38.4502 29.9277 38.5478 30.403 38.3085 30.9083C38.4105 30.92 38.4866 30.9366 38.5628 30.9366C39.6356 30.9382 40.7085 30.9395 41.781 30.9366C42.0684 30.9358 42.2073 31.0115 42.2073 31.188C42.2073 31.367 42.0717 31.4536 41.7866 31.4536C35.7478 31.452 29.7085 31.4484 23.6696 31.4488C19.1016 31.4492 14.5336 31.4552 9.96559 31.4573C9.89231 31.4573 9.79393 31.4686 9.75102 31.4281C9.67652 31.3577 9.59231 31.2496 9.59555 31.1605C9.59798 31.0897 9.71903 30.9751 9.79879 30.9646C10.0178 30.9354 10.2429 30.9492 10.4652 30.9488C12.2194 30.9451 13.9737 30.9423 15.7283 30.9395C15.8413 30.9395 15.9547 30.9395 16.0514 30.9395C16.0737 30.8982 16.0875 30.8848 16.085 30.8751C15.8862 30.0241 16.2672 29.4038 16.9032 28.9115C18.066 28.0115 19.9907 28.1091 21.0364 29.1148C21.4405 29.503 21.7474 29.95 21.6696 30.5557C21.6555 30.6662 21.6162 30.7735 21.5814 30.9099C21.6652 30.9168 21.7352 30.9273 21.8057 30.9273C25.1053 30.9257 28.4045 30.9216 31.7041 30.9237C31.8943 30.9237 32.0215 30.8629 32.1215 30.7042C32.2219 30.5447 32.3393 30.3961 32.4498 30.2431C32.5599 30.0909 32.7057 30.0115 32.8972 30.0107C33.5045 30.0083 34.1117 29.9998 34.719 29.999C34.9247 29.999 35.0348 30.099 35.034 30.2621C35.0332 30.4212 34.9227 30.5083 34.7077 30.5087C34.1947 30.5103 33.6822 30.5087 33.1692 30.5087C32.8413 30.5087 32.7587 30.5678 32.6154 30.9277C32.7292 30.9277 32.832 30.9277 32.9348 30.9277C33.6498 30.9305 34.3652 30.9338 35.0802 30.9354C35.4478 30.9362 35.7372 30.5775 35.6352 30.1897C35.5126 29.7225 35.3494 29.265 35.187 28.8095C34.9996 28.2832 34.7911 27.7637 34.5968 27.2399C34.502 26.9844 34.6619 26.7346 34.9364 26.7289C35.5433 26.716 36.151 26.7087 36.7579 26.7196C37.1085 26.7261 37.3441 26.9156 37.4709 27.2504C37.6636 27.7601 37.8648 28.267 38.0753 28.7694C38.1024 28.8338 38.2069 28.9022 38.2781 28.905C38.6417 28.9192 39.0065 28.9127 39.3709 28.9131C39.7219 28.9135 39.9393 28.7135 40.0158 28.3419C40.281 27.0552 40.5514 25.7698 40.8202 24.484C41.034 23.4617 41.2539 22.4411 41.4587 21.4172C41.5279 21.0706 41.2814 20.7929 40.9247 20.7929C38.0571 20.7909 35.1895 20.7917 32.3215 20.7921C32.2951 20.7921 32.2692 20.799 32.2458 20.8022C32.2389 20.82 32.2259 20.8378 32.2304 20.8439C32.5089 21.2395 32.3802 21.652 32.2903 22.0666C31.9749 23.5216 31.6607 24.9771 31.3526 26.4338C31.1923 27.1921 31.049 27.9536 30.8903 28.7123C30.8506 28.9022 30.9522 28.9115 31.0899 28.9115C32.1425 28.9111 33.1951 28.9123 34.2478 28.9131C34.3219 28.9131 34.3964 28.9095 34.4704 28.9144C34.6579 28.9273 34.7879 29.0557 34.7765 29.2192C34.7636 29.4095 34.6239 29.4411 34.4737 29.4419C34.0822 29.4435 33.6911 29.4374 33.2996 29.437C33.0028 29.437 32.7053 29.4314 32.4093 29.45C32.3259 29.4552 32.2231 29.5188 32.1709 29.5876C32.017 29.7913 31.8794 30.0079 31.7445 30.2253C31.653 30.3735 31.5304 30.4301 31.3583 30.4297C30.319 30.4269 29.2802 30.431 28.2409 30.4314C26.3919 30.4322 24.5433 30.4326 22.6943 30.4314C22.3547 30.4314 22.3664 30.4233 22.2619 30.0945C22.0146 29.3148 21.5255 28.7192 20.8162 28.3196C19.5462 27.6034 18.251 27.5516 16.964 28.2642C16.2061 28.6836 15.6879 29.3127 15.5028 30.1787C15.4619 30.3698 15.3769 30.4548 15.1757 30.4395C14.9947 30.4257 14.8117 30.4423 14.6296 30.4403C14.2992 30.437 14.1603 30.284 14.2101 29.952C14.2692 29.5589 14.3287 29.1646 14.419 28.7779C14.687 27.6297 15.1065 26.5378 15.7215 25.5289C16.8571 23.6662 18.4223 22.2743 20.3814 21.322C20.6717 21.1808 20.9717 21.0589 21.266 20.9265C21.3126 20.9054 21.3547 20.8747 21.4081 20.8431H21.4073ZM20.0162 13.4374C20.0279 13.4431 20.0397 13.454 20.0514 13.454C20.0984 13.4536 20.1462 13.4532 20.1927 13.4463C20.9389 13.3407 21.6842 13.3447 22.4312 13.4419C23.1364 13.5338 23.8235 13.6897 24.4664 14.0026C24.7243 14.1281 24.9757 14.282 25.0692 14.567C25.1292 14.75 25.2186 14.8107 25.3947 14.7921C25.4543 14.7856 25.5202 14.8115 25.5753 14.7953C25.6405 14.7763 25.7328 14.7407 25.7518 14.6893C25.8826 14.3338 26.1421 14.1111 26.4761 13.9706C27.681 13.4642 28.9389 13.301 30.2364 13.4103C30.4328 13.4269 30.6287 13.4508 30.8405 13.4727C30.2417 12.1516 28.0935 10.5439 25.4308 10.5403C23.3202 10.5374 20.3846 12.0998 20.0166 13.4366L20.0162 13.4374ZM31.2 17.9301C31.1794 17.9188 31.1583 17.9071 31.1377 17.8957C30.8283 18.2095 30.4789 18.4528 30.0368 18.5273C29.1073 18.6832 28.1927 18.6022 27.3045 18.3022C26.6733 18.0893 26.2381 17.6662 26.0842 16.9905C25.9709 16.4925 25.8401 15.9982 25.7235 15.501C25.6704 15.2747 25.4931 15.3419 25.3502 15.3281C25.2105 15.3148 25.134 15.3633 25.1049 15.522C25.0162 16.0046 24.9275 16.4888 24.8 16.9621C24.6377 17.5642 24.2838 18.02 23.6826 18.2552C23.1563 18.4609 22.6081 18.5625 22.0478 18.5937C21.432 18.6277 20.8154 18.6237 20.2571 18.3063C20.0522 18.1897 19.8676 18.037 19.664 17.8941C19.6717 17.9265 19.6761 17.9516 19.6838 17.9759C19.9413 18.7905 20.4741 19.4107 21.1162 19.9382C21.9142 20.5937 22.8174 21.071 23.8053 21.3743C24.6668 21.6391 25.5413 21.7346 26.4385 21.5492C27.4785 21.3342 28.4178 20.8994 29.2781 20.288C29.9304 19.8245 30.5231 19.2969 30.9121 18.5816C31.0251 18.3739 31.1049 18.148 31.2 17.9306V17.9301ZM18.8352 30.9305C18.8352 30.9277 18.8352 30.9253 18.8352 30.9225C19.4287 30.9225 20.0223 30.9249 20.6162 30.9216C20.9502 30.9196 21.1506 30.7111 21.1514 30.3739C21.1522 29.971 20.9235 29.6812 20.634 29.4557C19.7976 28.8038 18.8567 28.6427 17.851 28.971C17.2692 29.1609 16.8231 29.5273 16.6138 30.131C16.4413 30.6285 16.6429 30.9289 17.1559 30.9305C17.7158 30.9322 18.2757 30.931 18.8356 30.931L18.8352 30.9305ZM36.0344 30.8775C36.068 30.8937 36.0854 30.9091 36.1032 30.9095C36.5547 30.9192 37.0061 30.9322 37.4575 30.9334C37.6316 30.9338 37.7632 30.8419 37.8445 30.684C37.9733 30.4338 37.9717 30.1633 37.883 29.9164C37.5854 29.0876 37.2624 28.2682 36.953 27.4435C36.9081 27.3241 36.8348 27.2747 36.7113 27.2755C36.2328 27.2775 35.7547 27.2755 35.2761 27.2775C35.2466 27.2775 35.2174 27.2994 35.1939 27.3087C35.4696 28.0569 35.7506 28.7913 36.0089 29.5338C36.1296 29.8808 36.2502 30.2391 36.1263 30.6172C36.098 30.7042 36.0656 30.7897 36.0348 30.8771L36.0344 30.8775ZM28.5441 23.6301C28.1632 23.9079 27.7931 24.1986 27.4016 24.4565C27.0457 24.6913 26.819 24.6455 26.5684 24.303C26.4061 24.0812 26.2684 23.8391 26.1433 23.5941C26.0599 23.431 25.9741 23.4087 25.8624 23.5399C25.8154 23.5953 25.7802 23.6909 25.7907 23.7605C25.8858 24.3795 25.9899 24.9969 26.0968 25.614C26.2397 26.437 26.387 27.2589 26.5344 28.0812C26.5437 28.1338 26.5717 28.1828 26.596 28.2455C27.2437 27.6237 28.6109 24.3233 28.5441 23.6306V23.6301ZM22.2543 23.5747C22.7166 25.2467 23.3292 26.8095 24.3441 28.2637C24.3838 28.0832 24.417 27.9629 24.4364 27.8403C24.5287 27.2617 24.6198 26.6832 24.7065 26.1038C24.8194 25.3516 24.9227 24.5978 25.0421 23.8467C25.0729 23.6528 24.9964 23.5597 24.8146 23.4957C24.7802 23.5548 24.751 23.614 24.7138 23.6674C24.5263 23.937 24.3458 24.2123 24.1441 24.471C23.9939 24.6637 23.781 24.6642 23.5753 24.5678C23.436 24.5026 23.3008 24.4212 23.1798 24.3269C22.8794 24.0933 22.5879 23.8476 22.2543 23.5755V23.5747ZM21.287 13.8552C21.0692 13.8682 20.7624 13.8617 20.4652 13.9111C20.0826 13.9751 19.7045 14.0735 19.3304 14.1783C19.1247 14.2358 19.0154 14.4107 19.0583 14.6168C19.1012 14.8212 19.2012 15.014 19.2765 15.2111C19.3279 15.3459 19.3976 15.4767 19.4292 15.6156C19.5109 15.9759 19.551 16.3476 19.6538 16.7014C19.8709 17.448 20.347 17.9459 21.1409 18.0585C21.8292 18.1561 22.5105 18.0852 23.1826 17.905C23.7903 17.7423 24.1891 17.3787 24.3263 16.7565C24.4348 16.2646 24.532 15.7698 24.6328 15.2759C24.7267 14.8135 24.617 14.5945 24.1858 14.4115C23.2875 14.0301 22.3445 13.8678 21.287 13.8544V13.8552ZM29.5462 13.8561C29.2858 13.8714 29.0283 13.8735 28.7741 13.9038C28.0696 13.9876 27.3753 14.1192 26.7247 14.4172C26.2911 14.6156 26.1425 14.852 26.2223 15.3148C26.3113 15.831 26.432 16.3431 26.5668 16.8496C26.6769 17.2629 26.913 17.5864 27.3352 17.752C28.1243 18.0609 28.9381 18.1654 29.7761 18.0613C29.953 18.0395 30.134 17.9795 30.2935 17.8986C30.9287 17.5767 31.1862 16.9929 31.3304 16.3411C31.4381 15.8552 31.4393 15.3561 31.7312 14.9022C31.9895 14.5006 31.8514 14.267 31.3992 14.1111C30.7972 13.9034 30.168 13.8941 29.5462 13.8565V13.8561ZM29.8239 28.2067C29.8154 28.4577 30.0162 28.7828 30.1794 28.8565C30.2798 28.9018 30.3377 28.8856 30.3587 28.7577C30.415 28.4192 30.4794 28.082 30.5494 27.7459C30.7057 26.9945 30.8684 26.2443 31.0263 25.4929C31.1943 24.6957 31.3603 23.8982 31.5259 23.1006C31.6368 22.5666 31.7587 22.0342 31.8466 21.4961C31.87 21.3536 31.8008 21.1872 31.7437 21.0439C31.7166 20.9751 31.6182 20.9346 31.5522 20.8812C31.5004 20.9544 31.4211 21.0212 31.4016 21.1022C31.1741 22.0581 30.9502 23.0148 30.7356 23.9739C30.5138 24.9662 30.302 25.9605 30.0875 26.9544C29.9923 27.3953 29.9008 27.8366 29.8231 28.2067H29.8239ZM21.9445 21.1532C21.9445 21.4156 21.9336 21.6476 21.9482 21.8779C21.9587 22.0423 21.9571 22.2366 22.0421 22.3625C22.4587 22.9795 22.9538 23.5265 23.5826 23.9415C23.7312 24.0399 23.8409 24.0362 23.9381 23.8868C24.0478 23.718 24.1729 23.5557 24.2591 23.3751C24.4534 22.9674 24.6279 22.55 24.817 22.122C23.819 21.9629 22.8725 21.6548 21.9445 21.1528V21.1532ZM28.9721 21.233C28.9421 21.2144 28.9117 21.1957 28.8818 21.1771C27.985 21.6585 27.0429 22.0059 26.0316 22.1463C26.1583 22.3998 26.2696 22.6212 26.3798 22.8431C26.5348 23.1552 26.6785 23.4735 26.8478 23.7779C27.0028 24.0565 27.0692 24.0629 27.3352 23.8824C27.9032 23.4965 28.3668 23.0026 28.7907 22.4686C28.8113 22.4427 28.8405 22.4144 28.8437 22.3844C28.8887 22.001 28.9296 21.6168 28.9717 21.233H28.9721Z" fill="black"/>
<path d="M9.82594 17.3292C9.82594 15.0827 9.82756 12.8365 9.82391 10.5899C9.82351 10.2442 9.96076 9.99116 10.2689 9.83974C10.3498 9.80006 10.4486 9.77901 10.5393 9.77901C13.0689 9.77375 15.5988 9.77172 18.1284 9.77051C18.3551 9.77051 18.462 9.85958 18.4591 10.0337C18.4563 10.209 18.3531 10.2932 18.1251 10.2932C15.7102 10.292 13.2952 10.2891 10.8802 10.2875C10.7859 10.2875 10.6903 10.2839 10.5976 10.2964C10.4454 10.3171 10.3494 10.409 10.3466 10.5656C10.3417 10.8422 10.3506 11.1187 10.349 11.3952C10.3482 11.532 10.4381 11.5191 10.5288 11.5191C11.5405 11.5195 12.5523 11.5223 13.5644 11.5223C15.0689 11.5219 16.5729 11.5191 18.0774 11.5191C18.1429 11.5191 18.2324 11.5183 18.2693 11.5571C18.3361 11.6284 18.4187 11.7357 18.4069 11.815C18.3956 11.8928 18.2834 11.9705 18.1984 12.0167C18.1405 12.0482 18.0531 12.0272 17.979 12.0272C15.5166 12.0296 13.0547 12.0337 10.5923 12.0296C10.4077 12.0296 10.3506 12.0778 10.3506 12.2656C10.3539 16.1377 10.351 20.0098 10.3498 23.8818C10.3498 23.9292 10.3502 23.9762 10.3519 24.0235C10.3612 24.3288 10.4632 24.426 10.7761 24.4264C11.2215 24.4268 11.6664 24.4276 12.1118 24.4264C13.0089 24.4235 13.9061 24.4195 14.8033 24.4163C14.8571 24.4163 14.9114 24.4154 14.9648 24.4203C15.1235 24.4349 15.2146 24.5296 15.2195 24.6822C15.2247 24.8325 15.128 24.915 14.983 24.9365C14.9166 24.9462 14.8486 24.9482 14.7814 24.9482C13.4324 24.9482 12.083 24.9499 10.734 24.9466C10.268 24.9454 9.96602 24.7434 9.86643 24.3681C9.83768 24.2592 9.83485 24.1414 9.83485 24.0276C9.83323 21.7948 9.83363 19.562 9.83363 17.3288H9.82634L9.82594 17.3292Z" fill="black"/>
<path d="M17.7445 34.727C18.4931 34.727 19.2421 34.7189 19.9907 34.7323C20.1947 34.7359 20.4069 34.7797 20.5992 34.8497C20.9453 34.976 21.1235 35.2606 21.1316 35.6157C21.1518 36.5125 21.1478 37.4096 21.1522 38.3068C21.153 38.4797 21.0336 38.5493 20.8895 38.555C20.6271 38.5659 20.364 38.5586 20.1012 38.5517C19.9287 38.5469 19.8563 38.455 19.8583 38.2768C19.8656 37.5687 19.8627 36.8602 19.864 36.1517C19.8644 35.9003 19.7878 35.8056 19.5385 35.793C19.3368 35.7825 19.134 35.8032 18.932 35.7967C18.7664 35.7914 18.7287 35.8704 18.73 36.0193C18.736 36.7477 18.734 37.4764 18.7356 38.2052C18.736 38.472 18.6737 38.5436 18.4097 38.5525C18.1874 38.5598 17.9644 38.5615 17.7421 38.5566C17.5081 38.5513 17.4627 38.5015 17.4619 38.2619C17.4591 37.5671 17.4583 36.872 17.4571 36.1772C17.4567 35.8716 17.3834 35.793 17.0765 35.7922C16.8943 35.7918 16.7121 35.8121 16.5308 35.8064C16.3607 35.8011 16.3138 35.8732 16.3158 36.0355C16.3255 36.7505 16.3235 37.4655 16.3283 38.1809C16.3304 38.4914 16.266 38.5578 15.9502 38.557C15.7344 38.5562 15.5186 38.5582 15.3028 38.5546C15.121 38.5513 15.038 38.453 15.0385 38.2728C15.0405 37.1934 15.0393 36.1141 15.0433 35.0347C15.0441 34.804 15.104 34.7473 15.3575 34.7457C16.1534 34.7408 16.9494 34.744 17.7453 34.744C17.7453 34.7384 17.7453 34.7331 17.7453 34.7274L17.7445 34.727Z" fill="black"/>
<path d="M22.0251 37.2596C22.0251 36.5248 22.0243 35.7903 22.0255 35.0555C22.0259 34.7948 22.0725 34.7385 22.3235 34.7361C23.0648 34.728 23.8065 34.7134 24.5474 34.7292C25.0081 34.7389 25.4085 34.8972 25.5996 35.3705C25.6243 35.432 25.6474 35.5001 25.6478 35.5648C25.6526 36.2713 25.6765 36.9786 25.6462 37.6835C25.6263 38.1482 25.2956 38.4786 24.834 38.5243C24.4207 38.5652 24.0008 38.549 23.5838 38.5511C23.2996 38.5527 23.296 38.5474 23.2911 38.8207C23.2866 39.0628 23.2903 39.3053 23.2931 39.5478C23.2956 39.7547 23.2207 39.8458 23.0085 39.8547C22.7866 39.864 22.5636 39.8596 22.3413 39.8563C22.0883 39.8527 22.03 39.7936 22.03 39.5434C22.0292 38.7818 22.03 38.0203 22.03 37.2588H22.0255L22.0251 37.2596ZM24.385 36.6559C24.385 36.6559 24.3891 36.6559 24.3911 36.6559C24.3911 36.4806 24.3972 36.3049 24.3895 36.13C24.379 35.8871 24.2846 35.7867 24.0425 35.7721C23.8547 35.7608 23.6652 35.7729 23.4761 35.7729C23.3502 35.7729 23.2956 35.8304 23.2976 35.9596C23.3049 36.4316 23.3081 36.9037 23.3089 37.3758C23.3089 37.4879 23.3559 37.5349 23.4656 37.5337C23.6745 37.5312 23.8838 37.5381 24.0927 37.5312C24.2733 37.5256 24.3838 37.4361 24.3842 37.2426C24.3846 37.047 24.3842 36.8515 24.3842 36.6563L24.385 36.6559Z" fill="black"/>
<path d="M42.0604 35.9647C42.0604 35.2096 42.0604 34.4542 42.0604 33.6991C42.0604 33.4412 42.1385 33.3598 42.3956 33.357C42.6178 33.355 42.8405 33.355 43.0632 33.355C43.2458 33.355 43.3361 33.4485 43.3361 33.6303C43.3361 33.9133 43.3466 34.1971 43.332 34.4793C43.3219 34.6736 43.4045 34.7242 43.5802 34.7189C43.917 34.7092 44.2543 34.7109 44.5915 34.7104C45.3397 34.7096 45.7442 35.11 45.7458 35.8554C45.7474 36.6509 45.747 37.4465 45.7466 38.2424C45.7466 38.4696 45.6883 38.5436 45.4705 38.5554C45.2215 38.5687 44.9717 38.5671 44.7223 38.5639C44.5425 38.5615 44.4851 38.4517 44.4863 38.2821C44.4907 37.5809 44.4887 36.8797 44.4891 36.1785C44.4891 35.8465 44.4417 35.7934 44.1037 35.7862C43.9154 35.7821 43.7264 35.8028 43.5377 35.7987C43.3737 35.7955 43.3146 35.8578 43.317 36.025C43.3268 36.7396 43.3268 37.4546 43.3284 38.1691C43.3292 38.5234 43.2891 38.5619 42.9361 38.5602C42.7474 38.559 42.5583 38.5598 42.3697 38.5538C42.128 38.5461 42.0721 38.493 42.0713 38.2505C42.0685 37.4886 42.0701 36.7266 42.0701 35.9647C42.0668 35.9647 42.0636 35.9647 42.0604 35.9647Z" fill="black"/>
<path d="M36.2587 38.5426C35.868 38.5426 35.4745 38.5713 35.0866 38.5357C34.5162 38.4835 34.1992 38.2203 34.1526 37.6584C34.0951 36.9624 34.1028 36.2563 34.1486 35.5588C34.1793 35.0936 34.487 34.7948 34.9514 34.7624C35.5806 34.7183 36.219 34.7118 36.8466 34.7677C37.3684 34.8142 37.6462 35.1782 37.6753 35.7061C37.6935 36.0357 37.687 36.3669 37.685 36.6972C37.6834 36.9758 37.5692 37.0928 37.2923 37.0936C36.7324 37.0948 36.1725 37.0863 35.6125 37.0895C35.5267 37.0899 35.3878 37.0308 35.3765 37.1956C35.3656 37.3535 35.404 37.5033 35.5842 37.5397C35.7081 37.5648 35.8393 37.5567 35.9672 37.5571C36.4057 37.5592 36.8441 37.5588 37.2826 37.5588C37.5287 37.5588 37.5996 37.6333 37.6194 37.8814C37.6745 38.5713 37.566 38.5701 36.9668 38.5652C36.7308 38.5632 36.4947 38.5652 36.2583 38.5652C36.2583 38.558 36.2583 38.5503 36.2583 38.543L36.2587 38.5426ZM35.8846 36.3887C35.8846 36.3887 35.8846 36.3851 35.8846 36.3831C36.0121 36.3831 36.1397 36.3814 36.2672 36.3835C36.3862 36.3855 36.4389 36.3329 36.4283 36.2118C36.4223 36.1454 36.4251 36.0774 36.43 36.0106C36.4421 35.847 36.3559 35.7737 36.2049 35.7689C36.0036 35.7624 35.8004 35.7482 35.602 35.7709C35.5235 35.7798 35.4121 35.8644 35.3895 35.9377C35.285 36.2729 35.3781 36.3871 35.7239 36.3887C35.7777 36.3887 35.8312 36.3887 35.885 36.3887H35.8846Z" fill="black"/>
<path d="M14.1806 36.6688C14.1806 36.9725 14.1931 37.2765 14.1777 37.5789C14.1514 38.0996 13.8421 38.4826 13.3227 38.519C12.6741 38.5648 12.0174 38.5583 11.368 38.5166C10.9061 38.4866 10.5595 38.102 10.5389 37.6385C10.5101 36.9854 10.5032 36.33 10.5312 35.6769C10.5535 35.1575 10.9255 34.7842 11.5045 34.7458C12.1134 34.7057 12.7316 34.7219 13.3397 34.7798C13.8466 34.8279 14.1364 35.1862 14.1692 35.698C14.1899 36.0202 14.1733 36.3449 14.1733 36.6684C14.1757 36.6684 14.1781 36.6684 14.1806 36.6684V36.6688ZM12.913 36.67H12.9203C12.9203 36.4749 12.9215 36.2798 12.9203 36.0846C12.919 35.9267 12.8454 35.8259 12.6814 35.8174C12.4672 35.8061 12.2526 35.7951 12.0385 35.7996C11.8624 35.8032 11.7717 35.9016 11.7761 36.0862C11.7818 36.3219 11.7794 36.5575 11.7798 36.7931C11.7806 37.5433 11.8462 37.6036 12.598 37.547C12.6113 37.5458 12.6251 37.5462 12.6381 37.5441C12.8057 37.5206 12.9122 37.4377 12.913 37.2559C12.9138 37.0607 12.913 36.8656 12.913 36.6704V36.67Z" fill="black"/>
<path d="M6.16479 36.0772C6.16479 35.6861 6.16074 35.2946 6.1656 34.9035C6.17613 34.0958 6.67532 33.5918 7.4822 33.5809C8.14981 33.572 8.81783 33.5728 9.48584 33.5728C9.73321 33.5728 9.7911 33.6347 9.79515 33.8865C9.79758 34.0347 9.79839 34.1833 9.79434 34.3319C9.78665 34.6056 9.69677 34.6938 9.42147 34.691C8.95588 34.6865 8.4907 34.6756 8.02511 34.6712C7.92471 34.6703 7.82268 34.6784 7.72349 34.6946C7.53281 34.7254 7.41864 34.8359 7.41904 35.0359C7.42025 35.7173 7.42066 36.3987 7.43119 37.0797C7.43524 37.3242 7.60609 37.4606 7.90568 37.4639C8.40487 37.4695 8.90406 37.4635 9.40325 37.461C9.77451 37.4594 9.82633 37.51 9.82552 37.8788C9.82552 37.9598 9.8239 38.0408 9.82511 38.1218C9.82957 38.4562 9.74819 38.5521 9.41904 38.5566C8.75143 38.5659 8.08341 38.5764 7.4158 38.5659C6.67167 38.5541 6.19718 38.0809 6.17127 37.3323C6.15669 36.9145 6.16884 36.4958 6.16884 36.0776C6.16762 36.0776 6.16681 36.0776 6.1656 36.0776L6.16479 36.0772Z" fill="black"/>
<path d="M37.9924 14.9322C37.9924 16.3759 37.9924 17.8192 37.9924 19.2629C37.9924 19.3168 37.9952 19.3714 37.9891 19.4245C37.9697 19.5986 37.8498 19.7152 37.6996 19.6994C37.5268 19.6812 37.4644 19.5743 37.4652 19.4059C37.4693 18.5289 37.4681 17.652 37.4689 16.7751C37.4705 15.2642 37.4693 13.7532 37.477 12.2423C37.4778 12.0739 37.4292 12.0225 37.2612 12.0237C35.8381 12.0318 34.4146 12.0322 32.9911 12.0342C32.9037 12.0342 32.8033 12.0557 32.7316 12.0208C32.6486 11.98 32.5377 11.8897 32.5357 11.8176C32.5328 11.7289 32.6134 11.6188 32.6887 11.5536C32.7385 11.5103 32.843 11.5229 32.9227 11.5225C34.3596 11.5196 35.7964 11.5156 37.2332 11.5217C37.426 11.5225 37.498 11.4714 37.4794 11.2731C37.4616 11.086 37.4758 10.8957 37.4745 10.7067C37.4725 10.3427 37.4215 10.2917 37.047 10.2913C35.9069 10.2897 34.7668 10.2889 33.6272 10.2885C33.3709 10.2885 33.1146 10.2957 32.8583 10.2905C32.7741 10.2889 32.6717 10.2804 32.6114 10.2326C32.5426 10.1779 32.462 10.0642 32.4774 9.99736C32.4968 9.91396 32.5996 9.83623 32.6847 9.78683C32.7413 9.75404 32.8296 9.77307 32.9037 9.77307C34.3405 9.77266 35.7774 9.77307 37.2142 9.77307C37.6818 9.77307 37.9948 10.0868 37.9952 10.5613C37.996 12.0184 37.9952 13.4755 37.9952 14.9326H37.9928L37.9924 14.9322Z" fill="black"/>
<path d="M32.7721 38.5942C32.564 38.5796 32.3535 38.5804 32.1486 38.5476C31.7093 38.4768 31.4239 38.1926 31.3988 37.7501C31.3676 37.199 31.379 36.6452 31.3761 36.0926C31.3745 35.7667 31.3786 35.7667 31.0624 35.7582C30.7514 35.7497 30.7393 35.7375 30.7276 35.4201C30.7259 35.3731 30.7243 35.3258 30.7243 35.2784C30.7243 34.7521 30.7166 34.748 31.2061 34.7529C31.3243 34.7541 31.3599 34.6958 31.3571 34.5909C31.3527 34.4294 31.351 34.2675 31.3474 34.1055C31.3433 33.9266 31.4247 33.8217 31.6085 33.8177C31.8713 33.8116 32.1344 33.8104 32.3972 33.8096C32.5361 33.8096 32.6081 33.8824 32.6118 34.0217C32.6162 34.2035 32.6239 34.3857 32.6223 34.5679C32.6215 34.6877 32.6729 34.7391 32.7911 34.7399C32.9729 34.7411 33.1551 34.7488 33.3369 34.7525C33.4984 34.7557 33.5899 34.827 33.5883 34.9982C33.5867 35.1735 33.5883 35.3488 33.5895 35.5241C33.5903 35.6845 33.5073 35.7561 33.3506 35.7565C33.1684 35.7573 32.9867 35.7663 32.8045 35.763C32.6798 35.7606 32.6182 35.8011 32.6195 35.9363C32.6243 36.3743 32.6178 36.8128 32.6247 37.2509C32.6284 37.4703 32.7158 37.5484 32.9385 37.5557C33.0527 37.5594 33.1676 37.5501 33.2822 37.5513C33.5085 37.5541 33.5733 37.616 33.5794 37.8379C33.5834 37.9792 33.5786 38.1209 33.5794 38.2626C33.5806 38.4529 33.4741 38.5452 33.298 38.5687C33.2114 38.58 33.1231 38.5784 33.0356 38.5804C32.9482 38.582 32.8603 38.5804 32.7729 38.5804L32.7721 38.5942Z" fill="black"/>
<path d="M40.2891 34.7219C40.5522 34.7219 40.8154 34.7179 41.0782 34.7231C41.3008 34.7276 41.3664 34.7964 41.3713 35.0158C41.3753 35.1911 41.3737 35.3664 41.3778 35.5417C41.3814 35.7021 41.3061 35.7778 41.1462 35.7774C40.8429 35.7766 40.5393 35.7762 40.2361 35.7802C40.115 35.7818 39.983 35.7681 39.8761 35.8114C39.779 35.8506 39.6413 35.9551 39.6381 36.0353C39.6207 36.4713 39.6247 36.9098 39.6527 37.3454C39.6632 37.5118 39.8336 37.5434 39.9834 37.5442C40.334 37.5458 40.685 37.545 41.0356 37.5458C41.3016 37.5466 41.3599 37.6009 41.3688 37.862C41.3733 37.9968 41.3717 38.1316 41.3729 38.2664C41.3745 38.4336 41.2972 38.549 41.1263 38.5502C40.5138 38.5547 39.898 38.5851 39.2891 38.5336C38.7401 38.4871 38.417 38.117 38.3915 37.56C38.3628 36.9409 38.3664 36.3187 38.3887 35.6992C38.4065 35.2085 38.7373 34.8413 39.2203 34.7685C39.5713 34.7154 39.9316 34.7219 40.2875 34.7017C40.2875 34.7085 40.2883 34.7154 40.2887 34.7223L40.2891 34.7219Z" fill="black"/>
<path d="M26.4559 35.7448C26.4559 35.0642 26.4559 34.3836 26.4559 33.7026C26.4559 33.4124 26.5113 33.3549 26.7943 33.3528C27.0032 33.3516 27.2121 33.3516 27.4211 33.3541C27.6652 33.3565 27.7267 33.4205 27.7271 33.6723C27.7287 34.8447 27.7336 36.0176 27.7279 37.1901C27.7263 37.4966 27.781 37.6569 28.1328 37.6379C28.2692 37.6306 28.3449 37.7091 28.3474 37.8492C28.3494 37.9703 28.3543 38.0913 28.3506 38.2124C28.3413 38.5091 28.3032 38.5609 28.0138 38.5678C27.698 38.5751 27.3789 38.58 27.0668 38.5407C26.6838 38.4925 26.4717 38.2358 26.4668 37.8468C26.4579 37.146 26.4644 36.4452 26.4644 35.7443H26.4563L26.4559 35.7448Z" fill="black"/>
<path d="M21.194 42.2158C21.2956 42.0531 21.3757 41.9409 21.4393 41.8195C21.6429 41.432 21.8365 41.0397 22.0417 40.6535C22.1425 40.4636 22.5182 40.3693 22.6899 40.4911C22.7365 40.5239 22.7749 40.6033 22.7749 40.6612C22.7778 41.5717 22.7733 42.4826 22.7717 43.3931C22.7717 43.5061 22.7154 43.5506 22.6089 43.5482C22.5551 43.547 22.5004 43.545 22.447 43.5506C22.2648 43.5697 22.1952 43.4948 22.1988 43.3081C22.2089 42.8093 22.2045 42.3097 22.2045 41.8106C22.2045 41.7397 22.198 41.6693 22.1944 41.5984C22.1774 41.5936 22.1599 41.5887 22.1429 41.5838C22.0389 41.7741 21.9332 41.9632 21.8316 42.1543C21.7304 42.3446 21.6348 42.5381 21.5348 42.7292C21.3741 43.0369 21.1207 43.0636 20.9324 42.7697C20.7191 42.4361 20.5377 42.0818 20.3421 41.7369C20.3203 41.698 20.2952 41.6608 20.2251 41.6227C20.217 41.6875 20.2029 41.7527 20.2025 41.8174C20.1968 42.3097 20.1948 42.8021 20.1899 43.2948C20.1875 43.5361 20.1749 43.5409 19.9166 43.5486C19.7377 43.5539 19.6263 43.5288 19.6288 43.3017C19.6377 42.4316 19.6328 41.5612 19.6247 40.6911C19.6231 40.5049 19.6988 40.4559 19.8749 40.4417C20.1377 40.4211 20.2875 40.5057 20.4061 40.7531C20.6352 41.2312 20.9069 41.6891 21.1935 42.2158H21.194Z" fill="black"/>
<path d="M13.5247 13.3643C13.9025 13.3643 14.2802 13.3554 14.6571 13.3712C14.7454 13.3748 14.8685 13.4441 14.9049 13.5182C14.9353 13.5797 14.8915 13.7319 14.8308 13.7761C14.4822 14.0295 14.3762 14.3526 14.4466 14.7716C14.4838 14.9943 14.4523 15.2291 14.4466 15.4582C14.4389 15.7821 14.2203 16.0004 13.8952 16.002C13.4231 16.004 12.9515 16.0036 12.4794 15.9963C12.1531 15.9914 11.9855 15.8178 11.981 15.4935C11.9733 14.9275 11.9672 14.3611 11.9616 13.7951C11.9591 13.5392 12.113 13.374 12.3713 13.3704C12.7555 13.3651 13.1397 13.3692 13.5243 13.3692C13.5243 13.3676 13.5243 13.3663 13.5243 13.3647L13.5247 13.3643ZM13.9255 14.6967C13.9037 14.6817 13.8818 14.6663 13.8596 14.6514C13.7531 14.7765 13.6567 14.9129 13.5377 15.0246C13.2689 15.2761 13.162 15.274 12.8798 15.0372C12.7664 14.9421 12.6591 14.84 12.5162 14.7117C12.5162 14.9348 12.5219 15.1093 12.5146 15.2829C12.5085 15.4271 12.5741 15.4708 12.7089 15.468C12.9652 15.4627 13.2215 15.4688 13.4778 15.4696C13.6296 15.47 13.7818 15.4696 13.9259 15.4696V14.6963L13.9255 14.6967ZM13.7798 13.9607C13.7713 13.9449 13.7632 13.9287 13.7547 13.9129H12.6308C12.6199 13.9287 12.6089 13.9445 12.5976 13.9603C12.7774 14.151 12.9555 14.3437 13.1405 14.5291C13.1583 14.5469 13.2369 14.5352 13.2604 14.5113C13.4373 14.3315 13.6073 14.1449 13.7798 13.9607Z" fill="black"/>
<path d="M13.5073 17.0957C13.8648 17.0957 14.2223 17.0859 14.579 17.1021C14.6757 17.1066 14.8085 17.1665 14.8518 17.2426C14.8875 17.3058 14.8478 17.4693 14.7855 17.52C14.4899 17.7613 14.4393 18.0673 14.4717 18.4208C14.494 18.6617 14.4798 18.9058 14.4765 19.1487C14.4729 19.4471 14.2879 19.6503 13.9887 19.656C13.4697 19.6657 12.9502 19.6629 12.4312 19.6548C12.183 19.6507 12.011 19.4625 12.0089 19.2078C12.0045 18.6483 12.0041 18.0884 12.0053 17.5289C12.0061 17.2617 12.1442 17.1171 12.4146 17.1119C12.7786 17.105 13.1429 17.1102 13.5069 17.1102C13.5069 17.1054 13.5069 17.1005 13.5069 17.0961L13.5073 17.0957ZM12.5357 18.3835C12.5357 18.6289 12.528 18.8212 12.5417 19.0119C12.5446 19.0523 12.6247 19.1191 12.6705 19.12C13.0535 19.126 13.4365 19.1224 13.8195 19.1143C13.8632 19.1135 13.9413 19.0693 13.9429 19.0422C13.9535 18.8406 13.9486 18.6382 13.9486 18.3916C13.7705 18.5495 13.6369 18.6803 13.4903 18.7949C13.2733 18.9645 13.1263 18.956 12.9195 18.7685C12.8008 18.6608 12.6923 18.5418 12.5357 18.3839V18.3835ZM13.8158 17.7013L13.7834 17.6556H12.5988C12.8081 17.8714 12.9761 18.0499 13.1514 18.2204C13.1745 18.243 13.2547 18.2451 13.2778 18.224C13.4612 18.0544 13.6373 17.8766 13.8158 17.7017V17.7013Z" fill="black"/>
<path d="M28.8522 36.6486C28.8522 36.1425 28.8522 35.6368 28.8522 35.1308C28.8522 34.7984 28.8676 34.7806 29.2089 34.7741C29.4178 34.77 29.6271 34.7684 29.8361 34.772C30.0672 34.7757 30.1247 34.838 30.1235 35.0862C30.1203 35.7271 30.1122 36.368 30.1093 37.0085C30.1073 37.4198 30.1061 37.8316 30.1138 38.2429C30.1174 38.4316 30.0458 38.5453 29.8531 38.5514C29.6041 38.5595 29.3543 38.5627 29.1053 38.5526C28.9348 38.5457 28.8442 38.464 28.8486 38.2672C28.8608 37.7279 28.8527 37.1878 28.8527 36.6486H28.8518H28.8522Z" fill="black"/>
<path d="M25.053 40.476C25.2956 40.4173 25.4081 40.5477 25.4875 40.757C25.8028 41.5874 26.1263 42.4145 26.4466 43.2428C26.5377 43.4785 26.4907 43.5363 26.2413 43.5517C26.0296 43.5647 25.9166 43.4951 25.8413 43.2841C25.6676 42.7983 25.6551 42.8015 25.1312 42.8032C24.9227 42.804 24.6672 42.7408 24.5186 42.838C24.3749 42.9319 24.3405 43.1938 24.2599 43.3829C24.1927 43.5408 23.8077 43.6461 23.6729 43.5283C23.6385 43.4979 23.6429 43.3918 23.6648 43.3335C23.8773 42.7594 24.098 42.1882 24.3142 41.6153C24.4235 41.3258 24.5352 41.0368 24.6324 40.7432C24.7024 40.5311 24.8231 40.423 25.0534 40.4764L25.053 40.476ZM24.6364 42.3193H25.4879C25.353 41.9416 25.2283 41.593 25.1041 41.2449C25.0802 41.2436 25.0559 41.242 25.032 41.2408C24.9057 41.5857 24.7794 41.9303 24.6368 42.3193H24.6364Z" fill="black"/>
<path d="M30.1183 41.9943C30.1183 41.5765 30.1191 41.1583 30.1183 40.7405C30.1174 40.4806 30.1332 40.4571 30.3863 40.4546C30.9324 40.4502 31.4786 40.4575 32.0243 40.4474C32.2102 40.4437 32.234 40.5429 32.2353 40.6862C32.2361 40.8332 32.247 40.9838 32.0353 40.9846C31.6644 40.9858 31.2936 40.9939 30.9231 40.9822C30.7555 40.9769 30.7025 41.0271 30.7037 41.1968C30.7077 41.6878 30.7008 41.6887 31.1855 41.7012C31.3875 41.7065 31.5899 41.7089 31.7919 41.7081C31.9733 41.7073 31.9753 41.8316 31.9713 41.9579C31.9676 42.0798 31.9737 42.2077 31.7879 42.2044C31.4846 42.1992 31.181 42.2081 30.8778 42.2024C30.749 42.2 30.6911 42.2433 30.6964 42.3765C30.7029 42.5449 30.7053 42.7138 30.6964 42.8818C30.6887 43.0219 30.7559 43.0551 30.8786 43.0538C31.2628 43.0498 31.6474 43.0599 32.0312 43.047C32.2304 43.0405 32.2697 43.138 32.2721 43.3053C32.2745 43.4741 32.232 43.5684 32.0365 43.5648C31.4774 43.5534 30.9174 43.5514 30.3579 43.5542C30.1932 43.5551 30.132 43.4955 30.1349 43.3291C30.1429 42.8842 30.1377 42.4393 30.1377 41.9943C30.1312 41.9943 30.1251 41.9943 30.1187 41.9943H30.1183Z" fill="black"/>
<path d="M12.0089 21.8759C12.0089 21.6334 12.0077 21.3909 12.0089 21.1484C12.0109 20.8573 12.168 20.667 12.4563 20.6585C12.9405 20.6439 13.4263 20.6411 13.9105 20.6585C14.2219 20.6694 14.4012 20.9014 14.398 21.2123C14.3935 21.6634 14.3976 22.1148 14.3955 22.5658C14.3935 22.9771 14.1984 23.1678 13.7858 23.1662C13.3749 23.1646 12.964 23.1658 12.5534 23.1621C12.2004 23.1589 12.0223 22.9771 12.021 22.6233C12.0198 22.3739 12.021 22.1249 12.021 21.8755C12.017 21.8755 12.0134 21.8755 12.0093 21.8755L12.0089 21.8759ZM12.5389 21.8804H12.5409C12.5409 22.069 12.5287 22.2589 12.5482 22.4455C12.5542 22.5051 12.6417 22.6014 12.6959 22.6038C13.0389 22.6209 13.383 22.6152 13.7263 22.6188C13.8372 22.62 13.8798 22.5711 13.8781 22.4589C13.8729 22.0885 13.8725 21.7176 13.8761 21.3472C13.8773 21.2427 13.8364 21.201 13.7352 21.2006C13.385 21.199 13.0344 21.1949 12.6842 21.1905C12.5696 21.1889 12.5336 21.2451 12.5372 21.3545C12.5437 21.5294 12.5389 21.7047 12.5389 21.88V21.8804Z" fill="black"/>
<path d="M27.8069 42.2387C27.8069 41.9083 27.8077 41.5779 27.8069 41.248C27.8061 40.9783 27.8053 40.9788 27.5247 40.9771C27.383 40.9763 27.2417 40.9743 27.1 40.9727C26.9008 40.9703 26.9097 40.8318 26.9069 40.6905C26.9041 40.5472 26.9401 40.4565 27.1061 40.4557C27.7733 40.4528 28.4405 40.4472 29.1077 40.4395C29.2777 40.4375 29.3053 40.5383 29.3045 40.6767C29.3036 40.8136 29.3279 40.9626 29.1259 40.9703C28.951 40.9767 28.7749 40.9848 28.6008 40.9723C28.4344 40.9601 28.3777 41.0132 28.3806 41.1848C28.3907 41.8589 28.3871 42.533 28.3879 43.2067C28.3883 43.516 28.1737 43.6618 27.8927 43.529C27.8433 43.5059 27.8113 43.399 27.8097 43.3298C27.8016 42.9658 27.8061 42.6018 27.8061 42.2379H27.8077L27.8069 42.2387Z" fill="black"/>
<path d="M16.604 21.7645C16.1194 21.7645 15.6348 21.7662 15.1502 21.7637C14.921 21.7625 14.8299 21.6848 14.8243 21.4994C14.819 21.3285 14.9271 21.2362 15.1546 21.2358C16.1372 21.2338 17.1198 21.2358 18.1024 21.235C18.281 21.235 18.383 21.3192 18.3939 21.4969C18.4048 21.6722 18.3036 21.7658 18.098 21.7674C17.6 21.7706 17.102 21.7686 16.6036 21.7686V21.7645H16.604Z" fill="black"/>
<path d="M16.5563 14.0325C16.9543 14.0325 17.3522 14.0305 17.7506 14.0333C17.9502 14.035 18.0571 14.1297 18.0632 14.2981C18.0688 14.4544 17.9518 14.5665 17.7518 14.5669C16.9356 14.5698 16.119 14.5686 15.3028 14.5625C15.0996 14.5609 14.9939 14.4576 14.9915 14.2916C14.9891 14.124 15.0883 14.0329 15.3012 14.0305C15.7194 14.0257 16.1377 14.0289 16.5559 14.0289C16.5559 14.0301 16.5559 14.0309 16.5559 14.0321L16.5563 14.0325Z" fill="black"/>
<path d="M34.0741 19.0049C33.683 19.0049 33.2915 19.0138 32.9012 18.998C32.8114 18.9944 32.6919 18.9259 32.6433 18.8506C32.5429 18.6956 32.6393 18.5239 32.8272 18.4907C32.9195 18.4745 33.015 18.4745 33.1093 18.4741C33.7903 18.4725 34.4713 18.4721 35.1523 18.4717C35.3774 18.4717 35.5114 18.5745 35.5065 18.7425C35.5017 18.9122 35.3753 19.0069 35.1458 19.0077C34.7883 19.0089 34.4312 19.0077 34.0737 19.0077V19.0041L34.0741 19.0049Z" fill="black"/>
<path d="M16.3425 17.6713C16.6656 17.6713 16.9883 17.6701 17.3113 17.6717C17.5461 17.673 17.6567 17.7645 17.6526 17.947C17.649 18.1203 17.5397 18.2151 17.321 18.2155C16.6955 18.2171 16.0696 18.2143 15.4441 18.2106C15.364 18.2102 15.283 18.1993 15.204 18.1847C15.0575 18.1576 14.9838 18.0677 14.987 17.9163C14.9907 17.7547 15.0879 17.6835 15.2328 17.6815C15.6028 17.6758 15.9729 17.6794 16.3425 17.6794C16.3425 17.6766 16.3425 17.6738 16.3425 17.6713Z" fill="black"/>
<path d="M29.5085 33.2905C29.6162 33.2905 29.7239 33.2889 29.8312 33.2905C30.0915 33.2949 30.1697 33.3637 30.1765 33.6237C30.181 33.7974 30.1705 33.9727 30.1535 34.1459C30.1409 34.2767 30.0587 34.35 29.9219 34.3492C29.6328 34.3476 29.3442 34.3472 29.0551 34.3419C28.9122 34.3391 28.8231 34.2561 28.8178 34.1172C28.8101 33.9164 28.817 33.7144 28.8284 33.5131C28.8369 33.3593 28.9344 33.2893 29.0842 33.2884C29.2255 33.2876 29.3664 33.2884 29.5077 33.2884V33.2905H29.5085Z" fill="black"/>
<path d="M15.8227 22.7183C15.6142 22.7183 15.4053 22.7219 15.1968 22.7162C15.1251 22.7142 15.0328 22.713 14.9871 22.6709C14.9114 22.6013 14.8126 22.4919 14.8231 22.4122C14.8336 22.3316 14.9624 22.2065 15.0429 22.2041C15.5599 22.1867 16.0778 22.1891 16.5948 22.2085C16.6668 22.2114 16.7798 22.3353 16.7911 22.415C16.8025 22.4944 16.7276 22.6098 16.6567 22.6693C16.5996 22.7175 16.4931 22.717 16.4077 22.7199C16.213 22.7264 16.0174 22.7219 15.8223 22.7219C15.8223 22.7207 15.8223 22.7191 15.8223 22.7179L15.8227 22.7183Z" fill="black"/>
<path d="M15.7793 19.1385C15.6053 19.1247 15.43 19.1178 15.2571 19.0943C15.1219 19.0761 15.0134 18.9854 15.0498 18.8502C15.0761 18.7522 15.183 18.6089 15.2619 18.6033C15.6093 18.5786 15.9599 18.5854 16.3081 18.6053C16.4421 18.613 16.5158 18.7312 16.4988 18.8709C16.4802 19.0259 16.3716 19.1085 16.2251 19.1215C16.0777 19.1348 15.9287 19.1243 15.7802 19.1243C15.7802 19.1292 15.7797 19.1336 15.7793 19.1385Z" fill="black"/>
<path d="M15.6357 15.4654C15.4948 15.4573 15.3531 15.4581 15.2138 15.4386C15.0806 15.42 14.998 15.3427 14.9948 15.1941C14.9919 15.0447 15.0543 14.9228 15.1996 14.9176C15.4996 14.9067 15.8021 14.9152 16.1 14.9484C16.1693 14.956 16.2632 15.0929 16.2721 15.1779C16.2798 15.2512 16.1984 15.382 16.1292 15.4054C15.9749 15.4573 15.8033 15.4577 15.6385 15.4791C15.6377 15.4743 15.6365 15.4698 15.6357 15.465V15.4654Z" fill="black"/>
<path d="M11.4943 10.8604C11.4838 11.0851 11.3899 11.1705 11.2474 11.1721C11.1089 11.1741 11 11.1049 10.9943 10.9422C10.9895 10.8041 11.1202 10.6486 11.2417 10.6851C11.3462 10.7166 11.4312 10.8138 11.4943 10.86V10.8604Z" fill="black"/>
<path d="M12.0551 10.847C12.1154 10.8004 12.1927 10.7057 12.2895 10.6757C12.4049 10.6401 12.5668 10.8097 12.5239 10.9296C12.4907 11.0227 12.3838 11.1381 12.2952 11.1526C12.1551 11.1753 12.077 11.053 12.0547 10.8474L12.0551 10.847Z" fill="black"/>
<path d="M20.0162 13.4374C20.3842 12.1005 23.3198 10.5382 25.43 10.541C28.0927 10.5447 30.2409 12.1524 30.8397 13.4734C30.6279 13.4511 30.432 13.4273 30.2356 13.4111C28.9385 13.3022 27.6806 13.4653 26.4753 13.9714C26.1413 14.1119 25.8818 14.3345 25.751 14.69C25.732 14.7414 25.6397 14.7771 25.5745 14.7961C25.5194 14.8123 25.4534 14.7864 25.3939 14.7928C25.2178 14.8115 25.1283 14.7507 25.0684 14.5677C24.9749 14.2827 24.7235 14.1289 24.4656 14.0034C23.8227 13.6904 23.1356 13.5345 22.4304 13.4426C21.6834 13.3455 20.9381 13.3414 20.1919 13.4471C20.1453 13.4536 20.098 13.454 20.0506 13.4548C20.0389 13.4548 20.0271 13.4439 20.0154 13.4382L20.0162 13.4374Z" fill="white"/>
<path d="M31.2 17.9302C31.1049 18.1476 31.0255 18.3735 30.9122 18.5812C30.5227 19.2966 29.9304 19.8241 29.2782 20.2877C28.4183 20.899 27.479 21.3339 26.4385 21.5488C25.5413 21.7343 24.6664 21.6387 23.8053 21.3739C22.8174 21.0703 21.9142 20.5934 21.1162 19.9379C20.4745 19.4108 19.9413 18.7901 19.6838 17.9756C19.6761 17.9513 19.6717 17.9258 19.664 17.8938C19.8676 18.0367 20.0523 18.1893 20.2571 18.3059C20.8154 18.6233 21.432 18.6274 22.0478 18.5934C22.6081 18.5626 23.1563 18.4606 23.6826 18.2549C24.2838 18.0201 24.6381 17.5638 24.8 16.9618C24.9276 16.4885 25.0162 16.0043 25.1049 15.5217C25.134 15.363 25.2106 15.3144 25.3502 15.3278C25.4932 15.3416 25.6705 15.2743 25.7235 15.5007C25.8397 15.9982 25.9705 16.4922 26.0842 16.9901C26.2381 17.6658 26.6737 18.0889 27.3045 18.3019C28.1923 18.6019 29.1073 18.6828 30.0369 18.527C30.479 18.4529 30.8288 18.2092 31.1377 17.8954C31.1583 17.9067 31.1794 17.9185 31.2 17.9298V17.9302ZM25.4705 19.4063C25.5903 19.4788 25.7405 19.6035 25.9134 19.6671C26.1948 19.7703 26.4883 19.8476 26.7822 19.9084C26.9126 19.9355 27.0369 19.861 27.0624 19.7067C27.0879 19.5533 27.0085 19.4658 26.862 19.4318C26.7636 19.4092 26.6656 19.3853 26.5676 19.3606C26.2899 19.2909 26.0296 19.1881 25.83 18.9707C25.5927 18.7124 25.579 18.4569 25.7757 18.1683C25.8778 18.0189 25.9761 17.865 26.0587 17.7043C26.1268 17.5719 26.0685 17.4339 25.9336 17.4193C25.6296 17.3865 25.3183 17.3687 25.0146 17.3958C24.8085 17.414 24.7539 17.582 24.8506 17.7764C24.9045 17.8841 24.9741 17.9841 25.0385 18.0865C25.3373 18.561 25.2259 18.9703 24.7118 19.21C24.5004 19.3084 24.2689 19.3642 24.0454 19.4355C23.9126 19.4776 23.8344 19.563 23.8466 19.7019C23.8591 19.8505 23.9644 19.9084 24.1025 19.8978C24.2227 19.8889 24.3502 19.8857 24.4595 19.8424C24.7936 19.71 25.1199 19.5594 25.4705 19.4067V19.4063ZM23.4393 19.0387C23.4106 18.8448 23.3571 18.7132 23.1794 18.7496C22.679 18.8521 22.1806 18.9662 21.683 19.0824C21.63 19.095 21.564 19.1444 21.5462 19.1922C21.5158 19.2731 21.4867 19.3816 21.5183 19.4501C21.5442 19.5059 21.6685 19.5606 21.7349 19.5468C22.249 19.4407 22.7608 19.3229 23.2701 19.1942C23.3425 19.176 23.3956 19.0804 23.4397 19.0383L23.4393 19.0387ZM27.7515 18.7079C27.6178 18.7367 27.4948 18.7529 27.4806 18.9152C27.4672 19.0675 27.5292 19.1792 27.6855 19.2156C28.1438 19.3217 28.6025 19.4258 29.0616 19.5274C29.1915 19.5561 29.3259 19.5683 29.381 19.4055C29.4393 19.2318 29.3361 19.1335 29.1927 19.0796C29.0421 19.0229 28.8851 18.9828 28.7288 18.9436C28.4037 18.8622 28.0774 18.7861 27.7515 18.7079Z" fill="white"/>
<path d="M18.8353 30.9305C18.2754 30.9305 17.7154 30.9317 17.1555 30.9301C16.6426 30.9284 16.4409 30.628 16.6134 30.1305C16.8227 29.5268 17.2689 29.1604 17.8507 28.9705C18.8559 28.6426 19.7972 28.8037 20.6336 29.4552C20.9235 29.6811 21.1523 29.9705 21.1511 30.3734C21.1502 30.711 20.9498 30.9195 20.6158 30.9211C20.0223 30.9244 19.4288 30.922 18.8349 30.922C18.8349 30.9248 18.8349 30.9272 18.8349 30.9301L18.8353 30.9305ZM18.2175 29.1689C17.6729 29.1948 17.2288 29.3572 16.9276 29.8066C16.8389 29.9386 16.8422 30.0564 16.9697 30.1616C17.0956 30.2657 17.2057 30.2179 17.3114 30.1268C17.3316 30.1094 17.3535 30.0916 17.3681 30.0697C17.6705 29.626 18.4754 29.5527 18.8843 29.928C18.9235 29.9641 18.9681 29.9973 19.0158 30.0203C19.1462 30.0831 19.2847 30.1013 19.3839 29.9774C19.4875 29.8479 19.4256 29.7228 19.3219 29.6207C19.0081 29.311 18.6158 29.1956 18.217 29.1693L18.2175 29.1689Z" fill="white"/>
<path d="M36.0344 30.8775C36.0652 30.7901 36.0976 30.7042 36.1259 30.6176C36.2498 30.2394 36.1292 29.8811 36.0085 29.5342C35.7502 28.7917 35.4693 28.0573 35.1935 27.3091C35.217 27.2998 35.2462 27.2779 35.2757 27.2779C35.7543 27.2759 36.2324 27.2779 36.711 27.2759C36.8348 27.2755 36.9081 27.3245 36.9526 27.4439C37.262 28.2686 37.5854 29.088 37.8826 29.9168C37.9713 30.1637 37.9729 30.4342 37.8441 30.6844C37.7628 30.8423 37.6312 30.9342 37.4571 30.9338C37.0057 30.9326 36.5543 30.9196 36.1029 30.9099C36.085 30.9099 36.0676 30.8941 36.034 30.8779L36.0344 30.8775Z" fill="white"/>
<path d="M28.5441 23.6304C28.6113 24.3231 27.2441 27.6235 26.596 28.2454C26.5721 28.1826 26.5441 28.1336 26.5344 28.081C26.387 27.2587 26.2397 26.4369 26.0968 25.6138C25.9899 24.9968 25.8858 24.3794 25.7907 23.7603C25.7802 23.6907 25.8154 23.5952 25.8624 23.5397C25.9741 23.4085 26.0599 23.4308 26.1433 23.594C26.2684 23.8389 26.4061 24.0814 26.5684 24.3029C26.819 24.6458 27.0458 24.6915 27.4016 24.4563C27.7931 24.198 28.1628 23.9077 28.5441 23.63V23.6304Z" fill="white"/>
<path d="M22.2543 23.5749C22.5879 23.8469 22.8794 24.0923 23.1798 24.3263C23.3012 24.4206 23.4365 24.502 23.5753 24.5672C23.781 24.6639 23.9939 24.6631 24.1442 24.4704C24.3458 24.2117 24.5259 23.9364 24.7138 23.6668C24.751 23.6133 24.7802 23.5542 24.8146 23.4951C24.9964 23.5591 25.0729 23.6526 25.0421 23.8461C24.9227 24.5975 24.8195 25.351 24.7065 26.1032C24.6195 26.6826 24.5288 27.2611 24.4365 27.8397C24.417 27.9623 24.3838 28.083 24.3442 28.2631C23.3292 26.8089 22.7166 25.2461 22.2543 23.5741V23.5749Z" fill="white"/>
<path d="M21.2871 13.8555C22.3446 13.8688 23.2875 14.0312 24.1858 14.4126C24.6166 14.5956 24.7267 14.8146 24.6328 15.2769C24.5324 15.7709 24.4348 16.2652 24.3263 16.7575C24.1891 17.3798 23.7903 17.7433 23.1826 17.9061C22.5105 18.0862 21.8292 18.1571 21.1409 18.0595C20.3466 17.9466 19.8709 17.449 19.6539 16.7024C19.551 16.3486 19.5114 15.9769 19.4292 15.6166C19.3976 15.4773 19.328 15.347 19.2765 15.2121C19.2012 15.0146 19.1012 14.8223 19.0583 14.6178C19.015 14.4117 19.1247 14.2368 19.3304 14.1794C19.7045 14.0745 20.0826 13.9761 20.4652 13.9121C20.7628 13.8624 21.0692 13.8692 21.2871 13.8563V13.8555ZM21.93 17.8239C22.2231 17.7858 22.5195 17.7632 22.8089 17.7065C23.4105 17.5887 23.8506 17.2664 23.9988 16.6441C24.0964 16.2332 24.1745 15.8166 24.2365 15.3988C24.2915 15.0283 24.1948 14.8502 23.8454 14.7207C23.4118 14.5595 22.9705 14.4081 22.5207 14.3032C21.8288 14.1421 21.1284 14.1518 20.4433 14.3595C19.9895 14.4972 19.7952 14.7688 19.8016 15.2433C19.8045 15.4575 19.8207 15.679 19.8798 15.8826C19.9915 16.2676 20.0931 16.6672 20.281 17.0162C20.6267 17.6595 21.23 17.8498 21.9304 17.8235L21.93 17.8239Z" fill="white"/>
<path d="M29.5461 13.8559C30.168 13.8935 30.7972 13.9028 31.3992 14.1105C31.8514 14.2664 31.9899 14.4996 31.7312 14.9016C31.4393 15.3555 31.4376 15.8547 31.3304 16.3405C31.1862 16.9919 30.9287 17.5761 30.2935 17.898C30.134 17.9789 29.953 18.0389 29.7761 18.0607C28.938 18.1648 28.1243 18.0607 27.3352 17.7514C26.9129 17.5858 26.6769 17.2624 26.5668 16.849C26.432 16.3425 26.3109 15.8304 26.2223 15.3142C26.1425 14.8514 26.2911 14.6154 26.7247 14.4166C27.3753 14.1186 28.07 13.987 28.7741 13.9032C29.0283 13.8729 29.2854 13.8709 29.5461 13.8555V13.8559ZM28.9595 17.8429C28.9623 17.8247 28.9652 17.8065 28.968 17.7883C29.0826 17.7883 29.1976 17.7935 29.3117 17.7875C29.8959 17.7559 30.3425 17.4899 30.6231 16.9757C30.9214 16.4287 31.0672 15.8364 31.0939 15.215C31.1097 14.8421 30.9393 14.5559 30.602 14.432C30.2781 14.3134 29.9283 14.2251 29.5854 14.2065C28.7101 14.1591 27.87 14.3534 27.0688 14.7045C26.6749 14.8769 26.5745 15.034 26.6259 15.4611C26.67 15.8275 26.7518 16.1911 26.8356 16.551C26.9664 17.1121 27.3251 17.4777 27.8741 17.63C28.2283 17.7279 28.5968 17.7737 28.9587 17.8429H28.9595Z" fill="white"/>
<path d="M29.8239 28.2069C29.9021 27.8368 29.9931 27.3955 30.0883 26.9546C30.3029 25.9607 30.5142 24.9664 30.7365 23.9741C30.951 23.0154 31.1745 22.0583 31.4025 21.1024C31.4219 21.0214 31.5012 20.9546 31.5531 20.8813C31.6191 20.9348 31.717 20.9753 31.7446 21.0441C31.8016 21.1874 31.8705 21.3538 31.8474 21.4963C31.7595 22.0344 31.6377 22.5668 31.5267 23.1008C31.3612 23.8984 31.1948 24.6959 31.0272 25.4931C30.8689 26.2441 30.7065 26.9943 30.5502 27.7461C30.4802 28.0822 30.4158 28.4194 30.3595 28.7579C30.3385 28.8854 30.2806 28.9016 30.1802 28.8566C30.0166 28.7834 29.8162 28.4579 29.8247 28.2069H29.8239Z" fill="white"/>
<path d="M21.9445 21.1533C22.8725 21.6553 23.819 21.9634 24.817 22.1226C24.6279 22.5505 24.4534 22.9679 24.2591 23.3756C24.1729 23.5562 24.0478 23.7181 23.9381 23.8873C23.8409 24.0367 23.7316 24.0404 23.5826 23.942C22.9539 23.527 22.4583 22.98 22.0421 22.363C21.9571 22.2371 21.9591 22.0428 21.9482 21.8784C21.9332 21.6481 21.9445 21.4161 21.9445 21.1537V21.1533Z" fill="white"/>
<path d="M28.9721 21.2331C28.93 21.6169 28.8891 22.0007 28.8441 22.3845C28.8405 22.4145 28.8117 22.4424 28.7911 22.4687C28.3672 23.0028 27.9032 23.4967 27.3356 23.8825C27.0696 24.0631 27.0028 24.0566 26.8482 23.7781C26.6789 23.474 26.5352 23.1554 26.3802 22.8432C26.2696 22.6214 26.1587 22.3999 26.032 22.1465C27.0433 22.006 27.9854 21.6586 28.8822 21.1772C28.9121 21.1959 28.9425 21.2145 28.9725 21.2331H28.9721Z" fill="white"/>
<path d="M24.385 36.6556C24.385 36.8512 24.385 37.0467 24.385 37.2419C24.3846 37.4354 24.2741 37.5249 24.0935 37.5305C23.8846 37.537 23.6753 37.5305 23.4664 37.533C23.3563 37.5342 23.3097 37.4876 23.3097 37.3751C23.3089 36.903 23.3057 36.431 23.2984 35.9589C23.2964 35.8297 23.351 35.7722 23.4769 35.7722C23.6656 35.7722 23.8551 35.7601 24.0433 35.7714C24.2854 35.786 24.3794 35.8864 24.3903 36.1293C24.398 36.3042 24.3919 36.4799 24.3919 36.6552C24.3899 36.6552 24.3879 36.6552 24.3858 36.6552L24.385 36.6556Z" fill="white"/>
<path d="M35.8846 36.3887C35.8308 36.3887 35.7773 36.3887 35.7235 36.3887C35.3777 36.3871 35.2846 36.2729 35.3891 35.9377C35.4118 35.8644 35.5231 35.7798 35.6016 35.7709C35.8 35.7486 36.0033 35.7628 36.2045 35.7688C36.3555 35.7737 36.4417 35.847 36.4296 36.0105C36.4247 36.0773 36.4223 36.1454 36.428 36.2118C36.4389 36.3328 36.3862 36.3854 36.2668 36.3834C36.1393 36.3814 36.0118 36.383 35.8842 36.383C35.8842 36.385 35.8842 36.3867 35.8842 36.3887H35.8846Z" fill="white"/>
<path d="M12.913 36.6702C12.913 36.8653 12.9138 37.0605 12.913 37.2556C12.9122 37.4374 12.8057 37.5204 12.6381 37.5439C12.6247 37.5459 12.6114 37.5455 12.598 37.5467C11.8466 37.6034 11.781 37.5431 11.7798 36.7929C11.7798 36.5573 11.7822 36.3216 11.7762 36.086C11.7717 35.9014 11.862 35.803 12.0385 35.7994C12.2527 35.7949 12.4673 35.8058 12.6814 35.8172C12.8454 35.8257 12.9191 35.9265 12.9203 36.0844C12.9219 36.2795 12.9203 36.4747 12.9203 36.6698H12.913V36.6702Z" fill="white"/>
<path d="M13.9255 14.6968V15.4701C13.7814 15.4701 13.6292 15.4705 13.4773 15.4701C13.2211 15.4693 12.9648 15.4632 12.7085 15.4685C12.5737 15.4713 12.5081 15.4276 12.5142 15.2834C12.5215 15.1093 12.5158 14.9353 12.5158 14.7122C12.6587 14.8405 12.766 14.9425 12.8794 15.0377C13.1615 15.2745 13.2684 15.2766 13.5373 15.0251C13.6567 14.9134 13.7526 14.777 13.8591 14.6519C13.881 14.6668 13.9028 14.6822 13.9251 14.6972L13.9255 14.6968Z" fill="white"/>
<path d="M13.7798 13.9604C13.6073 14.1446 13.4373 14.3312 13.2603 14.511C13.2365 14.5353 13.1583 14.5466 13.1405 14.5288C12.9555 14.3434 12.7774 14.1507 12.5976 13.96C12.6085 13.9442 12.6195 13.9284 12.6308 13.9126H13.7547C13.7632 13.9284 13.7713 13.9446 13.7798 13.9604Z" fill="white"/>
<path d="M12.5357 18.3837C12.6923 18.5416 12.8008 18.661 12.9195 18.7683C13.1259 18.9558 13.2733 18.9643 13.4903 18.7946C13.6369 18.6801 13.7705 18.5493 13.9486 18.3914C13.9486 18.638 13.9535 18.8404 13.9429 19.042C13.9413 19.0691 13.8632 19.1133 13.8195 19.1141C13.4365 19.1222 13.0535 19.1262 12.6705 19.1197C12.6251 19.1189 12.545 19.0521 12.5417 19.0116C12.528 18.821 12.5357 18.6286 12.5357 18.3833V18.3837Z" fill="white"/>
<path d="M13.8158 17.7014C13.6373 17.8767 13.4612 18.0541 13.2778 18.2237C13.2547 18.2452 13.1745 18.2427 13.1514 18.2201C12.9757 18.0496 12.8077 17.8711 12.5988 17.6553H13.7834L13.8158 17.701V17.7014Z" fill="white"/>
<path d="M24.6365 42.3193C24.779 41.9306 24.9053 41.5857 25.0316 41.2407C25.0555 41.2419 25.0798 41.2436 25.1037 41.2448C25.228 41.593 25.3526 41.9411 25.4875 42.3193H24.636H24.6365Z" fill="white"/>
<path d="M12.5389 21.8804C12.5389 21.7051 12.5434 21.5298 12.5373 21.3549C12.5332 21.2456 12.5697 21.1893 12.6843 21.191C13.0345 21.1954 13.3851 21.1995 13.7353 21.2011C13.8365 21.2015 13.8774 21.2432 13.8762 21.3476C13.8725 21.7181 13.8729 22.0889 13.8782 22.4594C13.8798 22.5719 13.8369 22.6205 13.7264 22.6193C13.3826 22.6156 13.0389 22.6209 12.696 22.6043C12.6417 22.6015 12.5543 22.5055 12.5482 22.446C12.5288 22.2594 12.5409 22.0695 12.5409 21.8808H12.5389V21.8804Z" fill="white"/>
<path d="M25.4705 19.4063C25.1198 19.559 24.7931 19.7096 24.4595 19.842C24.3502 19.8853 24.2227 19.8881 24.1024 19.8974C23.9644 19.908 23.8591 19.8501 23.8466 19.7015C23.8348 19.5626 23.9126 19.4772 24.0454 19.4351C24.2692 19.3642 24.5004 19.3084 24.7117 19.2096C25.2255 18.9699 25.3368 18.5606 25.0385 18.0861C24.9741 17.9837 24.9045 17.8837 24.8506 17.776C24.7539 17.5816 24.8085 17.4136 25.0146 17.3954C25.3182 17.3687 25.6296 17.3861 25.9336 17.4189C26.0684 17.4335 26.1267 17.5719 26.0587 17.7039C25.9761 17.8646 25.8777 18.0181 25.7757 18.1679C25.579 18.4565 25.5927 18.712 25.83 18.9703C26.0296 19.1877 26.2903 19.2905 26.5676 19.3602C26.6656 19.3849 26.7636 19.4088 26.8619 19.4314C27.0089 19.4654 27.0883 19.5525 27.0624 19.7063C27.0368 19.8606 26.9126 19.9351 26.7822 19.908C26.4883 19.8472 26.1947 19.7703 25.9134 19.6667C25.7405 19.6031 25.5903 19.4788 25.4705 19.4059V19.4063Z" fill="black"/>
<path d="M23.4393 19.0389C23.3956 19.081 23.3421 19.1765 23.2697 19.1947C22.7608 19.3231 22.2486 19.4409 21.7344 19.5474C21.668 19.5611 21.5442 19.5065 21.5178 19.4506C21.4859 19.3822 21.5154 19.2737 21.5458 19.1927C21.564 19.1445 21.63 19.0951 21.6826 19.083C22.1802 18.9664 22.6786 18.8526 23.179 18.7502C23.3563 18.7138 23.4102 18.8454 23.4389 19.0393L23.4393 19.0389Z" fill="black"/>
<path d="M27.7514 18.708C28.0774 18.7861 28.4037 18.8623 28.7288 18.9436C28.885 18.9829 29.0425 19.023 29.1927 19.0797C29.3361 19.1335 29.4393 19.2319 29.381 19.4056C29.3263 19.5683 29.1915 19.5562 29.0616 19.5274C28.6025 19.4258 28.1438 19.3218 27.6855 19.2157C27.5288 19.1793 27.4672 19.0679 27.4806 18.9153C27.4948 18.7529 27.6178 18.7368 27.7514 18.708Z" fill="black"/>
<path d="M18.2175 29.1689C18.6162 29.1956 19.0081 29.3106 19.3223 29.6203C19.426 29.7227 19.4879 29.8474 19.3843 29.977C19.2851 30.1008 19.1466 30.0826 19.0162 30.0199C18.9685 29.9968 18.9239 29.9636 18.8847 29.9276C18.4758 29.5523 17.6713 29.6255 17.3685 30.0693C17.3535 30.0911 17.332 30.1089 17.3118 30.1264C17.2061 30.2179 17.0964 30.2656 16.9701 30.1612C16.8426 30.0559 16.8393 29.9381 16.928 29.8061C17.2288 29.3567 17.6733 29.1944 18.2179 29.1685L18.2175 29.1689Z" fill="black"/>
<path d="M21.93 17.8239C21.2296 17.8502 20.6263 17.6595 20.2806 17.0166C20.0927 16.6672 19.9911 16.268 19.8794 15.883C19.8203 15.679 19.8041 15.4575 19.8012 15.2437C19.7948 14.7688 19.9891 14.4972 20.4429 14.3599C21.128 14.1522 21.8284 14.1425 22.5203 14.3037C22.9701 14.4085 23.4114 14.5599 23.845 14.7211C24.1948 14.851 24.2915 15.0288 24.2361 15.3992C24.1737 15.817 24.096 16.2336 23.9984 16.6446C23.8502 17.2672 23.4106 17.5891 22.8085 17.7069C22.5191 17.7636 22.2227 17.7863 21.9296 17.8243L21.93 17.8239ZM21.5531 14.6454C21.2122 14.7126 20.8709 14.7769 20.5308 14.8474C20.311 14.8927 20.2385 15.0425 20.2644 15.2527C20.3239 15.7356 20.4158 16.2122 20.6377 16.6498C20.8211 17.0122 21.0964 17.2717 21.5308 17.2745C21.8595 17.2765 22.1923 17.281 22.5158 17.2336C22.9474 17.1705 23.3575 17.0178 23.5012 16.5466C23.6162 16.1693 23.6826 15.7773 23.7709 15.3915C23.7988 15.2705 23.7207 15.2243 23.6292 15.1842C22.9701 14.8944 22.2895 14.6956 21.5535 14.6454H21.5531Z" fill="black"/>
<path d="M28.9596 17.8431C28.5976 17.7739 28.2288 17.7281 27.8749 17.6301C27.3259 17.4783 26.9677 17.1123 26.8365 16.5512C26.7523 16.1909 26.6709 15.8277 26.6268 15.4613C26.5753 15.0342 26.6757 14.8771 27.0697 14.7046C27.8709 14.3536 28.7106 14.1597 29.5863 14.2067C29.9292 14.2253 30.279 14.3131 30.6029 14.4322C30.9401 14.556 31.1106 14.8423 31.0948 15.2152C31.0681 15.8366 30.9227 16.4293 30.6239 16.9759C30.3434 17.4901 29.8968 17.756 29.3126 17.7876C29.1984 17.7937 29.0834 17.7884 28.9689 17.7884C28.966 17.8067 28.9632 17.8249 28.9604 17.8431H28.9596ZM29.3442 14.6484C29.3405 14.6666 29.3365 14.6852 29.3328 14.7034C28.6142 14.7054 27.9296 14.8601 27.2794 15.1662C27.1701 15.2176 27.0705 15.2751 27.1045 15.4208C27.1871 15.7747 27.2579 16.1322 27.3608 16.4799C27.4555 16.8006 27.6729 17.0131 27.9984 17.1309C28.4292 17.2868 28.8681 17.2945 29.3142 17.2722C29.7049 17.2528 29.9907 17.0658 30.1863 16.7354C30.4559 16.2803 30.5798 15.7807 30.6296 15.2585C30.6486 15.0589 30.5604 14.918 30.3806 14.871C30.0389 14.782 29.6903 14.7208 29.3446 14.6479L29.3442 14.6484Z" fill="black"/>
<path d="M21.5531 14.645C22.2891 14.6952 22.9697 14.894 23.6288 15.1839C23.7203 15.2244 23.7984 15.2701 23.7705 15.3912C23.6822 15.7766 23.6158 16.1689 23.5008 16.5462C23.3571 17.0175 22.947 17.1701 22.5154 17.2333C22.1919 17.2806 21.8591 17.2762 21.5304 17.2742C21.096 17.2713 20.8207 17.0114 20.6373 16.6495C20.4158 16.2118 20.3239 15.7353 20.264 15.2523C20.2381 15.0422 20.3105 14.8924 20.5304 14.847C20.8705 14.7766 21.2118 14.7122 21.5526 14.645H21.5531ZM21.7567 16.0114C21.8275 16.196 21.8713 16.3977 21.9745 16.562C22.168 16.8697 22.5409 16.8628 22.7409 16.5604C22.8988 16.3219 22.9603 16.0515 22.9109 15.7689C22.8393 15.3608 22.4777 15.1701 22.1259 15.3495C21.8628 15.4831 21.7939 15.7219 21.7567 16.0114Z" fill="white"/>
<path d="M29.3441 14.6484C29.6899 14.7213 30.0385 14.7824 30.3802 14.8715C30.5599 14.9185 30.6482 15.059 30.6292 15.259C30.5794 15.7812 30.4555 16.2808 30.1858 16.7359C29.9903 17.0663 29.7045 17.2533 29.3138 17.2727C28.8672 17.295 28.4284 17.2873 27.998 17.1314C27.6725 17.0136 27.4551 16.8011 27.3603 16.4804C27.2575 16.1326 27.1867 15.7752 27.1041 15.4213C27.0701 15.2756 27.1697 15.2181 27.279 15.1667C27.9292 14.861 28.6138 14.7059 29.3324 14.7039C29.336 14.6857 29.3401 14.6671 29.3437 14.6488L29.3441 14.6484ZM29.0777 16.0294C29.0636 16.0233 29.0494 16.0169 29.0348 16.0108C29.0259 15.9173 29.0243 15.8217 29.0065 15.7298C28.9591 15.4853 28.7737 15.3201 28.5369 15.3019C28.2794 15.282 28.0555 15.4067 27.9879 15.6517C27.8903 16.0063 27.9255 16.3476 28.1948 16.6306C28.3927 16.8387 28.7016 16.8363 28.8555 16.5954C28.9628 16.4278 29.0061 16.2193 29.0777 16.029V16.0294Z" fill="white"/>
<path d="M21.7567 16.0115C21.794 15.7217 21.8632 15.4832 22.1259 15.3496C22.4778 15.1707 22.8393 15.3609 22.911 15.769C22.9604 16.0516 22.8992 16.3221 22.7409 16.5605C22.5405 16.863 22.1676 16.8698 21.9745 16.5622C21.8713 16.3978 21.8276 16.1966 21.7567 16.0115Z" fill="black"/>
<path d="M29.0777 16.0295C29.0057 16.2198 28.9623 16.4283 28.8555 16.5959C28.7016 16.8368 28.3927 16.8392 28.1947 16.6311C27.9259 16.3481 27.8903 16.0068 27.9878 15.6521C28.0555 15.4072 28.2793 15.2825 28.5368 15.3023C28.7737 15.3206 28.9591 15.4857 29.0065 15.7303C29.0243 15.8222 29.0259 15.9173 29.0348 16.0113C29.049 16.0173 29.0631 16.0238 29.0777 16.0299V16.0295Z" fill="black"/>
</g>
<defs>
<clipPath id="clip0_2760_231660">
<rect width="50" height="50" fill="white" transform="translate(0.5 0.5)"/>
</clipPath>
</defs>
</svg>
