<?xml version="1.0" encoding="UTF-8"?>
<svg xmlns="http://www.w3.org/2000/svg" version="1.1" viewBox="0 0 1610.57 1186.62">
  <defs>
    <style>
      .cls-1 {
        fill: #fff;
      }
    </style>
  </defs>
  <!-- Generator: Adobe Illustrator 28.7.1, SVG Export Plug-In . SVG Version: 1.2.0 Build 142)  -->
  <g>
    <g id="Layer_1">
      <g>
        <path class="cls-1" d="M188.28,1133.31V53.31h1234v1080H188.28ZM704.41,477.79c-1.32.78-2.36,1.55-3.51,2.06-7.28,3.28-14.68,6.29-21.85,9.77-48.39,23.51-87.05,57.9-115.1,103.91-15.19,24.92-25.55,51.88-32.17,80.25-2.23,9.55-3.7,19.29-5.16,29-1.23,8.2,2.2,11.99,10.36,12.06,4.5.04,9.02-.36,13.49-.02,4.96.37,7.07-1.73,8.08-6.44,4.57-21.39,17.37-36.93,36.09-47.29,31.8-17.61,63.78-16.32,95.15,1.37,17.52,9.88,29.6,24.58,35.71,43.84,2.57,8.12,2.28,8.31,10.68,8.32,45.67.03,91.33.02,137,0,25.67,0,51.33-.11,77-.04,4.25.01,7.28-1.4,9.54-5.05,3.33-5.37,6.73-10.72,10.53-15.75,1.28-1.7,3.82-3.27,5.89-3.4,7.31-.46,14.66-.33,21.99-.32,9.67,0,19.33.16,29,.12,3.71-.01,7.16-.8,7.48-5.5.27-4.04-2.94-7.21-7.56-7.53-1.82-.13-3.66-.03-5.5-.03-26-.02-52-.06-78-.04-3.4,0-5.91-.23-4.93-4.92,3.92-18.74,7.46-37.55,11.42-56.28,7.61-35.98,15.37-71.93,23.16-107.87,2.22-10.24,5.4-20.44-1.48-30.2-.1-.15.21-.59.38-1.03.58-.08,1.23-.25,1.87-.25,70.83-.01,141.66-.03,212.5.02,8.81,0,14.9,6.86,13.19,15.42-5.05,25.29-10.49,50.5-15.77,75.75-6.64,31.76-13.32,63.51-19.87,95.29-1.89,9.17-7.25,14.12-15.93,14.11-9-.01-18,.15-26.99-.2-1.76-.07-4.34-1.76-5.01-3.35-5.21-12.41-10.17-24.93-14.93-37.52-3.13-8.27-8.96-12.96-17.61-13.11-14.99-.27-30-.09-44.99.23-6.78.14-10.72,6.31-8.39,12.62,4.8,12.95,9.94,25.77,14.58,38.77,4.01,11.26,8.05,22.55,11.07,34.09,2.51,9.59-4.63,18.44-13.71,18.42-17.66-.04-35.33-.13-52.99-.19-2.54,0-5.08,0-7.89,0,3.54-8.89,5.57-10.35,13.68-10.35,12.67,0,25.33.05,38,0,5.3-.02,8.03-2.16,8.06-6.09.02-4.03-2.7-6.5-7.78-6.5-15,.02-30,.23-45,.29-4.72.02-8.33,1.97-11.05,5.74-2.73,3.78-5.63,7.45-8.11,11.39-2.47,3.92-5.61,5.42-10.31,5.42-81.5-.05-162.99.05-244.49.09-1.73,0-3.47-.26-5.54-.43.86-3.37,1.83-6.02,2.18-8.75,1.92-14.95-5.66-25.99-15.64-35.59-25.82-24.83-73.36-27.25-102.09-5.02-15.71,12.16-25.12,27.48-20.21,48.5.06.24-.28.57-.83,1.59-2.39,0-5.19,0-7.98,0-43.33.08-86.66.15-130,.23-5.5.01-11.05-.33-16.46.39-1.97.26-4.95,3.09-5.02,4.84-.08,2.21,2,4.88,3.84,6.61,1.06,1,3.49.73,5.3.72,112.83-.06,225.66-.2,338.49-.21,149.16-.01,298.33.08,447.49.12,7.04,0,10.39-2.14,10.39-6.56,0-4.36-3.43-6.23-10.53-6.21-26.5.07-53,.04-79.49,0-1.88,0-3.76-.41-6.28-.7,5.91-12.47,3.5-24.22-.86-36.44,9.37,0,17.83-.35,26.24.09,10.65.55,19.31-3.21,24.51-12.24,3.12-5.41,4.35-12.05,5.73-18.3,4.91-22.26,9.46-44.6,14.24-66.89,6.66-31.08,13.01-62.23,20.26-93.17,5.3-22.63-10.36-36.99-28.65-35.88-14.62.89-29.32.34-43.99.38-58.83.13-117.66.23-176.5.34-13.43.02-20.47,3.49-24.5,21.48-.6,2.7-1.04,5.44-1.6,8.4-12-5.49-23.37-10.68-35.57-16.26,5.2-3.88,9.78-7.09,14.13-10.59,17.73-14.26,32.95-30.51,40.91-52.41,5.09-14,5.91-28.58,6.27-43.29.29-12.07,2.52-23.38,7.45-35.02,9.11-21.53,4.51-29.82-14.66-37.25-.16-.06-.31-.14-.47-.16-3.19-.46-3.3-2.08-2.58-4.96,7.31-29.1,10.76-58.62,8.79-88.64-.41-6.3-1.23-12.6-2.41-18.8-1.88-9.8-6.96-13.27-16.35-10.92-9.66,2.42-19.33,5.03-28.7,8.38-18.57,6.63-34.55,17.17-46.09,33.5-2.15,3.04-3.85,3.35-7.33,2.53-13.08-3.11-26.17-6.83-39.47-8.2-24.03-2.47-47.93-.64-71.04,7.26-2.75.94-4.77,1.08-6.85-1.72-19.46-26.23-47.59-36.78-78.18-42.51-6.55-1.23-10.62,2.03-12.76,8.56-.72,2.21-1.29,4.5-1.59,6.8-4.4,33.69-3.21,67.15,4.48,100.29,1.64,7.05,1.73,7.18-4.93,9.86-12.37,4.98-17.92,13.35-15.95,24.95.71,4.21,1.66,8.82,3.99,12.22,5.62,8.18,6.55,17.07,6.8,26.57.33,12.63.61,25.4,2.68,37.82,3.56,21.32,15.54,38.38,30.85,53.05,8.13,7.79,17.07,14.73,26.24,22.56ZM418.35,391h.18c0,55.15-.01,110.3.03,165.46,0,2.81.07,5.73.78,8.41,2.46,9.27,9.92,14.27,21.43,14.29,33.32.08,66.65.05,99.97.04,1.66,0,3.34-.05,4.98-.29,3.57-.53,5.96-2.58,5.84-6.28-.13-3.77-2.38-6.11-6.29-6.47-1.32-.12-2.66-.11-3.99-.1-22.16.08-44.32.18-66.48.25-11,.03-21.99.01-32.99,0-7.73,0-10.25-2.41-10.48-9.95-.04-1.17-.05-2.33-.05-3.5.03-95.64.1-191.28.02-286.92,0-4.63,1.41-5.83,5.97-5.83,60.82.1,121.63,0,182.45-.06,1.83,0,3.99.52,5.42-.26,2.1-1.15,4.87-3.07,5.15-4.98.29-1.96-1.75-4.62-3.4-6.37-.9-.96-3.11-.94-4.74-.94-37.16,0-74.31.07-111.47.08-24.99,0-49.98-.07-74.98-.08-2.24,0-4.46.32-4.44-3.06.04-6.83-.18-13.66-.06-20.49.07-3.87,2.44-6.13,6.2-6.65,2.29-.31,4.65-.22,6.98-.22,59.65.04,119.3.11,178.95.14,5.63,0,8.19-2.08,8.25-6.41.07-4.3-2.57-6.51-8.17-6.5-62.48.03-124.97.08-187.45.21-2.24,0-4.68.52-6.68,1.5-7.61,3.74-11,9.99-10.99,18.53.09,55.48.05,110.97.05,166.46ZM613.94,820.72c0,.14,0,.27,0,.41-19.66,0-39.32-.07-58.98.04-6.27.04-7.74,1.44-7.76,7.14-.1,26.66-.07,53.32-.12,79.98,0,4.46,2.04,6.89,6.53,6.96,5.33.09,10.66.04,15.99.06,7.8.03,9.39-1.62,9.34-9.29-.12-17.66-.07-35.33-.31-52.99-.05-4,1.11-5.78,5.31-5.66,4.49.14,8.99-.36,13.48-.35,7.58.02,9.39,1.96,9.4,9.51.03,17.16.05,34.33.12,51.49.03,5.91,1.15,7.15,6.92,7.28,5.49.12,11,.08,16.49-.1,6.52-.21,8.06-1.99,8.05-8.58-.04-18,.01-35.99-.14-53.99-.03-3.68.9-5.63,4.99-5.5,4.99.15,10-.35,14.98-.09,6.16.32,8.05,2.66,8.04,8.86-.03,17.5.04,34.99-.14,52.49-.04,4.41,1.74,6.68,6,6.79,6.49.18,12.99.35,19.47.08,3.56-.15,6.51-1.86,6.49-6.13-.11-22.16,0-44.32-.51-66.47-.2-8.77-4.61-15.8-13.15-18.92-4.75-1.73-9.99-2.81-15.03-2.9-18.49-.34-36.99-.13-55.48-.13ZM719.67,883.27h.11c0,18.81-.01,37.62,0,56.43,0,6.17,1.44,7.64,7.69,7.73,5.49.08,10.99.19,16.48-.04,5.24-.22,7.09-2.47,7.03-7.58-.07-5.98-.16-11.97-.05-17.96.12-6.75.21-6.62,7.23-6.66,10.3-.06,20.66.35,30.88-.66,11.4-1.13,19.57-9.29,20.06-20.77.75-17.41.16-34.89.04-52.33-.01-1.61-.57-3.28-1.19-4.8-4.72-11.7-14.61-15.6-25.99-15.84-18.3-.39-36.62-.03-54.93.17-6.2.07-7.34,1.45-7.36,7.89-.03,18.15-.01,36.29-.01,54.44ZM1214.54,851.29c.08,0,.16,0,.24,0,0,18.82-.05,37.64.03,56.46.02,5.99,1.4,7.31,7.37,7.49,4.66.15,9.33.14,13.99.16,8.72.05,9.71-.9,9.69-9.66-.04-17.65-.04-35.31-.28-52.96-.06-4.13,1.4-5.68,5.45-5.59,4.65.1,9.32-.41,13.98-.31,8.34.18,9.52,1.48,9.52,9.69,0,17.32.04,34.64-.07,51.96-.03,4.19,1.39,6.9,5.83,6.96,6.16.09,12.33.12,18.48-.21,5.38-.28,6.82-2.12,6.82-7.73.01-19.65.02-39.3-.02-58.96-.04-18.41-10.02-28.3-28.51-28.28-8.33,0-16.66-.04-24.98.21-4.34.13-6.38-1.11-6.13-5.92.36-6.97.1-13.98.1-20.97,0-4.49-2.23-6.8-6.74-6.8-5.5,0-10.99,0-16.49.05-6.35.06-8.28,2.07-8.28,8.45,0,18.65,0,37.31,0,55.96ZM1071.24,914.97c0,.18,0,.37,0,.55,5.83,0,11.66-.04,17.5,0,14.79.12,17.47.16,16.12-16.89-.49-6.13-2.24-7.97-8.32-7.97-10.83,0-21.66.01-32.49-.04-3.16-.01-6.4.18-9.46-.43-4.45-.9-5.4-4.6-5.13-8.5.28-4.07,3.71-2.61,5.83-2.62,13.83-.08,27.66.13,41.49.1,6.83-.01,9.66-2.91,9.7-9.79.04-8.16.2-16.34-.24-24.48-.72-13.04-7.58-22.03-20.47-23.18-15.5-1.38-31.27-1.22-46.81-.13-11.47.8-19.07,8.19-19.83,19.67-1.14,17.23-1.33,34.67.1,51.86,1.15,13.89,8.99,20.38,23.07,21.67,9.57.88,19.29.17,28.95.17ZM525.91,868.69c-.06,0-.12,0-.18,0,0-7.99.42-16.01-.1-23.97-.81-12.65-7.97-21.49-20.49-22.68-15.02-1.43-30.29-1.83-45.33-.84-14.29.94-23.49,10.17-24.04,23-.69,16.12-.52,32.32.19,48.45.5,11.45,9.07,20.96,20.48,21.69,16.04,1.04,32.25,1.19,48.28.06,12.83-.9,20.47-10.36,21.12-23.22.38-7.48.07-14.99.07-22.48ZM327.92,854.07s.05,0,.08,0c0,10.33-.29,20.67.06,30.99.64,18.49,12.36,30.18,30.74,30.47,16.49.26,32.99,0,49.48-.23,8.14-.11,10.15-2.48,10.03-10.74-.03-2,0-4,.01-6,.02-9.11-1.27-10.36-10.43-10.32-12.33.06-24.66.21-36.99.07-7.4-.09-11.62-3.45-11.72-9.49-.27-16.82-.28-33.65-.3-50.48,0-4.94,2.81-7.67,7.52-8.43,2.45-.4,4.97-.6,7.45-.58,11.5.11,22.99.38,34.49.49,6.8.07,9.02-2.11,9.21-8.87.1-3.66.08-7.33.02-11-.1-6.22-1.53-7.75-7.64-7.75-16.5,0-32.99-.03-49.49.2-19.93.27-32.26,12.72-32.52,32.67-.13,9.66-.02,19.33-.02,28.99ZM1114.06,331.79h.06c0-35.99.01-71.98,0-107.97,0-11.71-7.74-19.47-19.29-19.47-35.49,0-70.98,0-106.47,0-1.83,0-4.01-.47-5.41.34-2.1,1.21-4.64,3.14-5.12,5.2-.38,1.65,1.61,4.47,3.31,5.81,1.49,1.18,4.02,1.39,6.1,1.43,6.33.14,12.66-.05,18.99-.05,28.16.01,56.32.03,84.47.07,9.25.01,10.51,1.27,10.56,10.26.03,4.67-.32,9.36.12,13.99.46,4.9-1.32,6.16-6.08,6.14-35.49-.15-70.98-.05-106.47.02-1.97,0-4.55-.3-5.78.77-1.86,1.61-3.86,4.34-3.78,6.52.06,1.78,2.79,4.02,4.84,5.02,1.77.87,4.24.34,6.41.33,35.16-.05,70.31-.06,105.47-.26,4.15-.02,5.35,1.25,5.33,5.4-.19,37.32-.16,74.64-.2,111.96-.02,21.66,0,43.32-.09,64.98-.02,4.16,1.52,6.8,5.79,7.25,3.71.39,6.68-2.49,7.15-6.79.15-1.32.08-2.66.08-3.99,0-35.66,0-71.31,0-106.97ZM985.12,916.24l.02-.34c2.16,0,4.33.03,6.49,0,2.16-.04,4.35,0,6.48-.29,4.34-.58,6.98-2.86,6.95-7.56-.03-3.5.09-7,0-10.49-.15-5.48-1.76-7.01-7.34-7.08-2.83-.04-5.66.2-8.49.11-5.51-.18-7.67-2.11-7.75-7.53-.17-10.82,0-21.65-.13-32.47-.04-3.35,1.49-4.34,4.57-4.28,4.49.08,8.99-.14,13.49-.16,3.87-.01,5.92-1.78,5.9-5.74-.02-4.33-.07-8.66-.03-12.99.04-4.23-2.22-5.99-6.21-6.07-4.49-.09-8.99-.28-13.48-.31-2.92-.02-4.2-1.29-4.17-4.25.04-4.49-.15-8.99-.26-13.49-.08-3.44-1.86-5.25-5.3-5.24-6.49.02-12.99.05-19.48.2-4.55.1-6.55,2.69-6.45,7.11.09,4,.13,7.99.24,11.99.07,2.59-.8,4.03-3.73,4-12.09-.11-11.89-.02-11.9,12.98,0,1.17.04,2.33.08,3.5.29,7.83.59,8.14,8.27,8.35,7.81.21,7.72.21,7.75,8.26.07,13.65-.21,27.32.56,40.94.61,10.93,7.66,17.96,18.52,19.7,5.07.82,10.27.79,15.4,1.15ZM1170.79,820.6c0-.17-.02-.34-.03-.51-8.79.5-17.69.34-26.36,1.65-11.93,1.8-20.1,10.88-20.54,22.99-.56,15.3-.64,30.67.07,45.96.63,13.76,8.61,22.9,22.17,24.05,15.03,1.27,30.24.52,45.38.41,4.22-.03,6.12-2.87,6.09-7.01-.03-3.33.01-6.67-.1-9.99-.22-6.44-1.66-7.79-8.23-7.81-8.66-.02-17.33,0-25.99-.04-3.7-.02-7.91-.8-8.17-4.91-.69-10.76-.79-21.59-.36-32.36.08-1.98,3.47-4.56,5.88-5.53,2.64-1.07,5.9-.73,8.89-.77,7.49-.1,14.99-.09,22.48-.07,3.95.01,5.81-1.86,5.72-5.82-.1-4.33-.06-8.66-.16-12.99-.12-5.43-1.73-7.13-7.24-7.23-6.5-.13-12.99-.03-19.49-.03ZM829.11,845.86h.2c0,17.31-.16,34.62.06,51.93.12,9.6,5.36,15.94,14.82,17.14,7.71.97,15.6.85,23.39.67,7.15-.17,8.09-1.45,8.32-8.78.09-2.99-.03-5.98-.08-8.97-.06-3.46-1.92-5.41-5.3-5.22-8.69.47-10.04-3.48-10-11.06.14-28.96.02-57.93-.02-86.89,0-6.22-1.53-7.8-7.56-7.86-5.16-.05-10.32-.06-15.48-.03-6.99.05-8.35,1.47-8.36,8.64-.01,16.81,0,33.62,0,50.44ZM699.14,1005.7c-7.08-13-13.79-24.31-19.45-36.13-2.93-6.11-6.63-8.21-13.12-7.69-4.35.34-6.23,1.56-6.18,6.16.19,21.49.31,42.99.1,64.48-.06,5.61,2.69,6.23,7.11,6.1,6.38-.19,6.7-.31,6.75-6.27.11-12.16.17-24.32.31-36.49.02-1.61.37-3.21.56-4.81,1.74.94,2.35,1.86,2.89,2.82,4.83,8.52,9.31,17.27,14.58,25.51,4.65,7.26,10.91,6.61,14.88-1,2.47-4.72,4.83-9.49,7.33-14.2,2.51-4.73,5.12-9.4,7.69-14.09.42.12.85.24,1.27.36.09,1.75.25,3.49.25,5.24,0,12.33.11,24.66-.14,36.99-.09,4.62,1.63,6.46,6.13,5.99,1.32-.14,2.66-.08,4-.06,2.63.05,4.02-1.04,4.02-3.83.03-22.49.15-44.99.08-67.48,0-1.43-.95-3.39-2.1-4.2-4.24-3.01-13.52-.68-16.01,4.01-5.06,9.55-9.85,19.24-14.88,28.8-1.57,2.99-3.56,5.77-6.06,9.79ZM509.71,293.06s0,.07,0,.11c-9.49,0-18.99-.1-28.48.03-6.38.09-10.18,4.17-10.12,10.49.14,13.98.29,27.97.48,41.95.11,8.01,4.25,12.3,12.31,12.42,11.65.17,23.31.19,34.97.14,8.03-.04,13.43-5.43,13.62-13.43.13-5.66.92-11.46,0-16.96-1.74-10.35.87-18.33,9.49-24.59,1.49-1.09,2.58-4.84,1.83-6.37-.9-1.83-3.94-3.54-6.12-3.63-9.31-.39-18.64-.17-27.97-.17ZM509.28,385.23c0,.12,0,.24,0,.35-8.99,0-17.99-.13-26.98.04-6.68.13-10.1,3.7-10.11,10.3-.03,13.82-.02,27.65.09,41.47.05,6.29,4.3,10.94,10.43,11.04,12.82.2,25.65.26,38.47.03,7.4-.14,11.96-5.16,12.05-12.53.07-5.99.43-12.03-.12-17.98-.81-8.74.44-16.29,7.75-22.25,1.54-1.25,2.52-5.29,1.64-6.85-1.06-1.88-4.35-3.36-6.74-3.47-8.81-.4-17.64-.16-26.47-.16ZM888.3,868.19h.02c0,13.33.2,26.66-.1,39.98-.11,4.86,2.13,6.88,6.34,7.05,6.15.24,12.32.16,18.47-.03,4.76-.15,6.53-2.96,6.44-7.62-.19-10.16-.16-20.33-.11-30.49.08-15.83.28-31.66.35-47.48.03-6.13-1.39-7.66-7.1-7.76-5.16-.09-10.33-.05-15.49.05-8.43.16-8.82.59-8.81,8.81,0,12.5,0,24.99,0,37.49ZM794.46,962.72c-5.69-1.32-8.68,1.35-10.4,6.59-2.39,7.26-5.16,14.39-7.86,21.54-5.34,14.15-10.8,28.26-16.04,42.44-.53,1.44-.65,4.07.2,4.81,3.33,2.92,12.84.31,14.5-3.59,1.99-4.67,2.84-11.14,6.39-13.46,3.67-2.4,9.98-.85,15.13-.86,12.94-.04,13.25-.12,17.54,11.88,1.86,5.21,4.65,6.93,9.88,6.61,6.17-.38,7.33-1.81,5.07-7.63-7.91-20.46-15.9-40.89-23.69-61.4-1.96-5.17-4.74-8.39-10.73-6.94ZM919.57,1000.23c.16,0,.31,0,.47,0,0,10.99.13,21.98-.07,32.97-.07,4.11,1.44,5.58,5.51,5.56,13.82-.07,27.64-.02,41.46.26,4.84.1,5.88-2.24,5.82-6.41-.06-4.13-1.03-6.54-5.95-6.38-9.48.31-18.98.06-28.47.17-3.04.03-4.69-.79-4.5-4.25.22-4.15.16-8.33,0-12.48-.12-3.29,1.31-4.36,4.48-4.3,7.49.14,14.99-.08,22.48.05,4.59.08,4.43-3.07,4.53-6.09.1-3.12.05-6.2-4.43-6.17-4.99.03-9.99-.04-14.98-.17-11.97-.3-11.8-.33-11.9-12.46-.03-4.19,1.27-5.43,5.42-5.3,9.15.29,18.31.09,27.47.06,5.24-.02,4.97-3.73,4.94-7.37-.02-3.54-.62-5.99-5.21-5.9-13.48.25-26.97.07-40.46.18-6.24.05-6.63.63-6.62,7.06.03,10.32,0,20.65,0,30.97ZM472.27,503.3c.1,0,.19,0,.29,0,0,6.16-.02,12.31,0,18.47.04,8.74,4.43,13.23,13.15,13.31,10.15.09,20.3.07,30.44.1,10.2.04,15.02-4.67,15.06-14.83.05-11.14-.05-22.29.06-33.43.08-7.68-4.35-13.41-12.04-13.68-11.96-.43-23.95-.36-35.92,0-7.13.21-11.01,4.91-11.05,12.1-.04,5.99,0,11.98,0,17.97ZM862.48,1006.26h-.04c0,8.99-.11,17.98.09,26.97.04,1.71.83,4.34,2.05,4.92,6.94,3.28,12.24-.33,12.23-7.96-.02-16.65.06-33.3-.18-49.94-.06-4.25,1.34-5.55,5.44-5.25,4.3.31,8.65.11,12.97-.05,4.99-.19,4.39-3.87,4.41-7.25.02-3.42-.67-5.91-4.86-5.86-16.48.19-32.96.33-49.44.4-4.1.02-4.99,2.26-4.92,5.8.07,3.48-.14,6.91,4.77,6.97,3.5.04,6.99.1,10.49.11,6.93.04,6.95.03,6.97,6.69.02,8.16,0,16.32,0,24.47ZM585.77,500.55v.1c12.3,0,24.6.06,36.91-.03,5.08-.03,7.58-2.35,7.31-6.68-.27-4.4-2.79-6.48-7.2-6.47-24.27.02-48.54-.03-72.81.02-5.62.01-8.28,2.29-8.16,6.51.14,4.58,2.39,6.5,8.05,6.53,11.97.06,23.94.02,35.91.02ZM584.59,309.57s0-.05,0-.08c-10.33,0-20.66-.09-30.99.04-5.27.06-7.71,2.31-7.65,6.45.06,4.1,2.67,6.65,7.69,6.69,20.16.15,40.32.18,60.49.11,4.94-.02,7.83-2.79,7.69-6.64-.15-4.16-2.79-6.5-7.72-6.54-9.83-.07-19.66-.02-29.5-.02ZM1017.28,432.38v.09c8.83,0,17.65.02,26.48,0,5.67-.02,8.79-2.36,8.91-6.55.12-4.15-3.19-6.69-8.75-6.69-16.82,0-33.64.01-50.46.06-2.33,0-4.69,0-6.97.41-4.64.82-7.03,5.06-4.54,8.89,1.21,1.86,4.15,3.55,6.37,3.64,9.64.39,19.31.17,28.97.17ZM579.31,399.45c0,.07,0,.14,0,.2-9.14,0-18.28-.09-27.41.05-3.58.05-5.98,1.81-6.07,5.8-.08,3.75,1.74,5.96,5.36,6.63,1.95.36,3.95.63,5.93.64,15.45.09,30.91.16,46.36.12,5.39-.01,8.09-2.36,8.19-6.63.1-4.51-2.64-6.77-8.43-6.8-7.98-.04-15.95-.01-23.93-.01ZM904.51,785.24v-.05c-3.49,0-6.97-.02-10.46,0-3.7.02-6.11,1.75-6.32,5.55-.28,4.96-.45,9.95-.26,14.92.13,3.43,2.32,5.48,5.86,5.55,7.13.13,14.27.14,21.41.18,3.38.02,5.4-1.79,5.72-5.02.41-4.28.68-8.6.57-12.9-.17-6.42-2.09-8.12-8.53-8.23-2.66-.04-5.31,0-7.97,0ZM566.47,524.11s0,.07,0,.1c4.82,0,9.64.11,14.46-.05,2.11-.07,4.74-.06,6.15-1.25,1.75-1.48,3.59-4.33,3.32-6.28-.28-1.97-3.07-5.03-4.85-5.1-12.77-.48-25.56-.54-38.33-.11-1.99.07-5.17,3.15-5.43,5.14-.26,1.97,2.18,4.67,4.05,6.39,1.13,1.04,3.41,1.07,5.18,1.12,5.15.13,10.3.05,15.46.05ZM565.4,435.69c0-.12.01-.23.02-.35,3.66,0,7.35.25,10.99-.07,3.62-.32,6.3-2.37,6.76-6.19.42-3.44-1.4-6.37-4.71-6.56-8.6-.48-17.27-.66-25.84-.05-1.96.14-4.59,3.68-5.24,6.1-.9,3.34,1.78,5.58,5.12,6.03,4.27.57,8.6.74,12.9,1.09ZM561.85,344.96c.02.12.05.23.07.35,4.06-.53,8.3-.54,12.12-1.82,1.72-.58,3.72-3.81,3.53-5.62-.22-2.1-2.54-5.48-4.25-5.67-7.36-.83-14.83-1.03-22.24-.76-3.58.13-5.13,3.13-5.06,6.83.07,3.67,2.11,5.58,5.41,6.04,3.44.48,6.95.46,10.42.66ZM459.56,231.21c-1.57-1.14-3.66-3.55-6.24-4.32-2.99-.9-6.22,2.94-6.11,6.35.14,4.02,2.83,5.72,6.25,5.68,3.52-.05,5.85-2.15,6.1-7.7ZM473.41,230.89c.55,5.08,2.48,8.1,5.94,7.54,2.19-.35,4.82-3.2,5.65-5.51,1.05-2.96-2.95-7.15-5.79-6.27-2.4.74-4.3,3.08-5.79,4.23Z"/>
        <path d="M704.41,477.79c-9.17-7.84-18.11-14.78-26.24-22.56-15.31-14.66-27.3-31.72-30.85-53.05-2.07-12.42-2.35-25.19-2.68-37.82-.25-9.5-1.19-18.39-6.8-26.57-2.33-3.4-3.28-8.01-3.99-12.22-1.96-11.59,3.58-19.97,15.95-24.95,6.66-2.68,6.57-2.81,4.93-9.86-7.69-33.15-8.88-66.6-4.48-100.29.3-2.3.87-4.6,1.59-6.8,2.14-6.53,6.21-9.78,12.76-8.56,30.59,5.74,58.72,16.28,78.18,42.51,2.08,2.8,4.09,2.66,6.85,1.72,23.11-7.91,47.01-9.73,71.04-7.26,13.3,1.37,26.39,5.09,39.47,8.2,3.48.83,5.19.51,7.33-2.53,11.54-16.33,27.52-26.87,46.09-33.5,9.37-3.35,19.04-5.96,28.7-8.38,9.39-2.35,14.47,1.12,16.35,10.92,1.19,6.2,2,12.5,2.41,18.8,1.97,30.02-1.48,59.54-8.79,88.64-.72,2.88-.61,4.51,2.58,4.96.16.02.32.1.47.16,19.17,7.43,23.78,15.72,14.66,37.25-4.93,11.63-7.15,22.95-7.45,35.02-.36,14.72-1.17,29.3-6.27,43.29-7.97,21.89-23.18,38.15-40.91,52.41-4.35,3.5-8.94,6.71-14.13,10.59,12.2,5.57,23.57,10.77,35.57,16.26.56-2.96.99-5.7,1.6-8.4,4.03-17.99,11.07-21.46,24.5-21.48,58.83-.11,117.66-.21,176.5-.34,14.67-.03,29.37.51,43.99-.38,18.29-1.11,33.95,13.25,28.65,35.88-7.25,30.94-13.59,62.09-20.26,93.17-4.78,22.29-9.33,44.63-14.24,66.89-1.38,6.24-2.61,12.88-5.73,18.3-5.2,9.03-13.86,12.79-24.51,12.24-8.42-.43-16.87-.09-26.24-.09,4.36,12.22,6.77,23.96.86,36.44,2.52.29,4.4.7,6.28.7,26.5.04,53,.07,79.49,0,7.1-.02,10.53,1.85,10.53,6.21,0,4.42-3.35,6.56-10.39,6.56-149.16-.04-298.33-.13-447.49-.12-112.83.01-225.66.16-338.49.21-1.81,0-4.24.28-5.3-.72-1.84-1.74-3.92-4.41-3.84-6.61.06-1.75,3.05-4.58,5.02-4.84,5.41-.72,10.97-.38,16.46-.39,43.33-.09,86.66-.16,130-.23,2.79,0,5.59,0,7.98,0,.55-1.02.89-1.35.83-1.59-4.91-21.02,4.5-36.34,20.21-48.5,28.72-22.23,76.26-19.82,102.09,5.02,9.98,9.59,17.56,20.63,15.64,35.59-.35,2.73-1.32,5.38-2.18,8.75,2.07.17,3.8.43,5.54.43,81.5-.04,162.99-.14,244.49-.09,4.7,0,7.84-1.5,10.31-5.42,2.48-3.94,5.38-7.61,8.11-11.39,2.72-3.76,6.32-5.72,11.05-5.74,15-.06,30-.27,45-.29,5.08,0,7.8,2.47,7.78,6.5-.02,3.93-2.75,6.08-8.06,6.09-12.67.04-25.33,0-38,0-8.1,0-10.14,1.46-13.68,10.35,2.81,0,5.35,0,7.89,0,17.66.07,35.33.15,52.99.19,9.08.02,16.23-8.84,13.71-18.42-3.03-11.54-7.06-22.84-11.07-34.09-4.63-13-9.78-25.83-14.58-38.77-2.34-6.31,1.61-12.48,8.39-12.62,14.99-.32,30-.5,44.99-.23,8.66.16,14.48,4.84,17.61,13.11,4.76,12.59,9.73,25.11,14.93,37.52.67,1.59,3.25,3.28,5.01,3.35,8.98.35,17.99.19,26.99.2,8.67.01,14.04-4.93,15.93-14.11,6.55-31.78,13.23-63.53,19.87-95.29,5.28-25.25,10.71-50.46,15.77-75.75,1.71-8.56-4.38-15.42-13.19-15.42-70.83-.05-141.66-.03-212.5-.02-.65,0-1.29.17-1.87.25-.17.44-.49.88-.38,1.03,6.88,9.77,3.7,19.96,1.48,30.2-7.79,35.94-15.55,71.89-23.16,107.87-3.96,18.73-7.5,37.54-11.42,56.28-.98,4.69,1.53,4.92,4.93,4.92,26-.01,52,.02,78,.04,1.83,0,3.67-.09,5.5.03,4.63.32,7.84,3.49,7.56,7.53-.32,4.7-3.77,5.48-7.48,5.5-9.67.04-19.33-.11-29-.12-7.33,0-14.68-.14-21.99.32-2.06.13-4.6,1.7-5.89,3.4-3.8,5.03-7.2,10.38-10.53,15.75-2.26,3.66-5.29,5.06-9.54,5.05-25.67-.07-51.33.03-77,.04-45.67.02-91.33.03-137,0-8.39,0-8.1-.2-10.68-8.32-6.11-19.26-18.19-33.97-35.71-43.84-31.37-17.69-63.36-18.97-95.15-1.37-18.72,10.36-31.52,25.9-36.09,47.29-1.01,4.72-3.11,6.82-8.08,6.44-4.47-.34-8.99.07-13.49.02-8.16-.08-11.59-3.86-10.36-12.06,1.46-9.71,2.93-19.45,5.16-29,6.62-28.36,16.98-55.33,32.17-80.25,28.05-46.01,66.71-80.39,115.1-103.91,7.17-3.49,14.58-6.5,21.85-9.77,1.15-.52,2.19-1.28,3.51-2.06ZM670.05,294.87c.29.14.58.41.87.41,1.16-.01,2.34-.02,3.49-.19,18.43-2.61,36.84-2.51,55.29-.11,17.42,2.27,34.39,6.12,50.27,13.85,6.37,3.1,12.58,6.9,14.89,13.94,1.48,4.52,3.69,6.02,8.04,5.56,1.47-.16,3.1.48,4.46.08,1.61-.47,3.89-1.35,4.36-2.62,3.23-8.78,9.64-14.28,17.89-17.75,29.76-12.51,60.83-16.54,92.88-13.84,4.85.41,9.69,1,14.92,1.54-14.79-32.63-67.85-72.34-133.62-72.43-52.13-.07-124.64,38.52-133.73,71.54ZM946.29,405.84c-.51-.28-1.03-.57-1.54-.85-7.64,7.75-16.27,13.76-27.19,15.6-22.96,3.85-45.55,1.85-67.49-5.56-15.59-5.26-26.34-15.71-30.14-32.4-2.8-12.3-6.03-24.51-8.91-36.79-1.31-5.59-5.69-3.93-9.22-4.27-3.45-.33-5.34.87-6.06,4.79-2.19,11.92-4.38,23.88-7.53,35.57-4.01,14.87-12.75,26.13-27.6,31.94-13,5.08-26.54,7.59-40.38,8.36-15.21.84-30.44.74-44.23-7.1-5.06-2.88-9.62-6.65-14.65-10.18.19.8.3,1.42.49,2.02,6.36,20.12,19.52,35.44,35.38,48.47,19.71,16.19,42.02,27.98,66.42,35.47,21.28,6.54,42.88,8.9,65.04,4.32,25.69-5.31,48.89-16.05,70.14-31.15,16.11-11.45,30.75-24.48,40.36-42.15,2.79-5.13,4.76-10.71,7.11-16.08ZM640.88,726.95c0-.07,0-.13,0-.2,14.66,0,29.32.06,43.99-.02,8.25-.05,13.2-5.2,13.22-13.53.02-9.95-5.63-17.11-12.78-22.68-20.66-16.1-43.9-20.08-68.74-11.97-14.37,4.69-25.39,13.74-30.56,28.65-4.26,12.29.72,19.71,13.39,19.75,13.83.04,27.66.01,41.49.01ZM1065.7,725.64c.83.4,1.26.78,1.7.79,11.15.24,22.3.56,33.45.59,4.3.01,7.55-2.26,9.56-6.16,3.18-6.18,3.14-12.86.95-18.96-7.35-20.47-15.33-40.71-22.97-61.08-1.11-2.95-2.92-4.17-5.97-4.15-11.82.05-23.63,0-35.45.05-.73,0-1.45.54-2.03.77,6.81,18.48,13.75,36.62,20.13,54.96,2.98,8.57,5.96,17.42,2.9,26.76-.7,2.15-1.5,4.26-2.26,6.42ZM880.69,546.63c-9.41,6.86-18.55,14.04-28.22,20.41-8.79,5.8-14.39,4.67-20.58-3.79-4.01-5.48-7.41-11.46-10.5-17.51-2.06-4.03-4.18-4.58-6.94-1.34-1.16,1.37-2.03,3.73-1.77,5.45,2.35,15.29,4.92,30.54,7.56,45.78,3.53,20.33,7.17,40.63,10.81,60.94.23,1.3.92,2.51,1.52,4.06,16-15.36,49.77-96.88,48.12-113.99ZM725.33,545.26c11.42,41.3,26.55,79.9,51.62,115.82.98-4.46,1.8-7.43,2.28-10.46,2.28-14.29,4.53-28.58,6.67-42.89,2.79-18.58,5.34-37.2,8.29-55.75.76-4.79-1.13-7.09-5.62-8.67-.85,1.46-1.57,2.92-2.49,4.24-4.63,6.66-9.09,13.46-14.07,19.85-3.71,4.76-8.97,4.77-14.05,2.39-3.44-1.61-6.78-3.62-9.77-5.95-7.42-5.77-14.62-11.84-22.86-18.56ZM701.44,305.19c-5.38.32-12.96.16-20.3,1.38-9.45,1.58-18.79,4.01-28.03,6.6-5.08,1.42-7.78,5.74-6.72,10.83,1.06,5.05,3.53,9.81,5.39,14.68,1.27,3.33,2.99,6.56,3.77,9.99,2.02,8.9,3.01,18.08,5.55,26.82,5.36,18.44,17.12,30.74,36.73,33.52,17,2.41,33.83.66,50.43-3.79,15.01-4.02,24.86-13,28.25-28.37,2.68-12.15,5.08-24.37,7.57-36.57,2.32-11.42-.39-16.83-11.04-21.35-22.19-9.42-45.48-13.43-71.6-13.76ZM905.44,305.21c-6.43.38-12.79.43-19.07,1.18-17.4,2.07-34.55,5.32-50.62,12.68-10.71,4.9-14.38,10.74-12.41,22.17,2.2,12.75,5.18,25.4,8.51,37.91,2.72,10.21,8.55,18.2,18.98,22.29,19.49,7.63,39.59,10.21,60.29,7.64,4.37-.54,8.84-2.02,12.78-4.02,15.69-7.95,22.05-22.37,25.61-38.47,2.66-12,2.69-24.33,9.9-35.54,6.38-9.92,2.97-15.69-8.2-19.54-14.87-5.13-30.41-5.36-45.77-6.29ZM912.3,659.67c-.21,6.2,4.75,14.23,8.78,16.05,2.48,1.12,3.91.72,4.43-2.44,1.39-8.36,2.98-16.69,4.71-24.99,3.86-18.56,7.88-37.09,11.78-55.65,4.15-19.69,8.25-39.39,12.34-59.09,2.74-13.19,5.75-26.34,7.92-39.63.58-3.52-1.13-7.63-2.54-11.17-.67-1.7-3.1-2.7-4.73-4.02-1.28,1.81-3.24,3.46-3.72,5.46-5.62,23.61-11.15,47.24-16.45,70.93-5.48,24.51-10.71,49.07-16.01,73.62-2.35,10.89-4.61,21.79-6.53,30.93ZM717.68,485.45c0,6.48-.27,12.21.09,17.9.26,4.06.22,8.86,2.32,11.97,10.29,15.24,22.52,28.75,38.05,39,3.67,2.43,6.38,2.34,8.78-1.35,2.71-4.17,5.8-8.18,7.93-12.64,4.8-10.07,9.11-20.38,13.78-30.95-24.65-3.93-48.03-11.54-70.95-23.94ZM891.26,487.42c-.74-.46-1.49-.92-2.23-1.38-22.15,11.89-45.42,20.47-70.4,23.94,3.13,6.26,5.88,11.73,8.6,17.21,3.83,7.71,7.38,15.57,11.56,23.09,3.83,6.88,5.47,7.04,12.04,2.58,14.03-9.53,25.48-21.73,35.95-34.92.51-.64,1.23-1.34,1.31-2.08,1.11-9.47,2.12-18.96,3.16-28.44Z"/>
        <path d="M418.35,391c0-55.49.04-110.97-.05-166.46-.01-8.54,3.38-14.79,10.99-18.53,2-.98,4.44-1.5,6.68-1.5,62.48-.13,124.97-.18,187.45-.21,5.6,0,8.24,2.2,8.17,6.5-.07,4.33-2.62,6.41-8.25,6.41-59.65-.03-119.3-.1-178.95-.14-2.33,0-4.69-.09-6.98.22-3.76.51-6.13,2.78-6.2,6.65-.12,6.83.1,13.66.06,20.49-.02,3.38,2.2,3.06,4.44,3.06,24.99.01,49.98.08,74.98.08,37.16-.01,74.31-.08,111.47-.08,1.62,0,3.83-.02,4.74.94,1.65,1.76,3.69,4.41,3.4,6.37-.28,1.92-3.05,3.84-5.15,4.98-1.43.78-3.59.26-5.42.26-60.82.06-121.63.16-182.45.06-4.56,0-5.97,1.19-5.97,5.83.08,95.64.01,191.28-.02,286.92,0,1.17.01,2.33.05,3.5.23,7.54,2.75,9.94,10.48,9.95,11,.01,21.99.03,32.99,0,22.16-.07,44.32-.17,66.48-.25,1.33,0,2.67-.02,3.99.1,3.92.36,6.17,2.7,6.29,6.47.13,3.71-2.26,5.75-5.84,6.28-1.64.24-3.32.29-4.98.29-33.32,0-66.65.04-99.97-.04-11.51-.03-18.97-5.02-21.43-14.29-.71-2.69-.78-5.6-.78-8.41-.04-55.15-.03-110.3-.03-165.46h-.18Z"/>
        <path d="M613.94,820.72c18.49,0,36.99-.2,55.48.13,5.04.09,10.28,1.17,15.03,2.9,8.55,3.12,12.95,10.15,13.15,18.92.5,22.15.4,44.31.51,66.47.02,4.27-2.93,5.99-6.49,6.13-6.48.27-12.98.09-19.47-.08-4.26-.12-6.05-2.39-6-6.79.18-17.49.11-34.99.14-52.49.01-6.21-1.88-8.55-8.04-8.86-4.98-.26-9.99.25-14.98.09-4.09-.13-5.02,1.82-4.99,5.5.15,17.99.1,35.99.14,53.99.01,6.59-1.53,8.36-8.05,8.58-5.49.18-11,.22-16.49.1-5.78-.13-6.9-1.36-6.92-7.28-.07-17.16-.09-34.33-.12-51.49-.01-7.55-1.82-9.49-9.4-9.51-4.5-.01-9,.49-13.48.35-4.2-.13-5.36,1.65-5.31,5.66.24,17.66.19,35.32.31,52.99.05,7.67-1.54,9.31-9.34,9.29-5.33-.02-10.66.03-15.99-.06-4.49-.08-6.54-2.51-6.53-6.96.05-26.66.02-53.32.12-79.98.02-5.7,1.5-7.1,7.76-7.14,19.66-.12,39.32-.04,58.98-.04,0-.14,0-.27,0-.41Z"/>
        <path d="M719.67,883.27c0-18.15-.02-36.29.01-54.44.01-6.44,1.16-7.83,7.36-7.89,18.31-.2,36.63-.56,54.93-.17,11.38.24,21.27,4.15,25.99,15.84.61,1.52,1.18,3.2,1.19,4.8.12,17.45.71,34.92-.04,52.33-.49,11.48-8.66,19.64-20.06,20.77-10.21,1.01-20.58.61-30.88.66-7.02.04-7.11-.09-7.23,6.66-.11,5.98-.02,11.97.05,17.96.06,5.11-1.79,7.36-7.03,7.58-5.48.23-10.99.12-16.48.04-6.25-.09-7.69-1.55-7.69-7.73-.02-18.81,0-37.62,0-56.43h-.11ZM777.96,868.36s.1,0,.15,0c0-4.33.15-8.67-.04-12.99-.26-6-2.59-8.48-8.57-8.84-4.64-.28-9.32.02-13.99.02-3.11,0-4.46,1.42-4.41,4.61.18,11.66.26,23.32.28,34.98,0,2.77,1.16,3.93,3.87,3.9,5.16-.06,10.33.11,15.49-.06,4.46-.14,7.19-2.35,7.2-7.13.01-4.83,0-9.66,0-14.48Z"/>
        <path d="M1214.54,851.29c0-18.65,0-37.31,0-55.96,0-6.37,1.93-8.38,8.28-8.45,5.49-.05,10.99-.05,16.49-.05,4.51,0,6.74,2.31,6.74,6.8,0,6.99.26,14-.1,20.97-.25,4.8,1.79,6.05,6.13,5.92,8.32-.24,16.65-.2,24.98-.21,18.48-.02,28.47,9.87,28.51,28.28.04,19.65.03,39.3.02,58.96,0,5.61-1.44,7.44-6.82,7.73-6.15.33-12.32.29-18.48.21-4.44-.06-5.86-2.77-5.83-6.96.11-17.32.06-34.64.07-51.96,0-8.2-1.17-9.51-9.52-9.69-4.65-.1-9.32.41-13.98.31-4.05-.08-5.51,1.46-5.45,5.59.24,17.65.24,35.31.28,52.96.02,8.75-.97,9.7-9.69,9.66-4.66-.03-9.33-.01-13.99-.16-5.97-.19-7.35-1.5-7.37-7.49-.07-18.82-.03-37.64-.03-56.46-.08,0-.16,0-.24,0Z"/>
        <path d="M1071.24,914.97c-9.65,0-19.37.71-28.95-.17-14.09-1.29-21.92-7.79-23.07-21.67-1.42-17.19-1.23-34.63-.1-51.86.76-11.49,8.36-18.87,19.83-19.67,15.54-1.09,31.31-1.25,46.81.13,12.89,1.15,19.75,10.14,20.47,23.18.45,8.14.29,16.32.24,24.48-.04,6.88-2.86,9.77-9.7,9.79-13.83.03-27.66-.18-41.49-.1-2.12.01-5.55-1.45-5.83,2.62-.27,3.9.68,7.6,5.13,8.5,3.06.62,6.3.42,9.46.43,10.83.05,21.66.04,32.49.04,6.08,0,7.83,1.84,8.32,7.97,1.36,17.04-1.32,17.01-16.12,16.89-5.83-.05-11.66,0-17.5,0,0-.18,0-.37,0-.55ZM1062,861.77s0-.09,0-.14c3.15,0,6.3-.04,9.45.01,2.94.05,4.24-1.25,3.98-4.24-.15-1.64-.08-3.32.04-4.97.3-4.04-1.83-5.85-5.56-5.97-4.97-.16-9.99-.51-14.89.05-1.94.22-4.69,2.31-5.25,4.12-2.58,8.28-.28,11.1,8.26,11.14,1.33,0,2.65,0,3.98,0Z"/>
        <path d="M525.91,868.69c0,7.5.31,15.01-.07,22.48-.65,12.86-8.29,22.32-21.12,23.22-16.02,1.13-32.24.97-48.28-.06-11.41-.74-19.97-10.24-20.48-21.69-.71-16.13-.88-32.32-.19-48.45.55-12.83,9.74-22.05,24.04-23,15.04-.99,30.31-.59,45.33.84,12.52,1.19,19.68,10.04,20.49,22.68.51,7.96.1,15.98.1,23.97.06,0,.12,0,.18,0ZM494.6,868.72h.18c0-4.82.03-9.64,0-14.46-.03-3.9-1.85-6.39-5.9-6.6-5.29-.28-10.59-.55-15.88-.44-4.35.09-6.59,2.52-6.48,7.08.14,5.82.08,11.64.09,17.46.02,18.53,1.64,20.02,20.21,18.62.33-.03.67-.02.99-.07,4.14-.58,6.77-2.63,6.79-7.12.02-4.82,0-9.64,0-14.46Z"/>
        <path d="M327.92,854.07c0-9.66-.1-19.33.02-28.99.26-19.95,12.59-32.4,32.52-32.67,16.49-.22,32.99-.2,49.49-.2,6.11,0,7.54,1.53,7.64,7.75.06,3.66.08,7.33-.02,11-.19,6.76-2.41,8.94-9.21,8.87-11.5-.11-22.99-.38-34.49-.49-2.48-.02-5,.18-7.45.58-4.71.76-7.53,3.49-7.52,8.43.03,16.83.04,33.66.3,50.48.1,6.04,4.32,9.41,11.72,9.49,12.33.14,24.66-.01,36.99-.07,9.17-.04,10.45,1.21,10.43,10.32,0,2-.04,4-.01,6,.11,8.26-1.9,10.63-10.03,10.74-16.49.23-32.99.49-49.48.23-18.38-.29-30.1-11.98-30.74-30.47-.36-10.32-.06-20.66-.06-30.99-.03,0-.05,0-.08,0Z"/>
        <path d="M1114.06,331.79c0,35.66,0,71.31,0,106.97,0,1.33.07,2.68-.08,3.99-.48,4.3-3.44,7.18-7.15,6.79-4.27-.45-5.81-3.09-5.79-7.25.1-21.66.07-43.32.09-64.98.04-37.32.01-74.64.2-111.96.02-4.16-1.18-5.43-5.33-5.4-35.15.2-70.31.21-105.47.26-2.16,0-4.64.53-6.41-.33-2.05-1.01-4.79-3.24-4.84-5.02-.07-2.19,1.92-4.91,3.78-6.52,1.23-1.07,3.81-.76,5.78-.77,35.49-.07,70.98-.17,106.47-.02,4.76.02,6.54-1.24,6.08-6.14-.44-4.62-.09-9.32-.12-13.99-.05-8.99-1.31-10.25-10.56-10.26-28.16-.04-56.32-.06-84.47-.07-6.33,0-12.66.18-18.99.05-2.08-.04-4.61-.25-6.1-1.43-1.7-1.35-3.69-4.16-3.31-5.81.48-2.06,3.02-3.98,5.12-5.2,1.4-.81,3.58-.34,5.41-.34,35.49-.01,70.98,0,106.47,0,11.55,0,19.28,7.75,19.29,19.47.02,35.99,0,71.98,0,107.97h-.06Z"/>
        <path d="M985.12,916.24c-5.14-.36-10.34-.34-15.4-1.15-10.85-1.75-17.9-8.77-18.52-19.7-.77-13.61-.49-27.29-.56-40.94-.04-8.05.06-8.05-7.75-8.26-7.68-.21-7.98-.51-8.27-8.35-.04-1.16-.08-2.33-.08-3.5,0-13-.19-13.1,11.9-12.98,2.92.03,3.8-1.41,3.73-4-.11-3.99-.15-7.99-.24-11.99-.1-4.42,1.91-7.01,6.45-7.11,6.49-.15,12.99-.18,19.48-.2,3.43,0,5.21,1.8,5.3,5.24.11,4.49.3,8.99.26,13.49-.02,2.96,1.25,4.23,4.17,4.25,4.49.03,8.99.22,13.48.31,3.99.08,6.25,1.84,6.21,6.07-.04,4.33,0,8.66.03,12.99.02,3.96-2.03,5.73-5.9,5.74-4.5.02-8.99.24-13.49.16-3.08-.06-4.6.94-4.57,4.28.12,10.82-.04,21.65.13,32.47.09,5.42,2.25,7.35,7.75,7.53,2.82.09,5.66-.14,8.49-.11,5.59.07,7.19,1.6,7.34,7.08.1,3.49-.02,6.99,0,10.49.03,4.7-2.6,6.98-6.95,7.56-2.14.28-4.32.24-6.48.29-2.16.04-4.33,0-6.49,0l-.02.34Z"/>
        <path d="M1170.79,820.6c6.5,0,13-.1,19.49.03,5.5.11,7.12,1.81,7.24,7.23.1,4.33.06,8.66.16,12.99.09,3.96-1.77,5.83-5.72,5.82-7.49-.02-14.99-.03-22.48.07-2.99.04-6.25-.3-8.89.77-2.4.97-5.8,3.55-5.88,5.53-.43,10.77-.33,21.6.36,32.36.26,4.11,4.47,4.89,8.17,4.91,8.66.04,17.33.02,25.99.04,6.57.02,8.01,1.36,8.23,7.81.11,3.33.07,6.66.1,9.99.04,4.13-1.87,6.98-6.09,7.01-15.13.11-30.34.86-45.38-.41-13.56-1.15-21.54-10.29-22.17-24.05-.71-15.29-.62-30.66-.07-45.96.44-12.12,8.61-21.19,20.54-22.99,8.67-1.31,17.57-1.15,26.36-1.65,0,.17.02.34.03.51Z"/>
        <path d="M829.11,845.86c0-16.81,0-33.62,0-50.44,0-7.17,1.37-8.59,8.36-8.64,5.16-.03,10.32-.03,15.48.03,6.03.06,7.55,1.64,7.56,7.86.04,28.96.16,57.93.02,86.89-.04,7.57,1.31,11.53,10,11.06,3.37-.18,5.24,1.76,5.3,5.22.05,2.99.17,5.98.08,8.97-.23,7.33-1.17,8.61-8.32,8.78-7.8.18-15.68.3-23.39-.67-9.46-1.19-14.7-7.53-14.82-17.14-.22-17.31-.06-34.62-.06-51.93h-.2Z"/>
        <path d="M699.14,1005.7c2.51-4.02,4.49-6.79,6.06-9.79,5.03-9.57,9.81-19.26,14.88-28.8,2.49-4.69,11.77-7.02,16.01-4.01,1.15.81,2.1,2.77,2.1,4.2.07,22.49-.04,44.99-.08,67.48,0,2.79-1.39,3.89-4.02,3.83-1.33-.03-2.68-.08-4,.06-4.5.47-6.22-1.38-6.13-5.99.25-12.32.14-24.66.14-36.99,0-1.75-.16-3.49-.25-5.24-.42-.12-.85-.24-1.27-.36-2.57,4.7-5.18,9.37-7.69,14.09-2.5,4.7-4.86,9.48-7.33,14.2-3.97,7.6-10.23,8.26-14.88,1-5.27-8.24-9.75-16.99-14.58-25.51-.54-.96-1.16-1.88-2.89-2.82-.2,1.6-.55,3.21-.56,4.81-.14,12.16-.19,24.32-.31,36.49-.06,5.96-.37,6.08-6.75,6.27-4.42.13-7.17-.49-7.11-6.1.22-21.49.1-42.99-.1-64.48-.04-4.6,1.83-5.81,6.18-6.16,6.49-.51,10.19,1.58,13.12,7.69,5.66,11.81,12.37,23.12,19.45,36.13Z"/>
        <path d="M509.71,293.06c9.33,0,18.66-.22,27.97.17,2.18.09,5.22,1.8,6.12,3.63.75,1.52-.33,5.28-1.83,6.37-8.61,6.26-11.23,14.24-9.49,24.59.92,5.5.14,11.3,0,16.96-.19,8-5.59,13.39-13.62,13.43-11.66.05-23.31.04-34.97-.14-8.06-.12-12.2-4.41-12.31-12.42-.19-13.98-.34-27.97-.48-41.95-.06-6.32,3.74-10.4,10.12-10.49,9.49-.13,18.98-.03,28.48-.03,0-.04,0-.07,0-.11ZM519.61,325.97c-.54-.37-1.08-.75-1.63-1.12-2.63,3.09-5.01,6.46-7.95,9.22-6.64,6.21-9.28,6.16-16.25.31-2.8-2.35-5.45-4.87-8.98-8.04,0,5.51.14,9.82-.04,14.11-.15,3.56,1.47,4.64,4.8,4.57,6.33-.13,12.66.02,18.99.04,3.75.01,7.51,0,11.07,0v-19.1ZM516.01,307.79c-.21-.39-.41-.79-.62-1.18h-27.76c-.27.39-.54.78-.82,1.17,4.44,4.71,8.84,9.47,13.41,14.05.44.44,2.38.15,2.96-.44,4.37-4.44,8.57-9.05,12.83-13.6Z"/>
        <path d="M509.28,385.23c8.83,0,17.66-.24,26.47.16,2.39.11,5.67,1.59,6.74,3.47.88,1.56-.1,5.6-1.64,6.85-7.3,5.96-8.55,13.52-7.75,22.25.55,5.95.2,11.98.12,17.98-.09,7.37-4.66,12.39-12.05,12.53-12.82.24-25.65.17-38.47-.03-6.13-.1-10.38-4.75-10.43-11.04-.11-13.82-.12-27.65-.09-41.47.02-6.6,3.43-10.17,10.11-10.3,8.99-.17,17.99-.04,26.98-.04,0-.12,0-.24,0-.35ZM485.28,417.04c0,6.06-.19,10.81.15,15.52.07,1,2.05,2.65,3.18,2.67,9.46.15,18.92.06,28.38-.14,1.08-.02,3.01-1.11,3.05-1.78.26-4.98.14-9.98.14-16.07-4.4,3.9-7.7,7.13-11.32,9.96-5.36,4.19-8.99,3.98-14.1-.65-2.93-2.66-5.61-5.6-9.48-9.5ZM516.9,400.19l-.8-1.13h-29.26c5.17,5.33,9.32,9.74,13.65,13.95.57.56,2.55.61,3.12.09,4.53-4.19,8.88-8.58,13.29-12.9Z"/>
        <path d="M888.3,868.19c0-12.5,0-24.99,0-37.49,0-8.21.38-8.65,8.81-8.81,5.16-.1,10.33-.14,15.49-.05,5.71.09,7.13,1.63,7.1,7.76-.08,15.83-.28,31.66-.35,47.48-.05,10.16-.08,20.33.11,30.49.09,4.66-1.68,7.47-6.44,7.62-6.15.2-12.32.28-18.47.03-4.21-.17-6.45-2.19-6.34-7.05.3-13.32.1-26.66.1-39.98h-.02Z"/>
        <path d="M794.46,962.72c5.99-1.45,8.77,1.77,10.73,6.94,7.79,20.51,15.78,40.94,23.69,61.4,2.25,5.82,1.09,7.25-5.07,7.63-5.23.32-8.02-1.4-9.88-6.61-4.29-12-4.6-11.92-17.54-11.88-5.15.02-11.46-1.54-15.13.86-3.55,2.32-4.4,8.79-6.39,13.46-1.66,3.9-11.17,6.5-14.5,3.59-.85-.75-.74-3.37-.2-4.81,5.25-14.18,10.7-28.29,16.04-42.44,2.7-7.15,5.46-14.29,7.86-21.54,1.73-5.24,4.71-7.91,10.4-6.59ZM784.17,1008.25h21.03c-3.33-9.33-6.41-17.94-9.48-26.54-.59-.03-1.19-.07-1.78-.1-3.12,8.52-6.24,17.03-9.76,26.64Z"/>
        <path d="M919.57,1000.23c0-10.32.02-20.65,0-30.97-.02-6.42.37-7,6.62-7.06,13.49-.11,26.98.07,40.46-.18,4.59-.09,5.18,2.36,5.21,5.9.02,3.63.29,7.35-4.94,7.37-9.16.03-18.32.23-27.47-.06-4.14-.13-5.45,1.11-5.42,5.3.1,12.13-.07,12.15,11.9,12.46,4.99.13,9.99.19,14.98.17,4.48-.02,4.53,3.05,4.43,6.17-.09,3.01.06,6.17-4.53,6.09-7.49-.13-14.99.09-22.48-.05-3.18-.06-4.61,1.01-4.48,4.3.16,4.16.22,8.33,0,12.48-.19,3.46,1.47,4.28,4.5,4.25,9.49-.1,18.99.15,28.47-.17,4.92-.16,5.89,2.25,5.95,6.38.06,4.17-.99,6.5-5.82,6.41-13.81-.28-27.64-.33-41.46-.26-4.07.02-5.58-1.45-5.51-5.56.2-10.99.07-21.98.07-32.97-.16,0-.31,0-.47,0Z"/>
        <path d="M472.27,503.3c0-5.99-.03-11.98,0-17.97.05-7.19,3.93-11.89,11.05-12.1,11.96-.36,23.96-.43,35.92,0,7.69.27,12.12,6,12.04,13.68-.11,11.14-.01,22.29-.06,33.43-.05,10.16-4.87,14.87-15.06,14.83-10.15-.04-20.3-.01-30.44-.1-8.72-.08-13.12-4.57-13.15-13.31-.03-6.16,0-12.31,0-18.47-.1,0-.19,0-.29,0ZM485.36,503.41h.05c0,4.66-.3,9.35.18,13.96.15,1.47,2.31,3.85,3.65,3.91,8.47.42,16.97.28,25.45.37,2.74.03,3.79-1.18,3.75-3.95-.13-9.15-.14-18.31-.05-27.46.03-2.58-.98-3.61-3.48-3.62-8.65-.04-17.31-.14-25.96-.25-2.83-.04-3.72,1.35-3.63,4.05.16,4.32.04,8.65.04,12.98Z"/>
        <path d="M862.48,1006.26c0-8.16.02-16.32,0-24.47-.02-6.66-.04-6.65-6.97-6.69-3.5-.02-6.99-.07-10.49-.11-4.92-.06-4.7-3.48-4.77-6.97-.07-3.54.82-5.78,4.92-5.8,16.48-.07,32.96-.21,49.44-.4,4.2-.05,4.88,2.44,4.86,5.86-.02,3.38.58,7.06-4.41,7.25-4.32.16-8.67.36-12.97.05-4.11-.3-5.51,1.01-5.44,5.25.25,16.65.16,33.3.18,49.94.01,7.64-5.29,11.24-12.23,7.96-1.22-.57-2.01-3.21-2.05-4.92-.2-8.99-.09-17.98-.09-26.97h.04Z"/>
        <path d="M585.77,500.55c-11.97,0-23.94.04-35.91-.02-5.66-.03-7.91-1.95-8.05-6.53-.13-4.22,2.54-6.5,8.16-6.51,24.27-.05,48.54,0,72.81-.02,4.41,0,6.93,2.08,7.2,6.47.27,4.33-2.23,6.64-7.31,6.68-12.3.08-24.6.03-36.91.03v-.1Z"/>
        <path d="M584.59,309.57c9.83,0,19.66-.05,29.5.02,4.93.04,7.57,2.38,7.72,6.54.14,3.86-2.75,6.63-7.69,6.64-20.16.07-40.33.04-60.49-.11-5.02-.04-7.63-2.59-7.69-6.69-.06-4.14,2.39-6.39,7.65-6.45,10.33-.12,20.66-.04,30.99-.04,0,.03,0,.05,0,.08Z"/>
        <path d="M1017.28,432.38c-9.66,0-19.33.22-28.97-.17-2.22-.09-5.17-1.78-6.37-3.64-2.48-3.83-.1-8.07,4.54-8.89,2.28-.4,4.64-.4,6.97-.41,16.82-.04,33.64-.05,50.46-.06,5.56,0,8.87,2.54,8.75,6.69-.12,4.19-3.24,6.53-8.91,6.55-8.83.03-17.65,0-26.48,0v-.09Z"/>
        <path d="M579.31,399.45c7.98,0,15.95-.03,23.93.01,5.8.03,8.53,2.29,8.43,6.8-.09,4.28-2.79,6.62-8.19,6.63-15.45.04-30.91-.03-46.36-.12-1.98-.01-3.98-.28-5.93-.64-3.62-.67-5.44-2.89-5.36-6.63.09-3.99,2.49-5.75,6.07-5.8,9.14-.14,18.28-.05,27.41-.05,0-.07,0-.14,0-.2Z"/>
        <path d="M904.51,785.24c2.66,0,5.32-.04,7.97,0,6.43.11,8.36,1.81,8.53,8.23.11,4.29-.15,8.62-.57,12.9-.31,3.23-2.34,5.04-5.72,5.02-7.14-.04-14.27-.05-21.41-.18-3.53-.07-5.73-2.12-5.86-5.55-.19-4.96-.02-9.95.26-14.92.21-3.8,2.62-5.53,6.32-5.55,3.49-.02,6.97,0,10.46,0v.05Z"/>
        <path d="M566.47,524.11c-5.15,0-10.31.09-15.46-.05-1.77-.05-4.05-.08-5.18-1.12-1.87-1.72-4.31-4.42-4.05-6.39.26-1.99,3.44-5.08,5.43-5.14,12.77-.43,25.56-.37,38.33.11,1.78.07,4.57,3.13,4.85,5.1.28,1.96-1.57,4.81-3.32,6.28-1.41,1.19-4.04,1.18-6.15,1.25-4.81.16-9.64.05-14.46.05,0-.03,0-.07,0-.1Z"/>
        <path d="M565.4,435.69c-4.3-.34-8.63-.51-12.9-1.09-3.34-.45-6.02-2.69-5.12-6.03.65-2.42,3.29-5.96,5.24-6.1,8.58-.61,17.24-.44,25.84.05,3.31.19,5.13,3.11,4.71,6.56-.46,3.83-3.14,5.87-6.76,6.19-3.64.33-7.32.07-10.99.07,0,.12-.01.23-.02.35Z"/>
        <path d="M561.85,344.96c-3.48-.2-6.98-.18-10.42-.66-3.29-.46-5.33-2.37-5.41-6.04-.07-3.69,1.47-6.7,5.06-6.83,7.41-.27,14.88-.06,22.24.76,1.71.19,4.03,3.57,4.25,5.67.19,1.81-1.82,5.04-3.53,5.62-3.81,1.28-8.05,1.29-12.12,1.82-.02-.12-.05-.23-.07-.35Z"/>
        <path d="M459.56,231.21c-.26,5.55-2.58,7.66-6.1,7.7-3.42.05-6.11-1.66-6.25-5.68-.12-3.41,3.11-7.25,6.11-6.35,2.58.78,4.68,3.18,6.24,4.32Z"/>
        <path d="M473.41,230.89c1.49-1.15,3.4-3.49,5.79-4.23,2.85-.88,6.85,3.31,5.79,6.27-.82,2.3-3.46,5.15-5.65,5.51-3.46.56-5.39-2.46-5.94-7.54Z"/>
        <path class="cls-1" d="M670.05,294.87c9.09-33.02,81.6-71.61,133.72-71.54,65.77.09,118.83,39.8,133.62,72.43-5.23-.55-10.07-1.14-14.92-1.54-32.04-2.69-63.11,1.34-92.88,13.84-8.25,3.47-14.66,8.97-17.89,17.75-.47,1.27-2.75,2.15-4.36,2.62-1.36.4-2.99-.24-4.46-.08-4.35.46-6.56-1.04-8.04-5.56-2.31-7.04-8.52-10.84-14.89-13.94-15.88-7.73-32.85-11.58-50.27-13.85-18.45-2.4-36.86-2.5-55.29.11-1.15.16-2.32.17-3.49.19-.29,0-.58-.27-.87-.41Z"/>
        <path class="cls-1" d="M946.29,405.84c-2.35,5.37-4.31,10.95-7.11,16.08-9.62,17.67-24.25,30.7-40.36,42.15-21.24,15.1-44.44,25.84-70.14,31.15-22.16,4.58-43.77,2.22-65.04-4.32-24.4-7.5-46.71-19.28-66.42-35.47-15.85-13.02-29.02-28.35-35.38-48.47-.19-.6-.3-1.23-.49-2.02,5.03,3.53,9.59,7.3,14.65,10.18,13.79,7.84,29.02,7.94,44.23,7.1,13.84-.76,27.38-3.28,40.38-8.36,14.85-5.8,23.6-17.07,27.6-31.94,3.15-11.69,5.34-23.65,7.53-35.57.72-3.92,2.61-5.12,6.06-4.79,3.53.34,7.91-1.32,9.22,4.27,2.87,12.29,6.1,24.49,8.91,36.79,3.8,16.69,14.56,27.14,30.14,32.4,21.93,7.41,44.53,9.41,67.49,5.56,10.92-1.83,19.56-7.85,27.19-15.6.51.28,1.03.57,1.54.85ZM804.77,442.3c2.96,1.79,6.67,4.87,10.94,6.44,6.95,2.55,14.2,4.46,21.46,5.96,3.22.67,6.29-1.17,6.92-4.98.63-3.79-1.33-5.95-4.95-6.79-2.43-.56-4.85-1.15-7.27-1.76-6.86-1.72-13.29-4.26-18.22-9.63-5.86-6.38-6.2-12.69-1.34-19.82,2.52-3.69,4.95-7.49,6.99-11.46,1.68-3.27.24-6.68-3.09-7.04-7.51-.81-15.2-1.25-22.7-.58-5.09.45-6.44,4.6-4.05,9.4,1.33,2.66,3.05,5.13,4.64,7.66,7.38,11.72,4.63,21.83-8.07,27.75-5.22,2.43-10.94,3.81-16.46,5.57-3.28,1.04-5.21,3.15-4.91,6.58.31,3.67,2.91,5.1,6.32,4.84,2.97-.22,6.12-.3,8.82-1.37,8.25-3.27,16.31-6.99,24.97-10.76ZM754.6,433.22c-.71-4.79-2.03-8.04-6.42-7.14-12.36,2.53-24.67,5.35-36.96,8.22-1.31.31-2.94,1.53-3.38,2.71-.75,2-1.47,4.68-.69,6.37.64,1.38,3.71,2.73,5.35,2.39,12.7-2.62,25.34-5.53,37.92-8.71,1.79-.45,3.1-2.81,4.19-3.85ZM861.11,425.05c-3.3.71-6.34,1.11-6.69,5.12-.33,3.76,1.2,6.52,5.06,7.42,11.32,2.62,22.65,5.19,33.99,7.7,3.21.71,6.53,1.01,7.89-3.01,1.44-4.29-1.11-6.72-4.65-8.05-3.72-1.4-7.6-2.39-11.46-3.36-8.03-2.01-16.09-3.89-24.14-5.82Z"/>
        <path class="cls-1" d="M640.88,726.95c-13.83,0-27.66.03-41.49-.01-12.67-.04-17.65-7.46-13.39-19.75,5.17-14.91,16.19-23.96,30.56-28.65,24.83-8.1,48.08-4.12,68.74,11.97,7.16,5.58,12.81,12.73,12.78,22.68-.02,8.34-4.97,13.49-13.22,13.53-14.66.08-29.32.02-43.99.02,0,.07,0,.13,0,.2ZM625.62,683.44c-13.45.64-24.42,4.65-31.86,15.75-2.19,3.26-2.11,6.17,1.04,8.77,3.11,2.57,5.83,1.39,8.44-.86.5-.43,1.04-.87,1.4-1.41,7.47-10.96,27.35-12.77,37.45-3.5.97.89,2.07,1.71,3.25,2.28,3.22,1.55,6.64,2,9.09-1.06,2.56-3.2,1.03-6.29-1.53-8.81-7.75-7.65-17.44-10.5-27.29-11.15Z"/>
        <path class="cls-1" d="M1065.7,725.64c.76-2.16,1.56-4.28,2.26-6.42,3.06-9.34.08-18.19-2.9-26.76-6.38-18.34-13.32-36.48-20.13-54.96.58-.23,1.3-.77,2.03-.77,11.82-.05,23.63,0,35.45-.05,3.06-.01,4.87,1.2,5.97,4.15,7.64,20.37,15.63,40.61,22.97,61.08,2.19,6.1,2.23,12.78-.95,18.96-2.01,3.9-5.26,6.17-9.56,6.16-11.15-.03-22.3-.35-33.45-.59-.44,0-.87-.39-1.7-.79Z"/>
        <path class="cls-1" d="M880.69,546.63c1.66,17.11-32.11,98.63-48.12,113.99-.59-1.55-1.28-2.76-1.52-4.06-3.64-20.31-7.28-40.61-10.81-60.94-2.64-15.24-5.21-30.49-7.56-45.78-.26-1.72.61-4.08,1.77-5.45,2.76-3.24,4.88-2.69,6.94,1.34,3.09,6.05,6.49,12.04,10.5,17.51,6.19,8.47,11.79,9.6,20.58,3.79,9.67-6.38,18.8-13.55,28.22-20.41Z"/>
        <path class="cls-1" d="M725.33,545.26c8.24,6.72,15.44,12.78,22.86,18.56,3,2.33,6.34,4.34,9.77,5.95,5.08,2.39,10.34,2.37,14.05-2.39,4.98-6.39,9.43-13.19,14.07-19.85.92-1.32,1.64-2.78,2.49-4.24,4.49,1.58,6.38,3.89,5.62,8.67-2.95,18.56-5.5,37.17-8.29,55.75-2.15,14.31-4.39,28.6-6.67,42.89-.48,3.03-1.3,6.01-2.28,10.46-25.07-35.92-40.2-74.52-51.62-115.82Z"/>
        <path class="cls-1" d="M701.44,305.19c26.12.33,49.41,4.34,71.6,13.76,10.64,4.52,13.36,9.93,11.04,21.35-2.48,12.2-4.89,24.41-7.57,36.57-3.39,15.37-13.24,24.35-28.25,28.37-16.6,4.45-33.43,6.2-50.43,3.79-19.62-2.79-31.37-15.08-36.73-33.52-2.54-8.74-3.52-17.92-5.55-26.82-.78-3.44-2.5-6.66-3.77-9.99-1.86-4.88-4.33-9.63-5.39-14.68-1.07-5.09,1.64-9.41,6.72-10.83,9.24-2.59,18.58-5.02,28.03-6.6,7.35-1.23,14.92-1.06,20.3-1.38ZM717.32,403.21c7.24-.94,14.56-1.5,21.71-2.9,14.86-2.91,25.73-10.87,29.39-26.24,2.41-10.15,4.34-20.44,5.87-30.76,1.36-9.15-1.03-13.55-9.66-16.75-10.71-3.98-21.61-7.72-32.72-10.31-17.09-3.98-34.39-3.74-51.31,1.39-11.21,3.4-16.01,10.11-15.85,21.83.07,5.29.47,10.76,1.93,15.79,2.76,9.51,5.27,19.38,9.91,28,8.54,15.89,23.44,20.59,40.74,19.94Z"/>
        <path class="cls-1" d="M905.44,305.21c15.36.93,30.9,1.16,45.77,6.29,11.17,3.85,14.59,9.61,8.2,19.54-7.21,11.21-7.25,23.54-9.9,35.54-3.56,16.09-9.92,30.52-25.61,38.47-3.94,2-8.41,3.48-12.78,4.02-20.7,2.57-40.8,0-60.29-7.64-10.43-4.09-16.26-12.08-18.98-22.29-3.33-12.51-6.32-25.16-8.51-37.91-1.97-11.43,1.7-17.26,12.41-22.17,16.07-7.36,33.23-10.61,50.62-12.68,6.28-.75,12.63-.8,19.07-1.18ZM890.95,403.69c.07-.45.14-.9.21-1.35,2.83,0,5.67.13,8.49-.02,14.43-.78,25.46-7.35,32.39-20.05,7.37-13.51,10.97-28.14,11.63-43.49.39-9.21-3.82-16.28-12.15-19.34-8-2.93-16.64-5.11-25.11-5.57-21.62-1.17-42.37,3.63-62.16,12.3-9.73,4.26-12.21,8.14-10.94,18.69,1.09,9.05,3.11,18.03,5.18,26.92,3.23,13.86,12.09,22.89,25.65,26.65,8.75,2.42,17.85,3.55,26.79,5.26Z"/>
        <path class="cls-1" d="M912.3,659.67c1.93-9.14,4.18-20.04,6.53-30.93,5.3-24.55,10.52-49.11,16.01-73.62,5.3-23.68,10.82-47.32,16.45-70.93.48-2,2.44-3.65,3.72-5.46,1.63,1.32,4.05,2.32,4.73,4.02,1.41,3.54,3.11,7.65,2.54,11.17-2.17,13.29-5.18,26.44-7.92,39.63-4.09,19.7-8.2,39.4-12.34,59.09-3.91,18.55-7.92,37.08-11.78,55.65-1.73,8.3-3.32,16.63-4.71,24.99-.52,3.15-1.95,3.55-4.43,2.44-4.04-1.81-8.99-9.85-8.78-16.05Z"/>
        <path class="cls-1" d="M717.68,485.45c22.92,12.4,46.3,20.01,70.95,23.94-4.67,10.57-8.98,20.88-13.78,30.95-2.13,4.46-5.22,8.46-7.93,12.64-2.4,3.69-5.1,3.78-8.78,1.35-15.53-10.25-27.77-23.76-38.05-39-2.1-3.11-2.05-7.91-2.32-11.97-.37-5.69-.09-11.42-.09-17.9Z"/>
        <path class="cls-1" d="M891.26,487.42c-1.04,9.48-2.05,18.96-3.16,28.44-.09.74-.8,1.43-1.31,2.08-10.47,13.19-21.93,25.39-35.95,34.92-6.57,4.46-8.22,4.3-12.04-2.58-4.18-7.51-7.73-15.38-11.56-23.09-2.73-5.48-5.47-10.95-8.6-17.21,24.98-3.47,48.25-12.05,70.4-23.94.74.46,1.49.92,2.23,1.38Z"/>
        <path class="cls-1" d="M777.96,868.36c0,4.83,0,9.66,0,14.48-.01,4.78-2.74,6.99-7.2,7.13-5.16.16-10.33,0-15.49.06-2.72.03-3.87-1.12-3.87-3.9-.02-11.66-.1-23.32-.28-34.98-.05-3.19,1.3-4.61,4.41-4.61,4.66,0,9.34-.3,13.99-.02,5.98.36,8.3,2.84,8.57,8.84.19,4.32.04,8.66.04,12.99-.05,0-.1,0-.15,0Z"/>
        <path class="cls-1" d="M1062,861.77c-1.33,0-2.65,0-3.98,0-8.54-.04-10.84-2.86-8.26-11.14.56-1.81,3.31-3.9,5.25-4.12,4.9-.55,9.92-.2,14.89-.05,3.73.12,5.86,1.93,5.56,5.97-.12,1.65-.18,3.33-.04,4.97.27,2.99-1.03,4.29-3.98,4.24-3.15-.05-6.3-.01-9.45-.01,0,.05,0,.09,0,.14Z"/>
        <path class="cls-1" d="M494.6,868.72c0,4.82.02,9.64,0,14.46-.02,4.49-2.65,6.54-6.79,7.12-.33.05-.66.04-.99.07-18.56,1.4-20.18-.09-20.21-18.62,0-5.82.06-11.64-.09-17.46-.11-4.56,2.12-6.99,6.48-7.08,5.29-.11,10.59.16,15.88.44,4.05.21,5.87,2.7,5.9,6.6.04,4.82,0,9.64,0,14.46h-.18Z"/>
        <path class="cls-1" d="M519.61,325.97v19.1c-3.56,0-7.32.01-11.07,0-6.33-.02-12.66-.17-18.99-.04-3.33.07-4.95-1.01-4.8-4.57.18-4.3.04-8.6.04-14.11,3.53,3.17,6.18,5.69,8.98,8.04,6.97,5.85,9.61,5.9,16.25-.31,2.95-2.76,5.32-6.13,7.95-9.22.54.37,1.08.75,1.63,1.12Z"/>
        <path class="cls-1" d="M516.01,307.79c-4.26,4.55-8.46,9.16-12.83,13.6-.59.6-2.52.88-2.96.44-4.57-4.58-8.97-9.34-13.41-14.05.27-.39.54-.78.82-1.17h27.76c.21.39.41.79.62,1.18Z"/>
        <path class="cls-1" d="M485.28,417.04c3.87,3.9,6.55,6.85,9.48,9.5,5.1,4.63,8.74,4.84,14.1.65,3.62-2.83,6.92-6.06,11.32-9.96,0,6.09.12,11.09-.14,16.07-.04.67-1.97,1.76-3.05,1.78-9.46.2-18.92.3-28.38.14-1.12-.02-3.1-1.67-3.18-2.67-.34-4.71-.15-9.46-.15-15.52Z"/>
        <path class="cls-1" d="M516.9,400.19c-4.41,4.33-8.76,8.71-13.29,12.9-.57.53-2.55.47-3.12-.09-4.34-4.21-8.49-8.62-13.65-13.95h29.26l.8,1.13Z"/>
        <path class="cls-1" d="M784.17,1008.25c3.52-9.6,6.64-18.12,9.76-26.64.59.03,1.19.07,1.78.1,3.07,8.6,6.15,17.2,9.48,26.54h-21.03Z"/>
        <path class="cls-1" d="M485.36,503.41c0-4.33.11-8.66-.04-12.98-.1-2.7.8-4.09,3.63-4.05,8.65.11,17.31.21,25.96.25,2.5.01,3.51,1.04,3.48,3.62-.09,9.15-.08,18.31.05,27.46.04,2.78-1.02,3.98-3.75,3.95-8.49-.09-16.98.04-25.45-.37-1.34-.07-3.5-2.44-3.65-3.91-.48-4.61-.18-9.3-.18-13.96h-.05Z"/>
        <path d="M804.77,442.3c-8.66,3.77-16.73,7.49-24.97,10.76-2.7,1.07-5.85,1.14-8.82,1.37-3.41.26-6.01-1.17-6.32-4.84-.29-3.43,1.63-5.54,4.91-6.58,5.53-1.75,11.24-3.13,16.46-5.57,12.69-5.92,15.44-16.03,8.07-27.75-1.59-2.53-3.31-5-4.64-7.66-2.39-4.8-1.04-8.95,4.05-9.4,7.5-.66,15.19-.23,22.7.58,3.33.36,4.77,3.78,3.09,7.04-2.04,3.97-4.47,7.76-6.99,11.46-4.86,7.13-4.52,13.44,1.34,19.82,4.93,5.37,11.37,7.91,18.22,9.63,2.42.61,4.84,1.2,7.27,1.76,3.63.84,5.59,2.99,4.95,6.79-.63,3.81-3.7,5.65-6.92,4.98-7.26-1.5-14.51-3.4-21.46-5.96-4.27-1.57-7.98-4.64-10.94-6.44Z"/>
        <path d="M754.6,433.22c-1.08,1.04-2.4,3.4-4.19,3.85-12.57,3.17-25.22,6.08-37.92,8.71-1.64.34-4.7-1.01-5.35-2.39-.79-1.69-.06-4.37.69-6.37.45-1.19,2.08-2.41,3.38-2.71,12.29-2.88,24.6-5.69,36.96-8.22,4.38-.9,5.71,2.35,6.42,7.14Z"/>
        <path d="M861.11,425.05c8.05,1.93,16.11,3.81,24.14,5.82,3.86.97,7.75,1.96,11.46,3.36,3.54,1.33,6.09,3.76,4.65,8.05-1.35,4.02-4.68,3.72-7.89,3.01-11.34-2.51-22.67-5.08-33.99-7.7-3.87-.9-5.39-3.65-5.06-7.42.35-4.01,3.39-4.41,6.69-5.12Z"/>
        <path d="M625.62,683.44c9.85.66,19.53,3.5,27.29,11.15,2.56,2.53,4.09,5.61,1.53,8.81-2.45,3.06-5.87,2.61-9.09,1.06-1.18-.57-2.28-1.39-3.25-2.28-10.1-9.27-29.97-7.46-37.45,3.5-.37.54-.9.98-1.4,1.41-2.61,2.26-5.32,3.44-8.44.86-3.15-2.6-3.23-5.51-1.04-8.77,7.43-11.1,18.41-15.11,31.86-15.75Z"/>
        <path d="M717.32,403.21c-17.3.65-32.2-4.06-40.74-19.94-4.64-8.63-7.15-18.49-9.91-28-1.46-5.04-1.86-10.51-1.93-15.79-.16-11.73,4.64-18.44,15.85-21.83,16.92-5.13,34.22-5.37,51.31-1.39,11.11,2.59,22.01,6.33,32.72,10.31,8.64,3.21,11.03,7.6,9.66,16.75-1.54,10.32-3.46,20.61-5.87,30.76-3.66,15.38-14.52,23.33-29.39,26.24-7.15,1.4-14.47,1.96-21.71,2.9ZM708.01,324.7c-8.42,1.66-16.85,3.25-25.25,4.99-5.43,1.12-7.22,4.82-6.58,10.01,1.47,11.93,3.74,23.7,9.22,34.51,4.53,8.95,11.33,15.36,22.06,15.43,8.12.05,16.34.16,24.33-1.01,10.66-1.56,20.79-5.33,24.34-16.97,2.84-9.32,4.48-19,6.66-28.53.69-2.99-1.24-4.13-3.5-5.12-16.28-7.16-33.09-12.07-51.27-13.31Z"/>
        <path d="M890.95,403.69c-8.94-1.71-18.05-2.84-26.79-5.26-13.56-3.75-22.41-12.79-25.65-26.65-2.08-8.9-4.09-17.87-5.18-26.92-1.27-10.55,1.21-14.43,10.94-18.69,19.79-8.67,40.53-13.46,62.16-12.3,8.47.46,17.11,2.63,25.11,5.57,8.33,3.06,12.54,10.13,12.15,19.34-.66,15.35-4.25,29.99-11.63,43.49-6.93,12.7-17.96,19.27-32.39,20.05-2.82.15-5.66.02-8.49.02-.07.45-.14.9-.21,1.35ZM900.45,324.78c-.09.45-.19.91-.28,1.36-17.75.05-34.66,3.87-50.72,11.43-2.7,1.27-5.16,2.69-4.32,6.29,2.04,8.74,3.79,17.57,6.33,26.16,2.34,7.92,7.71,13.17,15.75,16.08,10.64,3.85,21.48,4.04,32.5,3.49,9.65-.48,16.71-5.1,21.54-13.26,6.66-11.24,9.72-23.58,10.95-36.48.47-4.93-1.71-8.41-6.15-9.57-8.44-2.2-17.05-3.71-25.59-5.51Z"/>
        <path class="cls-1" d="M708.01,324.7c18.18,1.24,34.99,6.15,51.27,13.31,2.26,1,4.19,2.13,3.5,5.12-2.18,9.52-3.82,19.21-6.66,28.53-3.55,11.64-13.68,15.41-24.34,16.97-7.99,1.17-16.21,1.06-24.33,1.01-10.73-.07-17.53-6.49-22.06-15.43-5.47-10.81-7.74-22.58-9.22-34.51-.64-5.19,1.15-8.89,6.58-10.01,8.4-1.74,16.83-3.33,25.25-4.99ZM713.04,358.45c1.75,4.56,2.83,9.54,5.38,13.6,4.78,7.6,13.99,7.43,18.93-.04,3.9-5.89,5.42-12.57,4.2-19.55-1.77-10.08-10.7-14.79-19.39-10.36-6.5,3.3-8.2,9.2-9.12,16.35Z"/>
        <path class="cls-1" d="M900.45,324.78c8.54,1.8,17.15,3.31,25.59,5.51,4.44,1.16,6.62,4.63,6.15,9.57-1.23,12.9-4.29,25.24-10.95,36.48-4.83,8.16-11.89,12.78-21.54,13.26-11.03.55-21.87.36-32.5-3.49-8.04-2.91-13.41-8.16-15.75-16.08-2.54-8.59-4.29-17.42-6.33-26.16-.84-3.6,1.62-5.02,4.32-6.29,16.06-7.55,32.97-11.38,50.72-11.43.09-.45.19-.91.28-1.36ZM893.87,358.89c-.35-.15-.7-.31-1.06-.46-.22-2.31-.26-4.67-.7-6.94-1.17-6.04-5.75-10.12-11.6-10.57-6.36-.49-11.89,2.59-13.56,8.64-2.41,8.76-1.54,17.19,5.11,24.18,4.89,5.14,12.52,5.08,16.32-.87,2.65-4.14,3.72-9.29,5.49-13.99Z"/>
        <path d="M713.04,358.45c.92-7.16,2.63-13.05,9.12-16.35,8.69-4.42,17.62.28,19.39,10.36,1.22,6.98-.29,13.66-4.2,19.55-4.95,7.47-14.16,7.64-18.93.04-2.55-4.06-3.63-9.03-5.38-13.6Z"/>
        <path d="M893.87,358.89c-1.78,4.7-2.85,9.85-5.49,13.99-3.8,5.95-11.43,6.01-16.32.87-6.64-6.99-7.52-15.42-5.11-24.18,1.67-6.05,7.2-9.13,13.56-8.64,5.85.45,10.43,4.53,11.6,10.57.44,2.27.48,4.62.7,6.94.35.15.7.31,1.06.46Z"/>
      </g>
    </g>
  </g>
</svg>